<svg width="463" height="163" viewBox="0 0 463 163" fill="none" xmlns="http://www.w3.org/2000/svg">
<path d="M174.527 10.955C199.046 17.4865 224.466 12.0648 222.695 1C229.198 14.4134 281.619 22.3455 298.673 11.0739C316.152 32.7684 386.409 30.9436 405.41 14.8797C390.479 35.6393 421.31 60.2647 461.294 54.6593C428.15 61.7685 399.821 100.641 448.787 115.774C393.557 115.721 390.936 127.075 391.568 147.296C347.554 121.505 314.984 142.138 306.937 161.921C293.211 144.65 214.388 151.015 199.549 159.496C194.15 138.396 116.613 133.394 101.543 150.386C103.267 129.887 59.8852 114.245 23.0026 126.527C41.08 113.041 47.7922 86.5154 1 78.4774C47.5422 78.5219 49.6384 53.8505 37.3366 47.483C66.6579 53.7183 112.798 38.4264 95.9855 20.3734C93.0096 18.89 90.7526 17.1603 89.4746 15.2033C92.2506 16.9407 94.3985 18.6694 95.9855 20.3734C116.096 30.3988 169.039 29.1825 174.527 10.955Z" fill="white"/>
<path d="M174.527 10.955L174.784 9.98867C174.262 9.84972 173.725 10.1498 173.569 10.6667L174.527 10.955ZM222.695 1L223.594 0.563742C223.378 0.117469 222.867 -0.102793 222.394 0.046177C221.921 0.195148 221.629 0.668335 221.707 1.15806L222.695 1ZM37.3366 47.483L37.5446 46.5049C37.0549 46.4008 36.5637 46.6748 36.395 47.1462C36.2264 47.6175 36.4323 48.141 36.8769 48.3711L37.3366 47.483ZM1 78.4774L1.00096 77.4774C0.481423 77.4769 0.0480429 77.8743 0.00365627 78.3919C-0.0407304 78.9096 0.318663 79.375 0.830699 79.4629L1 78.4774ZM89.4746 15.2033L90.0052 14.3556C89.6072 14.1065 89.0896 14.1678 88.7608 14.503C88.432 14.8381 88.3807 15.3569 88.6374 15.75L89.4746 15.2033ZM298.673 11.0739L299.452 10.4465C299.128 10.0448 298.552 9.95524 298.122 10.2397L298.673 11.0739ZM405.41 14.8797L406.222 15.4636C406.516 15.0537 406.459 14.4883 406.089 14.1455C405.718 13.8027 405.15 13.7901 404.764 14.1161L405.41 14.8797ZM461.294 54.6593L461.504 55.6371C462.03 55.5242 462.373 55.015 462.279 54.4849C462.185 53.9549 461.689 53.5943 461.156 53.669L461.294 54.6593ZM448.787 115.774L448.786 116.774C449.281 116.774 449.702 116.413 449.776 115.924C449.85 115.435 449.555 114.965 449.082 114.819L448.787 115.774ZM391.568 147.296L391.063 148.159C391.377 148.343 391.766 148.342 392.079 148.156C392.392 147.97 392.579 147.629 392.568 147.265L391.568 147.296ZM306.937 161.921L306.154 162.544C306.375 162.822 306.727 162.962 307.079 162.911C307.43 162.861 307.729 162.627 307.863 162.298L306.937 161.921ZM199.549 159.496L198.58 159.744C198.657 160.046 198.872 160.295 199.159 160.417C199.446 160.539 199.774 160.519 200.045 160.364L199.549 159.496ZM101.543 150.386L100.546 150.302C100.51 150.731 100.753 151.136 101.149 151.305C101.545 151.475 102.005 151.372 102.291 151.05L101.543 150.386ZM23.0026 126.527L22.4047 125.725C22.0112 126.019 21.889 126.555 22.1162 126.99C22.3434 127.425 22.8528 127.631 23.3186 127.476L23.0026 126.527ZM174.269 11.9213C186.661 15.2223 199.305 15.5127 208.674 13.5549C213.35 12.5779 217.293 11.0236 219.978 8.93058C222.689 6.81763 224.199 4.07219 223.682 0.841941L221.707 1.15806C222.076 3.46019 221.073 5.54175 218.749 7.35323C216.399 9.18463 212.788 10.6522 208.265 11.5972C199.237 13.4836 186.912 13.2192 174.784 9.98867L174.269 11.9213ZM36.8769 48.3711C42.496 51.2796 44.8717 58.357 40.4119 64.8165C35.8923 71.3627 24.1639 77.4995 1.00096 77.4774L0.999042 79.4774C24.3783 79.4997 36.9691 73.3232 42.0577 65.9529C47.2061 58.4959 44.479 50.0539 37.7963 46.5949L36.8769 48.3711ZM88.9441 16.0509C91.667 17.7552 93.7411 19.4308 95.2537 21.055L96.7173 19.6919C95.0559 17.908 92.8341 16.1262 90.0052 14.3556L88.9441 16.0509ZM95.2537 21.055C97.256 23.2049 98.2492 25.2359 98.5043 27.112C98.7579 28.9769 98.2974 30.7985 97.1896 32.5726C94.9399 36.1756 90.0743 39.4841 83.5863 42.1093C70.6531 47.3425 51.9906 49.5769 37.5446 46.5049L37.1286 48.4612C52.0038 51.6244 71.0722 49.3305 84.3365 43.9633C90.9471 41.2884 96.2968 37.7786 98.8861 33.6319C100.198 31.531 100.813 29.245 100.486 26.8425C100.161 24.4512 98.9182 22.0552 96.7173 19.6919L95.2537 21.055ZM88.6374 15.75C90.0531 17.9181 92.4878 19.7472 95.5393 21.2684L96.4316 19.4785C93.5314 18.0327 91.4521 16.4025 90.3119 14.6565L88.6374 15.75ZM95.5393 21.2684C105.827 26.3969 124.3 28.592 140.82 27.2558C149.099 26.5862 156.972 25.0243 163.152 22.4492C169.297 19.8889 173.982 16.2328 175.484 11.2432L173.569 10.6667C172.327 14.7909 168.337 18.1222 162.383 20.6031C156.464 23.0693 148.816 24.6025 140.659 25.2623C124.308 26.5848 106.255 24.3753 96.4316 19.4785L95.5393 21.2684ZM221.795 1.43626C222.709 3.32241 224.386 5.03181 226.549 6.56253C228.721 8.09949 231.443 9.49979 234.538 10.7456C240.728 13.2372 248.506 15.1507 256.588 16.2841C264.673 17.4179 273.104 17.777 280.606 17.1377C288.079 16.5009 294.753 14.8637 299.225 11.9082L298.122 10.2397C294.066 12.9199 287.792 14.5181 280.436 15.145C273.109 15.7693 264.831 15.4205 256.866 14.3035C248.898 13.1862 241.286 11.3061 235.285 8.89024C232.284 7.68222 229.711 6.35024 227.705 4.93005C225.689 3.5036 224.306 2.03094 223.594 0.563742L221.795 1.43626ZM297.894 11.7013C302.457 17.3638 310.363 21.3921 319.782 24.0425C329.228 26.7009 340.334 28.0116 351.459 28.1362C362.587 28.2607 373.773 27.199 383.388 25.0896C392.971 22.9872 401.117 19.8179 406.055 15.6434L404.764 14.1161C400.201 17.9735 392.44 21.0562 382.96 23.136C373.511 25.2088 362.478 26.2594 351.482 26.1363C340.483 26.0132 329.56 24.7164 320.323 22.1173C311.059 19.5103 303.629 15.6313 299.452 10.4465L297.894 11.7013ZM404.598 14.2959C400.699 19.7167 399.756 25.4582 401.256 30.907C402.747 36.3213 406.62 41.3424 412.163 45.4592C423.247 53.6917 441.226 58.4825 461.433 55.6496L461.156 53.669C441.379 56.4416 423.95 51.7223 413.355 43.8536C408.059 39.9198 404.524 35.2425 403.184 30.376C401.854 25.5441 402.655 20.4225 406.222 15.4636L404.598 14.2959ZM461.085 53.6816C444.278 57.2865 428.583 68.9501 423.323 81.8295C420.673 88.3195 420.661 95.168 424.577 101.374C428.466 107.538 436.131 112.909 448.492 116.729L449.082 114.819C436.96 111.072 429.803 105.909 426.268 100.307C422.759 94.7454 422.721 88.5941 425.175 82.5857C430.124 70.4684 445.166 59.1413 461.504 55.6371L461.085 53.6816ZM448.788 114.774C434.953 114.761 424.37 115.461 416.288 116.848C408.214 118.233 402.56 120.315 398.647 123.119C390.695 128.817 390.254 137.247 390.569 147.327L392.568 147.265C392.251 137.124 392.804 129.766 399.812 124.745C403.378 122.19 408.696 120.18 416.626 118.819C424.549 117.46 435.005 116.761 448.786 116.774L448.788 114.774ZM392.074 146.433C347.597 120.371 314.313 141.132 306.01 161.545L307.863 162.298C315.654 143.144 347.512 122.64 391.063 148.159L392.074 146.433ZM307.719 161.299C305.857 158.956 302.953 157.083 299.376 155.588C295.788 154.088 291.449 152.937 286.629 152.079C276.989 150.364 265.314 149.805 253.639 150.052C241.959 150.299 230.241 151.353 220.504 152.88C215.635 153.644 211.25 154.527 207.605 155.49C203.978 156.449 201.022 157.502 199.053 158.628L200.045 160.364C201.785 159.37 204.539 158.369 208.116 157.424C211.676 156.483 215.991 155.612 220.813 154.856C230.457 153.344 242.086 152.297 253.682 152.051C265.283 151.806 276.815 152.364 286.279 154.048C291.011 154.89 295.197 156.009 298.605 157.433C302.023 158.862 304.585 160.569 306.154 162.544L307.719 161.299ZM102.291 151.05C104.034 149.084 106.739 147.377 110.235 145.96C113.721 144.547 117.933 143.447 122.621 142.66C131.997 141.085 143.186 140.776 154.093 141.653C165.004 142.53 175.572 144.589 183.719 147.715C187.793 149.278 191.223 151.094 193.783 153.132C196.344 155.172 197.977 157.387 198.58 159.744L200.518 159.248C199.771 156.331 197.8 153.774 195.029 151.567C192.256 149.36 188.625 147.455 184.435 145.848C176.055 142.632 165.285 140.547 154.253 139.66C143.217 138.772 131.859 139.08 122.289 140.688C117.505 141.491 113.144 142.623 109.484 144.107C105.834 145.586 102.819 147.44 100.795 149.723L102.291 151.05ZM23.3186 127.476C41.5436 121.407 61.3906 122.238 76.4422 127.115C83.9685 129.553 90.2366 132.984 94.4984 137.01C98.7562 141.032 100.944 145.574 100.546 150.302L102.539 150.47C103.004 144.949 100.416 139.848 95.8718 135.556C91.3318 131.267 84.7725 127.711 77.0586 125.212C61.6296 120.213 41.3442 119.365 22.6867 125.578L23.3186 127.476ZM0.830699 79.4629C24.1343 83.466 33.5685 91.9822 35.3478 100.66C37.1437 109.419 31.3169 119.077 22.4047 125.725L23.6006 127.328C32.7657 120.491 39.3337 110.143 37.307 100.258C35.2637 90.2926 24.6579 81.5267 1.1693 77.4918L0.830699 79.4629Z" fill="#20525C"/>
</svg>
