<svg width="92" height="85" viewBox="0 0 92 85" fill="none" xmlns="http://www.w3.org/2000/svg">
<path d="M89.4493 54.1842C89.4493 74.3308 70.619 84.0544 47.068 84.0544C23.517 84.0544 4.94836 74.3308 4.94836 54.1842C4.94836 34.0376 23.517 11.0972 47.068 11.0972C70.619 11.0972 89.4493 34.0376 89.4493 54.1842Z" fill="#FAD094"/>
<path d="M60.9335 62.899C60.9335 69.3226 54.8706 72.4229 47.2876 72.4229C39.7046 72.4229 33.7258 69.3226 33.7258 62.899C33.7258 56.4755 39.7046 49.1611 47.2876 49.1611C54.8706 49.1611 60.9335 56.4755 60.9335 62.899Z" fill="#F0F4F4"/>
<path d="M12.1488 35.5073C5.08529 18.0609 4.30038 -6.78667 34.3859 14.6247L12.1488 35.5073Z" fill="#FAD094"/>
<path d="M83.1708 35.5073C90.2343 18.0609 91.0192 -6.78667 60.9337 14.6247L83.1708 35.5073Z" fill="#FAD094"/>
<rect x="44.1904" y="53.9204" width="6.2787" height="3.70073" rx="1.85036" fill="#008E7E"/>
<path d="M38.9675 61.3221C38.7058 64.7585 43.9381 69.0408 47.0774 60.7935M55.449 61.3221C55.7107 64.7585 50.4784 69.0408 47.3391 60.7935" stroke="black" stroke-width="5.5524" stroke-linecap="round"/>
<path d="M14.0842 21.0195C13.3621 16.1239 18.4061 12.421 22.7911 14.6277C26.0402 16.2628 26.4047 20.7981 23.4607 22.9593L21.7194 24.2377C18.7754 26.3989 14.6192 24.6471 14.0842 21.0195Z" fill="#008E7E"/>
<path d="M82.0035 21.0195C82.7255 16.1239 77.6815 12.421 73.2966 14.6277C70.0475 16.2628 69.6829 20.7981 72.6269 22.9593L74.3683 24.2377C77.3123 26.3989 81.4685 24.6471 82.0035 21.0195Z" fill="#008E7E"/>
<path d="M90.3295 54.8449C90.3295 74.9915 71.3031 84.715 47.5068 84.715C23.7104 84.715 4.94836 74.9915 4.94836 54.8449C4.94836 34.6983 23.7104 11.7578 47.5068 11.7578C71.3031 11.7578 90.3295 34.6983 90.3295 54.8449Z" fill="#FAD094"/>
<path d="M60.9335 63.5597C60.9335 69.9832 54.8706 73.0835 47.2876 73.0835C39.7046 73.0835 33.7258 69.9832 33.7258 63.5597C33.7258 57.1361 39.7046 49.8218 47.2876 49.8218C54.8706 49.8218 60.9335 57.1361 60.9335 63.5597Z" fill="#F0F4F4"/>
<path d="M12.1486 36.168C5.08506 18.7216 4.30015 -6.12602 34.3857 15.2854L12.1486 36.168Z" fill="#FAD094"/>
<path d="M83.1708 36.168C90.2343 18.7216 91.0192 -6.12602 60.9337 15.2854L83.1708 36.168Z" fill="#FAD094"/>
<rect x="44.5989" y="54.5811" width="6.34411" height="3.70073" rx="1.85036" fill="#B24000"/>
<path d="M39.0439 61.7899C38.7823 65.2263 44.0145 69.5086 47.1539 61.2612M55.5255 61.7899C55.7871 65.2263 50.5548 69.5086 47.4155 61.2612" stroke="black" stroke-width="3.17" stroke-linecap="round"/>
<path d="M14.0843 21.0195C13.3623 16.1239 18.4062 12.421 22.7912 14.6277C26.0403 16.2628 26.4048 20.7981 23.4609 22.9593L21.7195 24.2377C18.7755 26.3989 14.6193 24.6471 14.0843 21.0195Z" fill="#B24000"/>
<path d="M82.0037 21.0195C82.7258 16.1239 77.6818 12.421 73.2968 14.6277C70.0477 16.2628 69.6832 20.7981 72.6272 22.9593L74.3685 24.2377C77.3125 26.3989 81.4687 24.6471 82.0037 21.0195Z" fill="#B24000"/>
<ellipse cx="69.3052" cy="49.9934" rx="8.3716" ry="10.5735" fill="#B24000"/>
<path d="M68.9021 43.4545C68.938 42.9543 69.6724 42.9543 69.7083 43.4545C69.9319 46.5733 72.3236 49.136 75.4109 49.6308C75.8617 49.7031 75.8959 50.3508 75.4482 50.4405L75.1421 50.5018C72.1561 51.1 69.935 53.6153 69.711 56.6524C69.6739 57.155 68.9365 57.155 68.8994 56.6524C68.6754 53.6153 66.4543 51.1 63.4683 50.5018L63.1622 50.4405C62.7145 50.3508 62.7487 49.7031 63.1995 49.6308C66.2868 49.136 68.6785 46.5733 68.9021 43.4545Z" fill="#F0F4F4"/>
<ellipse cx="25.354" cy="49.9934" rx="8.3716" ry="10.5735" fill="#B24000"/>
<path d="M24.951 43.4545C24.9869 42.9543 25.7212 42.9543 25.7571 43.4545C25.9807 46.5733 28.3724 49.136 31.4597 49.6308C31.9105 49.7031 31.9447 50.3508 31.4971 50.4405L31.1909 50.5018C28.2049 51.1 25.9839 53.6153 25.7598 56.6524C25.7227 57.155 24.9853 57.155 24.9482 56.6524C24.7242 53.6153 22.5031 51.1 19.5171 50.5018L19.211 50.4405C18.7633 50.3508 18.7975 49.7031 19.2483 49.6308C22.3357 49.136 24.7273 46.5733 24.951 43.4545Z" fill="#F0F4F4"/>
<rect width="22.8612" height="9.95753" transform="matrix(0.762752 -0.646692 0.638874 0.769311 0 14.7842)" fill="#F0F4F4"/>
</svg>
