<svg width="87" height="77" viewBox="0 0 87 77" fill="none" xmlns="http://www.w3.org/2000/svg">
<path d="M85.4645 48.0817C85.4645 67.1831 67.4252 76.4023 44.8634 76.4023C22.3016 76.4023 4.51294 67.1831 4.51294 48.0817C4.51294 28.9803 22.3016 7.22998 44.8634 7.22998C67.4252 7.22998 85.4645 28.9803 85.4645 48.0817Z" fill="#FAD094"/>
<path d="M58.1466 56.3455C58.1466 62.4358 52.3383 65.3752 45.0738 65.3752C37.8093 65.3752 32.0817 62.4358 32.0817 56.3455C32.0817 50.2552 37.8093 43.3203 45.0738 43.3203C52.3383 43.3203 58.1466 50.2552 58.1466 56.3455Z" fill="#F0F4F4"/>
<path d="M11.4108 30.3744L32.7139 10.5751C24.0962 5.04076 16.7911 2.0054 13.5329 4.26108C10.2748 6.51677 8.52065 9.02305 7.0168 13.2836C5.5137 18.5467 9.37957 25.6746 11.4108 30.3744Z" fill="#FAD094"/>
<path d="M79.4501 30.374C86.2169 13.8327 86.9689 -9.72582 58.147 10.5748L79.4501 30.374Z" fill="#FAD094"/>
<ellipse cx="28.5728" cy="42.3176" rx="3.00749" ry="4.00999" fill="black"/>
<ellipse cx="61.1541" cy="42.3176" rx="3.00749" ry="4.00999" fill="black"/>
<rect x="42.1066" y="47.8315" width="6.01498" height="3.50874" rx="1.75437" fill="#B24000"/>
<path d="M37.103 54.8494C36.8524 58.1075 41.8649 62.1676 44.8724 54.3481M52.8924 54.8494C53.143 58.1075 48.1305 62.1676 45.123 54.3481" stroke="black" stroke-width="3.17" stroke-linecap="round"/>
<path d="M78.3353 16.6174C79.0268 11.9766 74.21 8.47689 70.0099 10.5687C66.8909 12.1222 66.5319 16.4305 69.351 18.4787L71.0161 19.6884C73.8351 21.7366 77.8217 20.0639 78.3353 16.6174Z" fill="#B24000"/>
<rect x="31.8993" width="20.0499" height="45.1124" rx="10.025" transform="rotate(45 31.8993 0)" fill="#B24000"/>
<rect x="24.8105" y="17.7216" width="5.01248" height="10.025" transform="rotate(45 24.8105 17.7216)" fill="#58C3AF" stroke="#FFAFA3" stroke-width="5.01248"/>
</svg>
