<svg width="94" height="85" viewBox="0 0 94 85" fill="none" xmlns="http://www.w3.org/2000/svg">
<path d="M91.3809 54.8253C91.3809 74.9718 72.3546 84.6954 48.5583 84.6954C24.762 84.6954 6 74.9718 6 54.8253C6 34.6787 24.762 11.7383 48.5583 11.7383C72.3546 11.7383 91.3809 34.6787 91.3809 54.8253Z" fill="#FAD094"/>
<path d="M62.568 63.5396C62.568 69.9632 56.4418 73.0634 48.7799 73.0634C41.1179 73.0634 35.0769 69.9632 35.0769 63.5396C35.0769 57.1161 41.1179 49.8018 48.7799 49.8018C56.4418 49.8018 62.568 57.1161 62.568 63.5396Z" fill="#F0F4F4"/>
<path d="M13.2756 36.1484C6.1385 18.702 5.34541 -6.14553 35.7443 15.2658L13.2756 36.1484Z" fill="#FAD094"/>
<path d="M85.037 36.1484C92.1741 18.702 92.9672 -6.14553 62.5683 15.2658L85.037 36.1484Z" fill="#FAD094"/>
<ellipse cx="31.3766" cy="48.746" rx="3.17205" ry="4.2294" fill="black"/>
<ellipse cx="65.7402" cy="48.746" rx="3.17205" ry="4.2294" fill="black"/>
<rect x="45.6504" y="54.5615" width="6.34409" height="3.70072" rx="1.85036" fill="#B24000"/>
<path d="M40.3734 61.9632C40.1091 65.3996 45.3958 69.6819 48.5679 61.4346M57.0267 61.9632C57.291 65.3996 52.0043 69.6819 48.8322 61.4346" stroke="black" stroke-width="3.17205" stroke-linecap="round"/>
<path d="M14.9922 20.4168C14.362 16.1881 18.7511 12.9992 22.5781 14.9053L24.9917 16.1074C27.8338 17.5229 28.1609 21.4486 25.5922 23.3149L22.0588 25.8821C19.4901 27.7483 15.8576 26.2242 15.3896 23.0838L14.9922 20.4168Z" fill="#B24000"/>
<path d="M84.475 20.4168C85.1052 16.1881 80.7161 12.9992 76.8891 14.9053L74.4754 16.1074C71.6334 17.5229 71.3063 21.4486 73.875 23.3149L77.4084 25.8821C79.9771 27.7483 83.6096 26.2242 84.0776 23.0838L84.475 20.4168Z" fill="#B24000"/>
<rect y="14.7842" width="23" height="10" transform="rotate(-40 0 14.7842)" fill="#F0F4F4"/>
</svg>
