<svg width="86" height="79" viewBox="0 0 86 79" fill="none" xmlns="http://www.w3.org/2000/svg">
<path d="M85.3809 48.8253C85.3809 68.9718 66.3546 78.6954 42.5583 78.6954C18.762 78.6954 0 68.9718 0 48.8253C0 28.6787 18.762 5.73828 42.5583 5.73828C66.3546 5.73828 85.3809 28.6787 85.3809 48.8253Z" fill="#FAD094"/>
<path d="M56.568 57.5396C56.568 63.9632 50.4418 67.0634 42.7799 67.0634C35.1179 67.0634 29.0769 63.9632 29.0769 57.5396C29.0769 51.1161 35.1179 43.8018 42.7799 43.8018C50.4418 43.8018 56.568 51.1161 56.568 57.5396Z" fill="#F0F4F4"/>
<path d="M7.27564 30.1484C0.138556 12.702 -0.654528 -12.1455 29.7443 9.26584L7.27564 30.1484Z" fill="#FAD094"/>
<path d="M79.0371 30.1484C86.1742 12.702 86.9673 -12.1455 56.5684 9.26584L79.0371 30.1484Z" fill="#FAD094"/>
<ellipse cx="25.3766" cy="42.746" rx="3.17205" ry="4.2294" fill="black"/>
<ellipse cx="59.7402" cy="42.746" rx="3.17205" ry="4.2294" fill="black"/>
<rect x="39.6505" y="48.5615" width="6.34409" height="3.70072" rx="1.85036" fill="#B24000"/>
</svg>
