<svg width="130" height="99" viewBox="0 0 130 99" fill="none" xmlns="http://www.w3.org/2000/svg">
<path d="M35.5138 87.8143L6.01375 53.3143L38.5138 47.3143L35.5138 87.8143Z" fill="#9F9F9F"/>
<path d="M92.5 89L123 55L90 47L92.5 89Z" fill="#9F9F9F"/>
<path d="M99 69.5C99 88.83 86.4597 99 64.9107 99C43.3617 99 30 89.33 30 70C30 50.67 43.3617 29 64.9107 29C86.4597 29 99 50.17 99 69.5Z" fill="#9F9F9F"/>
<ellipse cx="65" cy="38.5" rx="65" ry="38.5" fill="#D9D9D9"/>
<mask id="mask0_4814_25479" style="mask-type:alpha" maskUnits="userSpaceOnUse" x="0" y="0" width="130" height="77">
<ellipse cx="65" cy="38.5" rx="65" ry="38.5" fill="#D9D9D9"/>
</mask>
<g mask="url(#mask0_4814_25479)">
<path d="M104.952 52.5803C104.952 71.6817 86.9122 80.9008 64.3504 80.9008C41.7886 80.9008 23.9999 71.6817 23.9999 52.5803C23.9999 33.4789 41.7886 11.7285 64.3504 11.7285C86.9122 11.7285 104.952 33.4789 104.952 52.5803Z" fill="#FAD094"/>
<path d="M77.6335 60.844C77.6335 66.9343 71.8252 69.8738 64.5607 69.8738C57.2962 69.8738 51.5686 66.9343 51.5686 60.844C51.5686 54.7537 57.2962 47.8188 64.5607 47.8188C71.8252 47.8188 77.6335 54.7537 77.6335 60.844Z" fill="#F0F4F4"/>
<path d="M30.8978 34.8728L52.2009 15.0736C43.5832 9.53927 30.2581 9.74383 27 11.9995C23.7419 14.2552 28.0077 13.5215 26.5038 17.7821C25.0007 23.0452 28.8666 30.1731 30.8978 34.8728Z" fill="#FAD094"/>
<path d="M98.9372 34.8725C105.704 18.3312 106.456 -5.22728 77.6341 15.0733L98.9372 34.8725Z" fill="#FAD094"/>
<ellipse cx="48.0598" cy="46.8161" rx="3.00749" ry="4.00999" fill="black"/>
<ellipse cx="80.641" cy="46.8161" rx="3.00749" ry="4.00999" fill="black"/>
<rect x="61.5936" y="52.3301" width="6.01498" height="3.50874" rx="1.75437" fill="#B24000"/>
<path d="M56.5901 59.3479C56.3395 62.606 61.352 66.6662 64.3595 58.8467M72.3794 59.3479C72.63 62.606 67.6176 66.6662 64.6101 58.8467" stroke="black" stroke-width="5.5524" stroke-linecap="round"/>
<path d="M97.8223 21.116C98.5139 16.4751 93.697 12.9754 89.497 15.0673C86.3779 16.6207 86.019 20.9291 88.8381 22.9772L90.5031 24.187C93.3222 26.2351 97.3087 24.5624 97.8223 21.116Z" fill="#B24000"/>
<path d="M31.6648 21.1155C30.9732 16.4746 35.7901 12.9749 39.9901 15.0668C43.1092 16.6202 43.4681 20.9286 40.6491 22.9768L38.984 24.1865C36.165 26.2347 32.1784 24.562 31.6648 21.1155Z" fill="#B24000"/>
</g>
</svg>
