<svg width="101" height="101" viewBox="0 0 101 101" fill="none" xmlns="http://www.w3.org/2000/svg">
<path fill-rule="evenodd" clip-rule="evenodd" d="M50.5002 0.083252C78.3453 0.083252 100.917 22.6548 100.917 50.4999C100.917 78.345 78.3453 100.917 50.5002 100.917C22.655 100.917 0.0834961 78.345 0.0834961 50.4999C0.0834961 22.6548 22.655 0.083252 50.5002 0.083252ZM50.5002 10.1666C39.8031 10.1666 29.5442 14.416 21.9802 21.9799C14.4162 29.5439 10.1668 39.8029 10.1668 50.4999C10.1668 61.197 14.4162 71.4559 21.9802 79.0199C29.5442 86.5839 39.8031 90.8333 50.5002 90.8333C61.1972 90.8333 71.4562 86.5839 79.0201 79.0199C86.5841 71.4559 90.8335 61.197 90.8335 50.4999C90.8335 39.8029 86.5841 29.5439 79.0201 21.9799C71.4562 14.416 61.1972 10.1666 50.5002 10.1666ZM50.5002 20.2499C51.8373 20.2499 53.1197 20.7811 54.0652 21.7266C55.0107 22.6721 55.5418 23.9545 55.5418 25.2916V30.3333H65.6252C66.9623 30.3333 68.2447 30.8644 69.1902 31.8099C70.1357 32.7554 70.6668 34.0378 70.6668 35.3749C70.6668 36.7121 70.1357 37.9944 69.1902 38.9399C68.2447 39.8854 66.9623 40.4166 65.6252 40.4166H55.5418V45.4583H60.5835C63.9263 45.4583 67.1323 46.7862 69.496 49.1499C71.8597 51.5137 73.1877 54.7196 73.1877 58.0624C73.1877 61.4053 71.8597 64.6112 69.496 66.9749C67.1323 69.3387 63.9263 70.6666 60.5835 70.6666H55.5418V75.7083C55.5418 77.0454 55.0107 78.3278 54.0652 79.2733C53.1197 80.2188 51.8373 80.7499 50.5002 80.7499C49.163 80.7499 47.8807 80.2188 46.9352 79.2733C45.9897 78.3278 45.4585 77.0454 45.4585 75.7083V70.6666H35.3752C34.038 70.6666 32.7557 70.1354 31.8102 69.1899C30.8647 68.2444 30.3335 66.9621 30.3335 65.6249C30.3335 64.2878 30.8647 63.0054 31.8102 62.0599C32.7557 61.1144 34.038 60.5833 35.3752 60.5833H45.4585V55.5416H40.4168C37.074 55.5416 33.8681 54.2137 31.5043 51.8499C29.1406 49.4862 27.8127 46.2803 27.8127 42.9374C27.8127 39.5946 29.1406 36.3887 31.5043 34.0249C33.8681 31.6612 37.074 30.3333 40.4168 30.3333H45.4585V25.2916C45.4585 23.9545 45.9897 22.6721 46.9352 21.7266C47.8807 20.7811 49.163 20.2499 50.5002 20.2499ZM60.5835 55.5416H55.5418V60.5833H60.5835C61.2521 60.5833 61.8933 60.3177 62.366 59.8449C62.8387 59.3722 63.1043 58.731 63.1043 58.0624C63.1043 57.3939 62.8387 56.7527 62.366 56.2799C61.8933 55.8072 61.2521 55.5416 60.5835 55.5416ZM45.4585 40.4166H40.4168C39.7483 40.4166 39.1071 40.6822 38.6343 41.1549C38.1616 41.6277 37.896 42.2689 37.896 42.9374C37.896 43.606 38.1616 44.2472 38.6343 44.7199C39.1071 45.1927 39.7483 45.4583 40.4168 45.4583H45.4585V40.4166Z" fill="#008E7E"/>
</svg>
