<svg width="128" height="120" viewBox="0 0 128 120" fill="none" xmlns="http://www.w3.org/2000/svg">
<path d="M122.437 74.8519C122.437 88.2765 116.201 98.1216 105.788 104.788C95.1974 111.568 80.1799 115.085 63.023 115.085C45.8657 115.085 30.9536 111.567 20.4666 104.796C10.1603 98.1415 4 88.2999 4 74.8519C4 61.1088 10.4435 46.0953 21.2278 34.4832C31.9819 22.9036 46.7309 15.0461 63.023 15.0461C79.32 15.0461 94.1713 22.9082 105.026 34.4957C115.91 46.1153 122.437 61.1257 122.437 74.8519Z" stroke="#20525C" stroke-width="8"/>
<path d="M10.7745 47.1936C0.205502 21.358 -0.968947 -15.4378 44.0476 16.2695" stroke="#20525C" stroke-width="8"/>
<path d="M117.042 47.1936C127.611 21.358 128.786 -15.4378 83.7693 16.2695" stroke="#20525C" stroke-width="8"/>
<mask id="path-4-inside-1_691_2534" fill="white">
<ellipse cx="39.1451" cy="65.8486" rx="4.69736" ry="6.26315"/>
</mask>
<ellipse cx="39.1451" cy="65.8486" rx="4.69736" ry="6.26315" fill="black"/>
<path d="M35.8425 65.8486C35.8425 66.0145 35.782 65.8569 36.0667 65.4773C36.3532 65.0953 37.3596 64.1118 39.1451 64.1118V80.1118C43.5249 80.1118 46.88 77.7261 48.8667 75.0773C50.8514 72.431 51.8425 69.1417 51.8425 65.8486H35.8425ZM39.1451 64.1118C40.9306 64.1118 41.9371 65.0953 42.2236 65.4773C42.5082 65.8569 42.4478 66.0145 42.4478 65.8486H26.4478C26.4478 69.1417 27.4388 72.431 29.4236 75.0773C31.4102 77.7261 34.7654 80.1118 39.1451 80.1118V64.1118ZM42.4478 65.8486C42.4478 65.6827 42.5082 65.8403 42.2236 66.2199C41.9371 66.6019 40.9306 67.5854 39.1451 67.5854V51.5854C34.7654 51.5854 31.4102 53.9711 29.4236 56.6199C27.4388 59.2662 26.4478 62.5555 26.4478 65.8486H42.4478ZM39.1451 67.5854C37.3596 67.5854 36.3532 66.6019 36.0667 66.2199C35.782 65.8403 35.8425 65.6827 35.8425 65.8486H51.8425C51.8425 62.5555 50.8514 59.2662 48.8667 56.6199C46.88 53.9711 43.5249 51.5854 39.1451 51.5854V67.5854Z" fill="#20525C" mask="url(#path-4-inside-1_691_2534)"/>
<mask id="path-6-inside-2_691_2534" fill="white">
<ellipse cx="86.9015" cy="65.8486" rx="4.69736" ry="6.26315"/>
</mask>
<ellipse cx="86.9015" cy="65.8486" rx="4.69736" ry="6.26315" fill="black"/>
<path d="M83.5988 65.8486C83.5988 66.0145 83.5384 65.8569 83.823 65.4773C84.1095 65.0953 85.116 64.1118 86.9015 64.1118V80.1118C91.2812 80.1118 94.6364 77.7261 96.623 75.0773C98.6078 72.431 99.5988 69.1417 99.5988 65.8486H83.5988ZM86.9015 64.1118C88.6869 64.1118 89.6934 65.0953 89.9799 65.4773C90.2646 65.8569 90.2041 66.0145 90.2041 65.8486H74.2041C74.2041 69.1417 75.1952 72.431 77.1799 75.0773C79.1665 77.7261 82.5217 80.1118 86.9015 80.1118V64.1118ZM90.2041 65.8486C90.2041 65.6827 90.2646 65.8403 89.9799 66.2199C89.6934 66.6019 88.6869 67.5854 86.9015 67.5854V51.5854C82.5217 51.5854 79.1665 53.9711 77.1799 56.6199C75.1952 59.2662 74.2041 62.5555 74.2041 65.8486H90.2041ZM86.9015 67.5854C85.116 67.5854 84.1095 66.6019 83.823 66.2199C83.5384 65.8403 83.5988 65.6827 83.5988 65.8486H99.5988C99.5988 62.5555 98.6078 59.2662 96.623 56.6199C94.6364 53.9711 91.2812 51.5854 86.9015 51.5854V67.5854Z" fill="#20525C" mask="url(#path-6-inside-2_691_2534)"/>
<rect x="60.0864" y="75.8305" width="6.6546" height="2.74013" rx="1.37006" fill="black" stroke="#20525C" stroke-width="2.74013"/>
<path d="M50.9028 85.421C50.5114 90.5098 58.3403 96.8512 63.0377 84.6381M75.564 85.421C75.9554 90.5098 68.1265 96.8512 63.4291 84.6381" stroke="#20525C" stroke-width="8" stroke-linecap="round"/>
</svg>
