<svg width="32" height="32" viewBox="0 0 32 32" fill="none" xmlns="http://www.w3.org/2000/svg">
<g clip-path="url(#clip0_2196_9846)">
<path d="M14.9532 8.39674C15.3009 8.39674 15.6345 8.5349 15.8804 8.78081C16.1263 9.02672 16.2645 9.36025 16.2645 9.70803C16.2645 10.0558 16.1263 10.3893 15.8804 10.6352C15.6345 10.8812 15.3009 11.0193 14.9532 11.0193H7.08546V25.4434H21.5096V17.5757C21.5096 17.228 21.6477 16.8944 21.8937 16.6485C22.1396 16.4026 22.4731 16.2645 22.8209 16.2645C23.1686 16.2645 23.5022 16.4026 23.7481 16.6485C23.994 16.8944 24.1322 17.228 24.1322 17.5757V25.4434C24.1322 26.139 23.8559 26.8061 23.364 27.2979C22.8722 27.7897 22.2051 28.066 21.5096 28.066H7.08546C6.38991 28.066 5.72285 27.7897 5.23102 27.2979C4.7392 26.8061 4.46289 26.139 4.46289 25.4434V11.0193C4.46289 10.3238 4.7392 9.6567 5.23102 9.16488C5.72285 8.67305 6.38991 8.39674 7.08546 8.39674H14.9532ZM26.7547 4.46289C27.1025 4.46289 27.436 4.60104 27.6819 4.84696C27.9279 5.09287 28.066 5.4264 28.066 5.77418V12.3306C28.066 12.6784 27.9279 13.0119 27.6819 13.2578C27.436 13.5037 27.1025 13.6419 26.7547 13.6419C26.407 13.6419 26.0734 13.5037 25.8275 13.2578C25.5816 13.0119 25.4434 12.6784 25.4434 12.3306V8.93962L14.569 19.8141C14.3217 20.053 13.9904 20.1851 13.6466 20.1821C13.3028 20.1792 12.9739 20.0412 12.7308 19.7981C12.4877 19.555 12.3497 19.2261 12.3468 18.8823C12.3438 18.5385 12.4759 18.2073 12.7148 17.9599L23.5893 7.08546H20.1983C19.8505 7.08546 19.517 6.94731 19.2711 6.70139C19.0252 6.45548 18.887 6.12195 18.887 5.77418C18.887 5.4264 19.0252 5.09287 19.2711 4.84696C19.517 4.60104 19.8505 4.46289 20.1983 4.46289H26.7547Z" fill="white"/>
</g>
<defs>
<clipPath id="clip0_2196_9846">
<rect width="31.4708" height="31.4708" fill="white" transform="translate(0.529297 0.529297)"/>
</clipPath>
</defs>
</svg>
