<svg width="32" height="32" viewBox="0 0 32 32" fill="none" xmlns="http://www.w3.org/2000/svg">
<path fill-rule="evenodd" clip-rule="evenodd" d="M15.352 3.20297C14.9371 3.23726 14.6238 3.27892 14.2791 3.34571C14.0729 3.38564 13.6598 3.48328 13.576 3.51185C13.554 3.51936 13.5036 3.53459 13.464 3.54568C13.2275 3.61195 12.7437 3.78486 12.5293 3.87977C12.4933 3.89566 12.4388 3.91868 12.408 3.93094C12.2651 3.98776 11.6732 4.29238 11.4718 4.41272C10.8103 4.808 10.2918 5.21315 9.73584 5.76908C9.1799 6.32504 8.77475 6.84356 8.37947 7.50504C8.25914 7.70641 7.95451 8.29836 7.8977 8.44121C7.88544 8.47201 7.86242 8.52659 7.84653 8.56251C7.75162 8.77696 7.5787 9.26073 7.51243 9.49721C7.50134 9.53681 7.48611 9.58721 7.47861 9.60921C7.41754 9.78827 7.29134 10.3856 7.24053 10.7363C7.17522 11.1869 7.16797 11.3157 7.16797 12.0252C7.16797 12.7347 7.17522 12.8635 7.24053 13.3141C7.29134 13.6648 7.41754 14.2622 7.47861 14.4412C7.48611 14.4632 7.50134 14.5136 7.51243 14.5532C7.5787 14.7897 7.75162 15.2735 7.84653 15.4879C7.86242 15.5238 7.88544 15.5784 7.8977 15.6092C7.90995 15.64 7.99322 15.8128 8.08274 15.9932C8.32312 16.4776 8.58077 16.8967 8.91395 17.3452C9.30667 17.8739 9.68413 18.5335 9.9853 19.2172C9.99691 19.2436 10.0286 19.3228 10.0557 19.3932C10.0828 19.4636 10.1111 19.5356 10.1187 19.5532C10.1845 19.7062 10.2989 20.0525 10.3776 20.3372C10.3849 20.3636 10.402 20.4248 10.4156 20.4732C10.528 20.8734 10.6503 21.5996 10.6877 22.0892C10.7064 22.3345 10.8 22.6684 10.9094 22.8806C11.037 23.1281 11.2733 23.396 11.5142 23.5664C11.6488 23.6616 11.9164 23.7894 12.072 23.8328C12.3692 23.9158 12.2344 23.913 15.992 23.913C19.7495 23.913 19.6147 23.9158 19.912 23.8328C20.0675 23.7894 20.3351 23.6616 20.4698 23.5664C20.7106 23.396 20.947 23.1281 21.0745 22.8806C21.184 22.6684 21.2775 22.3345 21.2963 22.0892C21.3337 21.5996 21.4559 20.8734 21.5683 20.4732C21.5819 20.4248 21.599 20.3636 21.6063 20.3372C21.6851 20.0525 21.7995 19.7062 21.8652 19.5532C21.8728 19.5356 21.9012 19.4636 21.9283 19.3932C21.9553 19.3228 21.987 19.2436 21.9986 19.2172C22.297 18.5399 22.6617 17.9006 23.0401 17.3917C23.2185 17.1518 23.4422 16.8161 23.6044 16.5452C23.7246 16.3442 24.0292 15.7527 24.0862 15.6092C24.0985 15.5784 24.1215 15.5238 24.1374 15.4879C24.2323 15.2735 24.4052 14.7897 24.4715 14.5532C24.4826 14.5136 24.4978 14.4632 24.5053 14.4412C24.5664 14.2622 24.6926 13.6648 24.7434 13.3141C24.8087 12.8635 24.816 12.7347 24.816 12.0252C24.816 11.3157 24.8087 11.1869 24.7434 10.7363C24.6926 10.3856 24.5664 9.78827 24.5053 9.60921C24.4978 9.58721 24.4826 9.53681 24.4715 9.49721C24.4052 9.26073 24.2323 8.77696 24.1374 8.56251C24.1215 8.52659 24.0985 8.47201 24.0862 8.44121C24.0294 8.29836 23.7248 7.70641 23.6045 7.50504C23.2092 6.84356 22.804 6.32504 22.2481 5.76908C21.6921 5.21315 21.1736 4.808 20.5121 4.41272C20.3108 4.29238 19.7188 3.98776 19.576 3.93094C19.5452 3.91868 19.4906 3.89566 19.4547 3.87977C19.2402 3.78486 18.7564 3.61195 18.52 3.54568C18.4804 3.53459 18.43 3.51936 18.408 3.51185C18.2443 3.45603 17.6512 3.32856 17.3322 3.28064C16.8904 3.21428 16.755 3.20566 16.088 3.20134C15.7228 3.19897 15.3916 3.19971 15.352 3.20297ZM15.64 4.8827C15.0101 4.93718 14.6176 5.00113 14.168 5.12257C13.9413 5.18379 13.6033 5.29184 13.5176 5.33048C13.4898 5.34299 13.4591 5.35321 13.4493 5.35321C13.4395 5.35321 13.419 5.35982 13.4037 5.3679C13.374 5.38366 13.3131 5.41044 13.0911 5.50547C12.7382 5.65651 12.1819 5.97676 11.8382 6.22673C11.1662 6.71545 10.6822 7.1994 10.1935 7.87142C9.94352 8.21513 9.62326 8.77145 9.47222 9.12433C9.3772 9.34633 9.35042 9.40721 9.33466 9.43699C9.32658 9.45227 9.31997 9.47278 9.31997 9.48257C9.31997 9.49236 9.30974 9.52307 9.29723 9.5508C9.22115 9.71955 9.05759 10.2866 8.99192 10.6092C8.88997 11.1101 8.84904 11.5157 8.84904 12.0252C8.84904 12.5347 8.88997 12.9403 8.99192 13.4412C9.05759 13.7639 9.22115 14.3309 9.29723 14.4996C9.30974 14.5274 9.31997 14.5581 9.31997 14.5679C9.31997 14.5776 9.32658 14.5982 9.33466 14.6134C9.35042 14.6432 9.3772 14.7041 9.47222 14.9261C9.58947 15.2 9.8637 15.6969 10.0571 15.9859C10.0985 16.0479 10.1965 16.1847 10.2748 16.2899C10.4476 16.5221 10.7931 17.0483 10.952 17.3212C11.0776 17.5368 11.3396 18.0448 11.4388 18.2652C11.5007 18.4026 11.5851 18.6027 11.6261 18.7092C11.6337 18.729 11.6462 18.7614 11.6538 18.7812C11.6803 18.8501 11.6997 18.8976 11.7257 18.9578C11.7402 18.9911 11.752 19.0271 11.7521 19.0378C11.7521 19.0485 11.762 19.0761 11.7741 19.0992C11.7958 19.1409 11.8869 19.413 11.9662 19.6732C12.1392 20.2408 12.2881 21.0122 12.3668 21.7489C12.3979 22.0399 12.4348 22.1098 12.608 22.2058L12.672 22.2412L13.972 22.2461L15.272 22.2509V18.7941C15.272 16.2256 15.2673 15.3372 15.2538 15.3372C15.1981 15.3372 14.8068 15.428 14.656 15.4759C14.3508 15.5729 14.117 15.6852 13.848 15.8641C13.6794 15.9763 13.5661 16.0082 13.3353 16.0088C13.0675 16.0095 12.9039 15.9451 12.7271 15.7694C12.5774 15.6206 12.5212 15.4855 12.5204 15.2727C12.5199 15.1586 12.5338 15.1015 12.6293 14.8252C12.7056 14.6044 12.752 14.3874 12.7839 14.1015C12.8139 13.8336 12.8138 13.6726 12.7838 13.4037C12.7372 12.9866 12.6517 12.6727 12.4972 12.351C12.3968 12.1421 12.3182 12.0222 12.1652 11.8448C12.1038 11.7738 12.0344 11.6791 12.0108 11.6344C11.9722 11.5613 11.968 11.5365 11.968 11.3852C11.968 11.2343 11.9724 11.2081 12.012 11.1275C12.0672 11.0151 12.2028 10.8851 12.3239 10.8283C12.4091 10.7884 12.4315 10.7852 12.624 10.7852C12.8193 10.7852 12.838 10.788 12.9316 10.8312C13.0072 10.8662 13.065 10.9123 13.1722 11.0232C13.647 11.5145 13.9559 12.1843 14.0894 13.0123C14.1275 13.2485 14.1481 13.9453 14.1244 14.1982C14.1121 14.3293 14.1135 14.3464 14.1352 14.34C14.1488 14.3361 14.223 14.3143 14.3 14.2915C14.449 14.2476 14.9001 14.1549 15.1316 14.1208L15.2712 14.1002L15.2756 11.6987L15.28 9.29721L15.3173 9.19382C15.3692 9.05006 15.4169 8.97395 15.5214 8.86862C15.6789 8.70993 15.8832 8.64244 16.0983 8.67809C16.2434 8.70214 16.3555 8.7608 16.4625 8.86862C16.567 8.97395 16.6148 9.05006 16.6667 9.19382L16.704 9.29721L16.7084 11.6982L16.7128 14.0991L16.8604 14.1201C17.0874 14.1523 17.544 14.2455 17.7 14.2915C17.777 14.3143 17.8511 14.3361 17.8647 14.34C17.8865 14.3464 17.8878 14.3293 17.8755 14.1982C17.8518 13.9453 17.8724 13.2485 17.9105 13.0123C18.0441 12.1843 18.3529 11.5145 18.8277 11.0232C18.9349 10.9123 18.9927 10.8662 19.0684 10.8312C19.1619 10.788 19.1806 10.7852 19.376 10.7852C19.5684 10.7852 19.5908 10.7884 19.676 10.8283C19.7972 10.8851 19.9327 11.0151 19.9879 11.1275C20.0275 11.2081 20.032 11.2343 20.032 11.3852C20.032 11.5365 20.0277 11.5613 19.9891 11.6344C19.9656 11.6791 19.8961 11.7738 19.8348 11.8448C19.6817 12.0222 19.6031 12.1421 19.5028 12.351C19.3482 12.6727 19.2627 12.9866 19.2161 13.4037C19.1861 13.6726 19.1861 13.8336 19.216 14.1015C19.2479 14.3874 19.2943 14.6044 19.3706 14.8252C19.4661 15.1015 19.48 15.1586 19.4796 15.2727C19.4788 15.4855 19.4225 15.6206 19.2728 15.7694C19.0961 15.9451 18.9324 16.0095 18.6646 16.0088C18.4339 16.0082 18.3206 15.9763 18.152 15.8641C17.883 15.6852 17.6491 15.5729 17.344 15.4759C17.1828 15.4247 16.8006 15.3372 16.7381 15.3372C16.714 15.3372 16.712 15.6049 16.712 18.7941V22.2509L18.012 22.2461L19.312 22.2412L19.376 22.2058C19.467 22.1553 19.5025 22.1226 19.5505 22.0449C19.5864 21.987 19.5965 21.9418 19.6171 21.7489C19.6958 21.0122 19.8447 20.2408 20.0177 19.6732C20.097 19.413 20.1881 19.1409 20.2099 19.0992C20.2219 19.0761 20.2318 19.0485 20.2319 19.0378C20.2319 19.0271 20.2438 18.9911 20.2582 18.9578C20.2726 18.9245 20.2906 18.881 20.2982 18.8612C20.3313 18.7747 20.3407 18.7507 20.3578 18.7092C20.3678 18.685 20.3824 18.649 20.3903 18.6292C20.5361 18.2614 20.8118 17.6994 21.0317 17.3212C21.1852 17.0572 21.4884 16.5985 21.7471 16.2389C22.0531 15.8136 22.3502 15.3034 22.5117 14.9261C22.6067 14.7041 22.6335 14.6432 22.6493 14.6134C22.6574 14.5982 22.664 14.5776 22.664 14.5679C22.664 14.5581 22.6742 14.5274 22.6867 14.4996C22.7628 14.3309 22.9264 13.7639 22.992 13.4412C23.094 12.9403 23.1349 12.5347 23.1349 12.0252C23.1349 11.5157 23.094 11.1101 22.992 10.6092C22.9264 10.2866 22.7628 9.71955 22.6867 9.5508C22.6742 9.52307 22.664 9.49236 22.664 9.48257C22.664 9.47278 22.6574 9.45227 22.6493 9.43699C22.6335 9.40721 22.6067 9.34633 22.5117 9.12433C22.3607 8.77145 22.0404 8.21513 21.7905 7.87142C21.3017 7.1994 20.8178 6.71545 20.1458 6.22673C19.8021 5.97676 19.2457 5.65651 18.8928 5.50547C18.6708 5.41044 18.61 5.38366 18.5802 5.3679C18.5649 5.35982 18.5444 5.35321 18.5346 5.35321C18.5248 5.35321 18.4941 5.34299 18.4664 5.33048C18.3807 5.29184 18.0427 5.18379 17.816 5.12257C17.4543 5.02491 17.1257 4.96441 16.6723 4.912C16.4731 4.88897 15.7911 4.86963 15.64 4.8827ZM11.832 24.3954C11.4267 24.462 11.16 24.7882 11.16 25.2172C11.16 25.6041 11.3884 25.9247 11.7315 26.0193C11.8361 26.0482 11.9864 26.0492 15.992 26.0492C19.9975 26.0492 20.1478 26.0482 20.2524 26.0193C20.5955 25.9247 20.824 25.6041 20.824 25.2172C20.824 24.7802 20.557 24.4607 20.136 24.3939C20.0035 24.3729 11.9601 24.3743 11.832 24.3954ZM13.384 26.5303C13.0736 26.5975 12.8232 26.8487 12.7592 27.1569C12.7315 27.2903 12.7475 27.5309 12.7917 27.6467C12.9012 27.9334 13.141 28.1251 13.4452 28.1691C13.5101 28.1785 14.5085 28.1846 15.992 28.1846C17.4754 28.1846 18.4738 28.1785 18.5387 28.1691C18.8429 28.1251 19.0828 27.9334 19.1923 27.6467C19.2365 27.5309 19.2524 27.2903 19.2247 27.1569C19.16 26.8449 18.9093 26.5963 18.592 26.5294C18.4284 26.4949 13.5435 26.4957 13.384 26.5303Z" fill="#0C2B35"/>
</svg>
