<svg width="320" height="272" viewBox="0 0 320 272" fill="none" xmlns="http://www.w3.org/2000/svg">
<rect y="19" width="320" height="37" fill="#008E7E"/>
<path d="M55.7991 4.77503C55.6049 3.03707 55.6338 1.38867 55.7991 0V4.77503C56.475 10.8238 59.8533 17.9573 69.5875 19H74.7991C72.8869 19.1779 71.1548 19.1679 69.5875 19H55.7991V4.77503Z" fill="#008E7E"/>
<path d="M19.0661 4.79258C19.2589 3.04824 19.2303 1.39377 19.0661 0V4.79258C18.395 10.8636 15.0405 18.0233 5.37503 19.0698H0.200195C2.09885 19.2484 3.81875 19.2383 5.37503 19.0698H19.0661V4.79258Z" fill="#008E7E"/>
<path d="M19.0661 70.2074C19.2589 71.9518 19.2303 73.6062 19.0661 75V70.2074C18.395 64.1364 15.0405 56.9767 5.37503 55.9302H0.200195C2.09885 55.7516 3.81875 55.7617 5.37503 55.9302H19.0661V70.2074Z" fill="#008E7E"/>
<path d="M55.7854 70.2074C55.5912 71.9518 55.6201 73.6062 55.7854 75V70.2074C56.4611 64.1364 59.8385 56.9767 69.5701 55.9302H74.7804C72.8687 55.7516 71.1371 55.7617 69.5701 55.9302H55.7854V70.2074Z" fill="#008E7E"/>
<line x1="65" y1="37" x2="320" y2="37" stroke="white" stroke-width="2" stroke-dasharray="8 10"/>
<rect x="19" width="37" height="272" fill="#008E7E"/>
<line x1="37" y1="272" x2="37" y2="67" stroke="white" stroke-width="2" stroke-dasharray="8 10"/>
</svg>
