<svg width="81" height="101" viewBox="0 0 81 101" fill="none" xmlns="http://www.w3.org/2000/svg">
<path d="M40.4998 0.0832524C48.8562 0.0832498 57.0062 2.67873 63.8237 7.51102C70.6411 12.3433 75.7893 19.1738 78.5569 27.0585C81.3244 34.9433 81.5747 43.493 79.273 51.5261C76.9713 59.5592 72.2313 66.6791 65.7081 71.9018V95.1439C65.7081 96.0398 65.491 96.9225 65.0754 97.7162C64.6597 98.51 64.058 99.1912 63.3216 99.7016C62.5852 100.212 61.7361 100.536 60.847 100.647C59.9579 100.758 59.0552 100.651 58.2162 100.337L40.4998 93.702L22.7834 100.347C21.944 100.661 21.0409 100.768 20.1513 100.657C19.2618 100.546 18.4124 100.221 17.6759 99.7102C16.9394 99.1992 16.3378 98.5174 15.9225 97.723C15.5072 96.9285 15.2907 96.0453 15.2915 95.1489V71.9068C8.76629 66.6847 4.0245 59.5644 1.72158 51.5304C-0.58134 43.4964 -0.331651 34.9453 2.43613 27.0594C5.20391 19.1734 10.3531 12.342 17.1719 7.50945C23.9906 2.67692 32.1422 0.0819446 40.4998 0.0832524ZM40.4998 10.1666C32.477 10.1666 24.7828 13.3536 19.1098 19.0266C13.4368 24.6996 10.2498 32.3938 10.2498 40.4166C10.2498 48.4394 13.4368 56.1336 19.1098 61.8066C24.7828 67.4795 32.477 70.6666 40.4998 70.6666C48.5226 70.6666 56.2168 67.4795 61.8898 61.8066C67.5628 56.1336 70.7498 48.4394 70.7498 40.4166C70.7498 32.3938 67.5628 24.6996 61.8898 19.0266C56.2168 13.3536 48.5226 10.1666 40.4998 10.1666ZM40.4998 20.2499C45.8483 20.2499 50.9778 22.3746 54.7598 26.1566C58.5418 29.9386 60.6665 35.0681 60.6665 40.4166C60.6665 45.7651 58.5418 50.8946 54.7598 54.6766C50.9778 58.4586 45.8483 60.5832 40.4998 60.5833C35.1513 60.5832 30.0218 58.4586 26.2398 54.6766C22.4578 50.8946 20.3331 45.7651 20.3331 40.4166C20.3331 35.0681 22.4578 29.9386 26.2398 26.1566C30.0218 22.3746 35.1513 20.2499 40.4998 20.2499Z" fill="#008E7E"/>
</svg>
