<svg width="38" height="38" viewBox="0 0 38 38" fill="none" xmlns="http://www.w3.org/2000/svg">
<path d="M22.6667 9.83317V22.6665C22.6667 23.186 22.8427 23.6217 23.1947 23.9737C23.5467 24.3257 23.9818 24.5011 24.5 24.4998C25.0195 24.4998 25.4552 24.3238 25.8072 23.9718C26.1592 23.6198 26.3346 23.1847 26.3334 22.6665V7.99984C26.3334 7.4804 26.1574 7.04467 25.8054 6.69267C25.4534 6.34067 25.0182 6.16529 24.5 6.16651H20.8334C20.3139 6.16651 19.8782 6.34251 19.5262 6.69451C19.1742 7.04651 18.9988 7.48162 19 7.99984C19 8.51929 19.176 8.95501 19.528 9.30701C19.88 9.65901 20.3151 9.8344 20.8334 9.83317H22.6667ZM11.6667 29.9998C10.6584 29.9998 9.79486 29.6405 9.07619 28.9218C8.35752 28.2032 7.9988 27.3403 8.00002 26.3332V4.33317C8.00002 3.32484 8.35936 2.46134 9.07802 1.74267C9.79669 1.02401 10.6596 0.665285 11.6667 0.666507H33.6667C34.675 0.666507 35.5385 1.02584 36.2572 1.74451C36.9759 2.46317 37.3346 3.32606 37.3334 4.33317V26.3332C37.3334 27.3415 36.974 28.205 36.2554 28.9237C35.5367 29.6423 34.6738 30.0011 33.6667 29.9998H11.6667ZM4.33336 37.3332C3.32502 37.3332 2.46152 36.9738 1.74286 36.2552C1.02419 35.5365 0.665468 34.6736 0.66669 33.6665V9.83317C0.66669 9.31373 0.84269 8.87801 1.19469 8.52601C1.54669 8.17401 1.9818 7.99862 2.50002 7.99984C3.01947 7.99984 3.45519 8.17584 3.80719 8.52784C4.15919 8.87984 4.33458 9.31495 4.33336 9.83317V33.6665H28.1667C28.6861 33.6665 29.1219 33.8425 29.4739 34.1945C29.8259 34.5465 30.0012 34.9816 30 35.4998C30 36.0193 29.824 36.455 29.472 36.807C29.12 37.159 28.6849 37.3344 28.1667 37.3332H4.33336Z" fill="#F0F4F4"/>
</svg>
