<svg width="392" height="172" viewBox="0 0 392 172" fill="none" xmlns="http://www.w3.org/2000/svg">
<path d="M148.026 11.5166C168.801 18.4166 190.339 12.689 188.838 1C194.348 15.1701 238.764 23.5498 253.214 11.6423C268.023 34.5607 327.551 32.6329 343.65 15.6628C331 37.5936 357.122 63.6082 391 57.6866C362.917 65.1968 338.914 106.262 380.403 122.249C333.607 122.193 331.387 134.187 331.922 155.55C294.63 128.304 267.033 150.1 260.215 171C248.586 152.755 181.8 159.478 169.227 168.438C164.653 146.147 98.9574 140.863 86.1884 158.814C87.6494 137.158 50.8925 120.634 19.6425 133.609C34.9591 119.363 40.6463 91.3399 1 82.8484C40.4345 82.8955 42.2106 56.8321 31.7874 50.1054C56.6308 56.6925 95.725 40.5379 81.4797 21.4664C78.9583 19.8993 77.0459 18.072 75.9631 16.0046C78.3151 17.8401 80.135 19.6662 81.4797 21.4664C98.5193 32.0574 143.377 30.7725 148.026 11.5166Z" fill="white"/>
<path d="M148.026 11.5166L148.341 10.5676C148.076 10.4794 147.786 10.5065 147.541 10.6422C147.296 10.7779 147.12 11.0099 147.054 11.2819L148.026 11.5166ZM188.838 1L189.77 0.637587C189.587 0.166565 189.081 -0.0937679 188.592 0.0309072C188.102 0.155582 187.782 0.626073 187.846 1.12734L188.838 1ZM31.7874 50.1054L32.0437 49.1388C31.5682 49.0128 31.0716 49.2513 30.8727 49.7012C30.6739 50.1512 30.8318 50.6789 31.2452 50.9457L31.7874 50.1054ZM1 82.8484L1.00119 81.8484C0.489445 81.8478 0.0598146 82.2336 0.00562268 82.7425C-0.0485692 83.2514 0.290167 83.719 0.790568 83.8262L1 82.8484ZM75.9631 16.0046L76.5784 15.2162C76.2072 14.9265 75.6841 14.935 75.3225 15.2367C74.961 15.5383 74.8588 16.0514 75.0773 16.4685L75.9631 16.0046ZM253.214 11.6423L254.054 11.0995C253.899 10.8599 253.649 10.6978 253.367 10.6541C253.085 10.6103 252.798 10.6891 252.578 10.8705L253.214 11.6423ZM343.65 15.6628L344.516 16.1625C344.769 15.7235 344.654 15.1645 344.248 14.8614C343.842 14.5583 343.273 14.6069 342.924 14.9746L343.65 15.6628ZM391 57.6866L391.258 58.6527C391.775 58.5144 392.092 57.9937 391.977 57.4711C391.861 56.9486 391.355 56.6094 390.828 56.7015L391 57.6866ZM380.403 122.249L380.401 123.249C380.883 123.25 381.297 122.906 381.386 122.433C381.474 121.959 381.212 121.489 380.762 121.316L380.403 122.249ZM331.922 155.55L331.332 156.357C331.64 156.582 332.049 156.612 332.386 156.436C332.724 156.259 332.932 155.905 332.922 155.525L331.922 155.55ZM260.215 171L259.372 171.537C259.58 171.864 259.957 172.041 260.341 171.992C260.725 171.943 261.046 171.678 261.166 171.31L260.215 171ZM169.227 168.438L168.248 168.639C168.316 168.97 168.547 169.245 168.861 169.369C169.176 169.492 169.532 169.449 169.808 169.252L169.227 168.438ZM86.1884 158.814L85.1907 158.747C85.1606 159.193 85.4308 159.605 85.8523 159.756C86.2738 159.906 86.7439 159.758 87.0033 159.394L86.1884 158.814ZM19.6425 133.609L18.9614 132.876C18.607 133.206 18.5396 133.742 18.8013 134.15C19.0631 134.557 19.5789 134.718 20.0259 134.532L19.6425 133.609ZM147.711 12.4656C158.257 15.9684 169.034 16.2822 177.038 14.1969C181.037 13.155 184.415 11.4952 186.713 9.26191C189.037 7.00348 190.251 4.15234 189.83 0.872663L187.846 1.12734C188.176 3.69216 187.261 5.94035 185.319 7.82774C183.351 9.74032 180.328 11.2728 176.534 12.2615C168.95 14.2372 158.57 13.9648 148.341 10.5676L147.711 12.4656ZM31.2452 50.9457C35.9443 53.9783 38.0737 61.5651 34.2155 68.5327C30.3914 75.4385 20.5263 81.8717 1.00119 81.8484L0.998805 83.8484C20.9081 83.8722 31.6483 77.2972 35.9651 69.5015C40.2478 61.7675 38.0536 52.9593 32.3296 49.2652L31.2452 50.9457ZM75.3479 16.7929C77.6452 18.5857 79.3977 20.3501 80.6785 22.0649L82.2808 20.868C80.8723 18.9823 78.985 17.0944 76.5784 15.2162L75.3479 16.7929ZM80.6785 22.0649C84.0325 26.5551 84.1913 30.7379 82.3245 34.4656C80.4112 38.2859 76.2994 41.7614 70.8414 44.5151C59.9315 50.0192 44.1979 52.3615 32.0437 49.1388L31.5311 51.072C44.2203 54.4365 60.4556 51.9949 71.7423 46.3007C77.3825 43.4551 81.9259 39.7278 84.1127 35.3611C86.3459 30.9018 86.0495 25.9134 82.2808 20.868L80.6785 22.0649ZM75.0773 16.4685C76.2701 18.746 78.3378 20.691 80.9518 22.3157L82.0075 20.6171C79.5787 19.1075 77.8218 17.3981 76.849 15.5406L75.0773 16.4685ZM80.9518 22.3157C85.3664 25.0596 91.5083 26.9956 98.2543 28.0751C105.014 29.1568 112.451 29.3899 119.5 28.679C126.54 27.969 133.25 26.3115 138.524 23.5716C143.796 20.8328 147.743 16.9484 148.998 11.7513L147.054 11.2819C145.984 15.7128 142.581 19.2099 137.602 21.7968C132.625 24.3825 126.184 25.9948 119.299 26.6891C112.422 27.3826 105.159 27.1546 98.5703 26.1002C91.9679 25.0437 86.1127 23.1687 82.0075 20.6171L80.9518 22.3157ZM187.906 1.36241C189.422 5.26062 193.514 8.5858 198.741 11.2091C204.012 13.8548 210.63 15.8839 217.501 17.0853C224.374 18.2871 231.548 18.6691 237.939 17.99C244.306 17.3135 250.019 15.5709 253.85 12.414L252.578 10.8705C249.184 13.6674 243.926 15.3427 237.728 16.0012C231.555 16.6571 224.571 16.2912 217.846 15.1152C211.118 13.9389 204.696 11.9603 199.638 9.42163C194.535 6.86052 191.009 3.82444 189.77 0.637587L187.906 1.36241ZM252.374 12.185C256.243 18.1722 262.97 22.4528 270.997 25.2692C279.037 28.0902 288.481 29.4787 297.934 29.6106C307.389 29.7426 316.897 28.618 325.074 26.3813C333.225 24.1516 340.168 20.7856 344.375 16.351L342.924 14.9746C339.082 19.025 332.547 22.2638 324.546 24.4522C316.571 26.6336 307.252 27.7405 297.962 27.6108C288.669 27.4812 279.449 26.115 271.659 23.382C263.857 20.6444 257.59 16.5716 254.054 11.0995L252.374 12.185ZM342.784 15.1631C336.171 26.6278 339.758 39.1121 349.197 47.8531C358.628 56.586 373.95 61.6821 391.172 58.6717L390.828 56.7015C374.173 59.6128 359.494 54.6624 350.556 46.3856C341.627 38.117 338.479 26.6286 344.516 16.1625L342.784 15.1631ZM390.742 56.7206C376.387 60.5593 363.096 72.9399 358.662 86.4778C356.435 93.2768 356.426 100.426 359.714 106.924C363.001 113.419 369.51 119.123 380.043 123.182L380.762 121.316C370.551 117.381 364.502 111.957 361.499 106.021C358.497 100.089 358.464 93.5048 360.562 87.1004C364.778 74.2313 377.53 62.3241 391.258 58.6527L390.742 56.7206ZM380.404 121.249C368.671 121.235 359.679 121.976 352.801 123.447C345.924 124.918 341.091 127.134 337.747 130.122C331.019 136.133 330.656 144.959 330.923 155.575L332.922 155.525C332.652 144.778 333.132 136.926 339.079 131.613C342.072 128.939 346.536 126.832 353.219 125.403C359.902 123.973 368.736 123.235 380.401 123.249L380.404 121.249ZM332.512 154.742C313.653 140.963 297.081 139.486 284.29 144.284C271.555 149.061 262.755 159.991 259.264 170.69L261.166 171.31C264.494 161.11 272.901 150.692 284.992 146.157C297.027 141.642 312.899 142.89 331.332 156.357L332.512 154.742ZM261.058 170.463C257.924 165.544 251.217 162.472 243.077 160.666C234.876 158.847 224.956 158.256 215.049 158.517C205.135 158.779 195.19 159.895 186.921 161.511C182.787 162.319 179.059 163.255 175.957 164.278C172.871 165.294 170.341 166.417 168.647 167.624L169.808 169.252C171.257 168.219 173.564 167.172 176.583 166.177C179.585 165.188 183.228 164.271 187.305 163.474C195.458 161.88 205.293 160.775 215.102 160.517C224.916 160.258 234.659 160.847 242.644 162.619C250.69 164.404 256.692 167.333 259.372 171.537L261.058 170.463ZM87.0033 159.394C89.9705 155.222 96.1538 152.255 104.112 150.589C112.019 148.933 121.466 148.607 130.681 149.53C139.9 150.454 148.819 152.623 155.687 155.908C162.596 159.213 167.2 163.532 168.248 168.639L170.207 168.237C168.968 162.198 163.644 157.498 156.55 154.104C149.414 150.69 140.253 148.48 130.88 147.54C121.504 146.601 111.847 146.926 103.702 148.631C95.6078 150.326 88.7908 153.43 85.3735 158.234L87.0033 159.394ZM20.0259 134.532C35.3917 128.152 52.1206 129.027 64.8075 134.152C77.5607 139.304 85.8777 148.563 85.1907 158.747L87.1861 158.881C87.9601 147.41 78.6291 137.578 65.5566 132.298C52.4179 126.99 35.1433 126.09 19.259 132.685L20.0259 134.532ZM0.790568 83.8262C20.398 88.0257 28.4192 96.9509 29.9456 106.233C31.4924 115.639 26.4699 125.893 18.9614 132.876L20.3235 134.341C28.1317 127.078 33.611 116.197 31.9191 105.908C30.2066 95.4944 21.2483 86.1625 1.20943 81.8706L0.790568 83.8262Z" fill="#20525C"/>
</svg>
