<svg width="282" height="282" viewBox="0 0 282 282" fill="none" xmlns="http://www.w3.org/2000/svg">
  <path d="M129.986 98.6529L110.842 262.417H123.767L148.442 156.667H157.058L155.825 206.8L146.483 262.417H159.408L176.313 207.583L181.248 156.177L173.501 85.9999C173.501 85.9999 215.506 57.0307 239.735 47.9613C240.564 47.6512 241.28 47.09 241.719 46.322C249.56 32.6022 223.501 43.4997 223.501 43.4997L179.501 70.9996L177.962 63.3951L162.788 57.7668L120.927 66.8261L93.5104 113.09L67.8053 143.201C67.8053 143.201 68.432 146.471 77.8437 146.139C84.6979 145.892 96.6124 129.92 98.8958 126.963C105.139 118.882 123.986 82.9784 130.476 82.7356C131.604 82.6964 130.476 96.4439 129.982 98.649L129.986 98.6529Z" fill="#008E7E"/>
  <path d="M144.795 43.4515C151.285 43.4515 156.545 38.1909 156.545 31.7015C156.545 25.2122 151.285 19.9515 144.795 19.9515C138.306 19.9515 133.045 25.2122 133.045 31.7015C133.045 38.1909 138.306 43.4515 144.795 43.4515Z" fill="#008E7E"/>
  <path d="M144.795 43.4515C151.285 43.4515 156.545 38.1909 156.545 31.7015C156.545 25.2122 151.285 19.9515 144.795 19.9515C138.306 19.9515 133.045 25.2122 133.045 31.7015C133.045 38.1909 138.306 43.4515 144.795 43.4515Z" stroke="black" stroke-width="2" stroke-miterlimit="10"/>
  <path d="M172.333 82.25L180.308 148.402C180.825 152.676 180.907 159.683 180.496 163.975L177.061 199.785C176.649 204.078 175.275 210.952 174.006 215.068L161.715 254.936C160.446 259.044 156.502 262.417 152.95 262.417C149.393 262.417 147.075 258.939 147.799 254.693L154.509 215.307C155.233 211.061 155.915 204.062 156.02 199.754L156.862 166.063C156.968 161.754 155.12 158.233 152.75 158.233C150.38 158.233 147.631 161.664 146.64 165.859L125.568 254.795C124.581 258.986 120.86 262.417 117.304 262.417C113.748 262.417 111.245 258.915 111.742 254.638L131.208 86.1667" stroke="black" stroke-width="2" stroke-miterlimit="10" stroke-linecap="round" stroke-linejoin="round"/>
  <path d="M70.5 141L76.375 137.083C79.6062 134.929 86.715 125.568 92.1787 116.286L111.488 83.4642C116.948 74.1817 128.467 64.8208 137.083 62.6667C145.7 60.5125 159.8 58.75 168.417 58.75C177.033 58.75 175.476 64.3388 177 75L195 63C208.857 52.3333 205.5 55.5 214.5 49L226 42.5L238.5 38" stroke="black" stroke-width="2" stroke-miterlimit="10" stroke-linecap="round" stroke-linejoin="round"/>
</svg>
  