<svg width="309" height="284" viewBox="0 0 309 284" fill="none" xmlns="http://www.w3.org/2000/svg">
<path d="M302.896 178.033C302.896 249.505 235.399 284 150.979 284C66.5599 284 0 249.505 0 178.033C0 106.562 66.5599 25.1785 150.979 25.1785C235.399 25.1785 302.896 106.562 302.896 178.033Z" fill="#BBD532"/>
<path d="M200.681 208.952C200.681 231.74 178.948 242.739 151.766 242.739C124.585 242.739 103.154 231.74 103.154 208.952C103.154 186.164 124.585 160.216 151.766 160.216C178.948 160.216 200.681 186.164 200.681 208.952Z" fill="#F0F4F4"/>
<path d="M25.8095 111.774C0.490021 49.882 -2.32351 -38.2668 105.519 37.6919L25.8095 111.774Z" fill="#BBD532"/>
<path d="M280.39 111.774C305.71 49.882 308.523 -38.2668 200.681 37.6919L280.39 111.774Z" fill="#BBD532"/>
<rect x="140.664" y="177.095" width="22.5062" height="13.1286" rx="6.56431" fill="#008E7E"/>
<path d="M121.942 203.353C121.004 215.544 139.759 230.735 151.013 201.477M181.021 203.353C181.959 215.544 163.203 230.735 151.95 201.477" stroke="black" stroke-width="11.2531" stroke-linecap="round"/>
<path d="M31.9001 54.6922C29.6646 39.6905 45.2352 28.3778 58.8119 35.1396L67.3745 39.4043C77.457 44.4259 78.6172 58.3527 69.5045 64.9734L56.9695 74.0807C47.8569 80.7014 34.9702 75.2943 33.31 64.1535L31.9001 54.6922Z" fill="#008E7E"/>
<path d="M277.054 54.6922C279.289 39.6905 263.718 28.3778 250.142 35.1396L241.579 39.4043C231.497 44.4259 230.336 58.3527 239.449 64.9734L251.984 74.0807C261.097 80.7014 273.983 75.2943 275.644 64.1535L277.054 54.6922Z" fill="#008E7E"/>
<path d="M302.897 178.033C302.897 249.505 235.4 284 150.98 284C66.5609 284 0.000976562 249.505 0.000976562 178.033C0.000976562 106.562 66.5609 25.1785 150.98 25.1785C235.4 25.1785 302.897 106.562 302.897 178.033Z" fill="#BBD532"/>
<path d="M200.682 208.952C200.682 231.74 178.949 242.739 151.767 242.739C124.586 242.739 103.155 231.74 103.155 208.952C103.155 186.164 124.586 160.216 151.767 160.216C178.949 160.216 200.682 186.164 200.682 208.952Z" fill="#F0F4F4"/>
<path d="M25.8104 111.774C0.490997 49.882 -2.32254 -38.2668 105.52 37.6919L25.8104 111.774Z" fill="#BBD532"/>
<path d="M280.391 111.774C305.711 49.882 308.524 -38.2668 200.682 37.6919L280.391 111.774Z" fill="#BBD532"/>
<rect x="140.665" y="177.095" width="22.5062" height="13.1286" rx="6.56431" fill="#008E7E"/>
<path d="M122.217 202.671C121.28 214.862 140.035 230.054 151.288 200.796M181.296 202.671C182.234 214.862 163.479 230.054 152.226 200.796" stroke="black" stroke-width="11.2531" stroke-linecap="round"/>
<path d="M31.9001 54.6922C29.6646 39.6905 45.2352 28.3778 58.8119 35.1396L67.3745 39.4043C77.457 44.4259 78.6172 58.3527 69.5045 64.9734L56.9695 74.0807C47.8569 80.7014 34.9702 75.2943 33.31 64.1535L31.9001 54.6922Z" fill="#008E7E"/>
<path d="M277.054 54.6922C279.29 39.6905 263.719 28.3778 250.143 35.1396L241.58 39.4043C231.498 44.4259 230.337 58.3527 239.45 64.9734L251.985 74.0807C261.098 80.7014 273.984 75.2943 275.645 64.1535L277.054 54.6922Z" fill="#008E7E"/>
<ellipse cx="230.688" cy="163.17" rx="30.0083" ry="37.5104" fill="#008E7E"/>
<path d="M229.252 139.862C229.381 138.08 231.996 138.08 232.125 139.862C232.932 150.987 241.294 160.092 252.311 161.84L252.599 161.886C254.211 162.141 254.256 164.447 252.654 164.765L251.54 164.986C240.881 167.099 232.943 176.065 232.135 186.901C232.001 188.691 229.375 188.691 229.242 186.901C228.434 176.065 220.496 167.099 209.837 164.986L208.723 164.765C207.121 164.447 207.165 162.141 208.778 161.886L209.066 161.84C220.083 160.092 228.445 150.987 229.252 139.862Z" fill="#F0F4F4"/>
<ellipse cx="73.144" cy="163.17" rx="30.0083" ry="37.5104" fill="#008E7E"/>
<path d="M71.7072 139.862C71.8363 138.08 74.4517 138.08 74.5809 139.862C75.3871 150.987 83.7496 160.092 94.7668 161.84L95.0541 161.886C96.667 162.141 96.7113 164.447 95.1095 164.765L93.9958 164.986C83.3369 167.099 75.3981 176.065 74.5904 186.901C74.457 188.691 71.831 188.691 71.6976 186.901C70.8899 176.065 62.9511 167.099 52.2923 164.986L51.1786 164.765C49.5767 164.447 49.621 162.141 51.2339 161.886L51.5213 161.84C62.5385 160.092 70.901 150.987 71.7072 139.862Z" fill="#F0F4F4"/>
</svg>
