<svg width="311" height="288" viewBox="0 0 311 288" fill="none" xmlns="http://www.w3.org/2000/svg">
<path d="M304.06 179.611C304.06 214.015 287.962 239.367 261.399 256.372C234.58 273.54 196.936 282.243 154.428 282.243C111.919 282.243 74.5253 273.54 47.9546 256.384C21.6439 239.395 5.75413 214.049 5.75413 179.611C5.75413 144.747 22.0514 107.01 49.0498 77.9394C76.0048 48.9152 113.163 29.0188 154.428 29.0188C195.699 29.0188 233.104 48.9218 260.302 77.9574C287.543 107.039 304.06 144.772 304.06 179.611Z" stroke="#20525C" stroke-width="11.5102"/>
<path d="M26.4086 111.84C0.510727 48.5332 -2.36709 -41.6295 107.939 36.0646" stroke="#20525C" stroke-width="11.5102"/>
<path d="M286.8 111.84C312.698 48.5332 315.576 -41.6295 205.27 36.0646" stroke="#20525C" stroke-width="11.5102"/>
<rect x="144.827" y="179.612" width="21.102" height="11.5102" rx="5.7551" stroke="#20525C" stroke-width="1.91837"/>
<path d="M74.3256 131.353C77.197 122.515 89.6991 122.515 92.5704 131.353L93.2644 133.489C96.0895 142.183 104.192 148.07 113.334 148.07H115.58C124.872 148.07 128.735 159.96 121.218 165.422L119.401 166.742C112.005 172.115 108.91 181.64 111.735 190.335L112.429 192.471C115.3 201.308 105.186 208.656 97.6685 203.195L95.8515 201.874C88.4555 196.501 78.4405 196.501 71.0445 201.874L69.2275 203.195C61.7102 208.656 51.5958 201.308 54.4672 192.471L55.1612 190.335C57.9862 181.64 54.8914 172.115 47.4954 166.742L45.6784 165.422C38.1611 159.96 42.0245 148.07 51.3163 148.07H53.5623C62.7043 148.07 70.8066 142.183 73.6316 133.489L74.3256 131.353Z" stroke="#20525C" stroke-width="11.5102"/>
<path d="M218.194 131.353C221.066 122.515 233.568 122.515 236.439 131.353L237.133 133.489C239.958 142.183 248.06 148.07 257.202 148.07H259.448C268.74 148.07 272.604 159.96 265.086 165.422L263.269 166.742C255.873 172.115 252.778 181.64 255.603 190.335L256.298 192.471C259.169 201.308 249.054 208.656 241.537 203.195L239.72 201.874C232.324 196.501 222.309 196.501 214.913 201.874L213.096 203.195C205.579 208.656 195.464 201.308 198.336 192.471L199.03 190.335C201.855 181.64 198.76 172.115 191.364 166.742L189.547 165.422C182.03 159.96 185.893 148.07 195.185 148.07H197.431C206.573 148.07 214.675 142.183 217.5 133.489L218.194 131.353Z" stroke="#20525C" stroke-width="11.5102"/>
<path d="M129.104 214.512C128.18 212.007 130.034 209.348 132.704 209.348H176.594C179.215 209.348 181.064 211.918 180.231 214.404L185.688 216.233L180.231 214.404L175.263 229.228C172.33 237.98 164.132 243.878 154.901 243.878C145.906 243.878 137.863 238.272 134.752 229.832L129.104 214.512Z" stroke="#20525C" stroke-width="11.5102"/>
</svg>
