<svg width="351" height="383" viewBox="0 0 351 383" fill="none" xmlns="http://www.w3.org/2000/svg">
<path d="M64.9277 286C85.4325 220.194 85.957 165.787 106.205 132.953L209.76 126C197.033 140.872 190.09 182.552 264.14 230.297C326.072 270.228 341.063 312.402 340.927 336.548C340.894 342.285 333.782 345.263 328.105 344.437C305.226 341.107 257.424 350.596 205.928 371.5C146.96 395.437 72.9802 375.433 35.503 362.795C28.6258 360.476 26.6116 347.93 31.4868 342.553C42.9891 329.868 57.6243 309.439 64.9277 286Z" fill="#58C3AF"/>
<path d="M45.0493 5.50049C70.0466 -8.24033 109.732 10.7012 128.049 25.7302L41.8516 110C31.4361 78.3317 20.052 19.2413 45.0493 5.50049Z" fill="#BBD532"/>
<path d="M59 25.0004C68.9803 18.2137 103.09 33.0332 110.049 40.832L60.5995 86.0003C53.4484 72.4965 46.5 33.5004 59 25.0004Z" fill="#008E7E"/>
<path d="M308.049 5.50049C283.052 -8.24033 243.366 10.7012 225.049 25.7302L311.247 110C321.663 78.3317 333.047 19.2413 308.049 5.50049Z" fill="#BBD532"/>
<path d="M293.619 25.0004C281.738 17.0005 250.008 33.0334 243.049 40.8323L292.499 86.0005C299.65 72.4967 305.5 33.0003 293.619 25.0004Z" fill="#008E7E"/>
<path d="M331.818 173.611C331.818 246.715 262.778 281.998 176.43 281.998C90.082 281.998 22.0015 246.715 22.0015 173.611C22.0015 100.506 90.082 17.2637 176.43 17.2637C262.778 17.2637 331.818 100.506 331.818 173.611Z" fill="#BBD532"/>
<rect x="313.002" y="175.138" width="36" height="12" rx="6" transform="rotate(-5 313.002 175.138)" fill="#008E7E"/>
<rect x="314.173" y="196.543" width="36" height="12" rx="6" transform="rotate(5 314.173 196.543)" fill="#008E7E"/>
<rect width="36" height="12" rx="6" transform="matrix(-0.996195 -0.0871557 -0.0871557 0.996195 37.0332 175.138)" fill="#008E7E"/>
<rect width="36" height="12" rx="6" transform="matrix(-0.996195 0.0871557 0.0871557 0.996195 35.8628 196.543)" fill="#008E7E"/>
<path d="M91.3773 127.927C95.6652 114.73 114.335 114.73 118.623 127.927C120.54 133.828 126.04 137.824 132.245 137.824C146.121 137.824 151.89 155.58 140.665 163.736C135.644 167.384 133.544 173.849 135.461 179.75C139.749 192.947 124.645 203.921 113.419 195.765C108.399 192.117 101.601 192.117 96.5807 195.765C85.355 203.921 70.2509 192.947 74.5388 179.75C76.4564 173.849 74.3557 167.384 69.3354 163.736C58.1097 155.58 63.8789 137.824 77.7547 137.824C83.9601 137.824 89.4597 133.828 91.3773 127.927Z" fill="#008E7E"/>
<mask id="mask0_4837_26059" style="mask-type:alpha" maskUnits="userSpaceOnUse" x="63" y="118" width="84" height="81">
<path d="M91.3773 127.927C95.6652 114.73 114.335 114.73 118.623 127.927C120.54 133.828 126.04 137.824 132.245 137.824C146.121 137.824 151.89 155.58 140.665 163.736C135.644 167.384 133.544 173.849 135.461 179.75C139.749 192.947 124.645 203.921 113.419 195.765C108.399 192.117 101.601 192.117 96.5807 195.765C85.355 203.921 70.2509 192.947 74.5388 179.75C76.4564 173.849 74.3557 167.384 69.3354 163.736C58.1097 155.58 63.8789 137.824 77.7547 137.824C83.9601 137.824 89.4597 133.828 91.3773 127.927Z" fill="#008E7E"/>
</mask>
<g mask="url(#mask0_4837_26059)">
</g>
<ellipse cx="105" cy="172" rx="22" ry="12" fill="#58C3AF"/>
<ellipse cx="90.3923" cy="156.929" rx="12" ry="8" transform="rotate(-30 90.3923 156.929)" fill="white"/>
<path d="M236.377 126.927C240.665 113.73 259.335 113.73 263.623 126.927C265.54 132.828 271.04 136.824 277.245 136.824C291.121 136.824 296.89 154.58 285.665 162.736C280.644 166.384 278.544 172.849 280.461 178.75C284.749 191.947 269.645 202.921 258.419 194.765C253.399 191.117 246.601 191.117 241.581 194.765C230.355 202.921 215.251 191.947 219.539 178.75C221.456 172.849 219.356 166.384 214.335 162.736C203.11 154.58 208.879 136.824 222.755 136.824C228.96 136.824 234.46 132.828 236.377 126.927Z" fill="#008E7E"/>
<ellipse cx="250" cy="172" rx="22" ry="12" fill="#58C3AF"/>
<ellipse cx="234.392" cy="156.929" rx="12" ry="8" transform="rotate(-30 234.392 156.929)" fill="white"/>
<path d="M197 219L179.5 201.5L154 220.5L166 240L188.5 241.5L197 219Z" fill="#58C3AF"/>
<path d="M142 218.5C150.5 221.667 169.9 215.2 177.5 196" stroke="#20525C" stroke-width="12" stroke-linecap="round"/>
<path d="M213 218.5C204.5 221.667 185.1 215.2 177.5 196" stroke="#20525C" stroke-width="12" stroke-linecap="round"/>
<path d="M157 220.5C157 238.467 169.135 242.5 177.225 242.5C185.315 242.5 197 238.834 197 220.5" stroke="#20525C" stroke-width="12" stroke-linecap="round"/>
<ellipse cx="244.89" cy="269.842" rx="80.3962" ry="22.7789" transform="rotate(-20.7305 244.89 269.842)" fill="#20525C"/>
<ellipse cx="114.054" cy="269.885" rx="84.0304" ry="23.8086" transform="rotate(19.8157 114.054 269.885)" fill="#20525C"/>
</svg>
