<svg width="351" height="321" viewBox="0 0 351 321" fill="none" xmlns="http://www.w3.org/2000/svg">
<path d="M45.0498 5.50049C70.0471 -8.24033 109.733 10.7012 128.05 25.7302L41.8521 110C31.4366 78.3317 20.0525 19.2413 45.0498 5.50049Z" fill="#BBD532"/>
<path d="M59.0005 25.0004C68.9808 18.2137 103.091 33.0332 110.05 40.832L60.6 86.0003C53.4489 72.4965 46.5005 33.5004 59.0005 25.0004Z" fill="#008E7E"/>
<path d="M308.05 5.50049C283.052 -8.24033 243.367 10.7012 225.05 25.7302L311.247 110C321.663 78.3317 333.047 19.2413 308.05 5.50049Z" fill="#BBD532"/>
<path d="M293.619 25.0004C281.738 17.0005 250.009 33.0334 243.05 40.8323L292.499 86.0005C299.65 72.4967 305.5 33.0003 293.619 25.0004Z" fill="#008E7E"/>
<path d="M331.818 173.611C331.818 246.715 262.778 281.998 176.43 281.998C90.0823 281.998 22.0017 246.715 22.0017 173.611C22.0017 100.506 90.0823 17.2637 176.43 17.2637C262.778 17.2637 331.818 100.506 331.818 173.611Z" fill="#BBD532"/>
<rect x="313.003" y="175.138" width="36" height="12" rx="6" transform="rotate(-5 313.003 175.138)" fill="#008E7E"/>
<rect x="314.173" y="196.543" width="36" height="12" rx="6" transform="rotate(5 314.173 196.543)" fill="#008E7E"/>
<rect width="36" height="12" rx="6" transform="matrix(-0.996195 -0.0871557 -0.0871557 0.996195 37.0334 175.138)" fill="#008E7E"/>
<rect width="36" height="12" rx="6" transform="matrix(-0.996195 0.0871557 0.0871557 0.996195 35.863 196.543)" fill="#008E7E"/>
<rect x="164" y="184" width="25" height="13.4286" rx="6.71429" fill="#20525C"/>
<circle cx="252" cy="162" r="36" fill="#008E7E"/>
<circle cx="105" cy="162" r="36" fill="#008E7E"/>
<ellipse cx="105" cy="176" rx="22" ry="12" fill="#58C3AF"/>
<ellipse cx="250" cy="176" rx="22" ry="12" fill="#58C3AF"/>
<ellipse cx="90.3923" cy="160.929" rx="12" ry="8" transform="rotate(-30 90.3923 160.929)" fill="white"/>
<ellipse cx="234.392" cy="160.929" rx="12" ry="8" transform="rotate(-30 234.392 160.929)" fill="white"/>
<path d="M146 220.5C162.5 229 175 216.5 176.5 197" stroke="#20525C" stroke-width="12" stroke-linecap="round"/>
<path d="M207.5 220.5C191 229 178.5 216.5 177 197" stroke="#20525C" stroke-width="12" stroke-linecap="round"/>
<ellipse cx="243.928" cy="269.842" rx="80.3962" ry="22.7789" transform="rotate(-20.7305 243.928 269.842)" fill="#20525C"/>
<ellipse cx="113.091" cy="269.885" rx="84.0304" ry="23.8086" transform="rotate(19.8157 113.091 269.885)" fill="#20525C"/>
</svg>
