<svg width="310" height="288" viewBox="0 0 310 288" fill="none" xmlns="http://www.w3.org/2000/svg">
<path d="M304.061 179.612C304.061 214.017 287.963 239.368 261.4 256.373C234.581 273.542 196.937 282.245 154.429 282.245C111.92 282.245 74.5263 273.541 47.9556 256.385C21.6448 239.397 5.7551 214.05 5.7551 179.612C5.7551 144.749 22.0523 107.011 49.0508 77.9406C76.0058 48.9164 113.164 29.02 154.429 29.02C195.7 29.02 233.105 48.923 260.303 77.9586C287.544 107.04 304.061 144.773 304.061 179.612Z" stroke="#20525C" stroke-width="11.5102"/>
<path d="M26.3981 111.84C0.500229 48.5332 -2.37759 -41.6295 107.929 36.0646" stroke="#20525C" stroke-width="11.5102"/>
<path d="M286.795 111.84C312.693 48.5332 315.571 -41.6295 205.265 36.0646" stroke="#20525C" stroke-width="11.5102"/>
<ellipse cx="95.9174" cy="157.551" rx="11.5102" ry="15.3469" fill="#20525C"/>
<ellipse cx="212.938" cy="157.551" rx="11.5102" ry="15.3469" fill="#20525C"/>
<rect x="143.877" y="178.653" width="23.0204" height="13.4286" rx="6.71429" fill="#20525C"/>
<path d="M124.729 205.51C123.77 217.979 142.954 233.518 154.464 203.591M185.158 205.51C186.117 217.979 166.933 233.518 155.423 203.591" stroke="#20525C" stroke-width="11.5102" stroke-linecap="round"/>
</svg>
