<svg width="309" height="284" viewBox="0 0 309 284" fill="none" xmlns="http://www.w3.org/2000/svg">
<path d="M302.896 178.033C302.896 249.505 235.398 284 150.979 284C66.5596 284 -0.000244141 249.505 -0.000244141 178.033C-0.000244141 106.562 66.5596 25.1785 150.979 25.1785C235.398 25.1785 302.896 106.562 302.896 178.033Z" fill="#BBD532"/>
<path d="M200.68 208.952C200.68 231.74 178.947 242.738 151.766 242.738C124.584 242.738 103.153 231.74 103.153 208.952C103.153 186.164 124.584 160.216 151.766 160.216C178.947 160.216 200.68 186.164 200.68 208.952Z" fill="#F0F4F4"/>
<path d="M25.8097 111.774C0.490275 49.8819 -2.32326 -38.2667 105.519 37.6919L25.8097 111.774Z" fill="#BBD532"/>
<path d="M280.39 111.774C305.709 49.8819 308.523 -38.2667 200.68 37.6919L280.39 111.774Z" fill="#BBD532"/>
<ellipse cx="90.0246" cy="156.465" rx="11.2531" ry="15.0041" fill="black"/>
<ellipse cx="211.933" cy="156.465" rx="11.2531" ry="15.0041" fill="black"/>
<rect x="140.664" y="177.095" width="22.5062" height="13.1286" rx="6.56431" fill="#008E7E"/>
<path d="M121.942 203.353C121.004 215.543 139.759 230.735 151.013 201.477M181.021 203.353C181.959 215.543 163.203 230.735 151.95 201.477" stroke="black" stroke-width="11.2531" stroke-linecap="round"/>
<path d="M31.9006 54.6922C29.665 39.6905 45.2357 28.3778 58.8123 35.1396L67.3749 39.4043C77.4574 44.4259 78.6176 58.3527 69.505 64.9734L56.9699 74.0806C47.8573 80.7013 34.9707 75.2943 33.3105 64.1535L31.9006 54.6922Z" fill="#008E7E"/>
<path d="M277.054 54.6922C279.29 39.6905 263.719 28.3778 250.142 35.1396L241.58 39.4043C231.497 44.4259 230.337 58.3527 239.45 64.9734L251.985 74.0806C261.097 80.7013 273.984 75.2943 275.644 64.1535L277.054 54.6922Z" fill="#008E7E"/>
</svg>
