<svg width="351" height="296" viewBox="0 0 351 296" fill="none" xmlns="http://www.w3.org/2000/svg">
<path d="M45.0497 19.5005C70.047 5.75967 109.733 24.7012 128.05 39.7302L41.852 124C31.4365 92.3317 20.0524 33.2413 45.0497 19.5005Z" fill="#BBD532"/>
<path d="M59.0004 39.0004C68.9807 32.2137 103.091 47.0332 110.05 54.832L60.5999 100C53.4488 86.4965 46.5004 47.5004 59.0004 39.0004Z" fill="#008E7E"/>
<path d="M308.05 19.5005C283.052 5.75967 243.367 24.7012 225.05 39.7302L311.247 124C321.663 92.3317 333.047 33.2413 308.05 19.5005Z" fill="#BBD532"/>
<path d="M293.619 39.0004C281.738 31.0005 250.009 47.0334 243.05 54.8323L292.499 100.001C299.65 86.4967 305.5 47.0003 293.619 39.0004Z" fill="#008E7E"/>
<path d="M331.818 187.611C331.818 260.715 262.778 295.998 176.43 295.998C90.0823 295.998 22.0017 260.715 22.0017 187.611C22.0017 114.506 90.0823 31.2637 176.43 31.2637C262.778 31.2637 331.818 114.506 331.818 187.611Z" fill="#BBD532"/>
<rect x="313.003" y="189.138" width="36" height="12" rx="6" transform="rotate(-5 313.003 189.138)" fill="#008E7E"/>
<rect x="314.173" y="210.543" width="36" height="12" rx="6" transform="rotate(5 314.173 210.543)" fill="#008E7E"/>
<rect width="36" height="12" rx="6" transform="matrix(-0.996195 -0.0871557 -0.0871557 0.996195 37.0334 189.138)" fill="#008E7E"/>
<rect width="36" height="12" rx="6" transform="matrix(-0.996195 0.0871557 0.0871557 0.996195 35.863 210.543)" fill="#008E7E"/>
<rect x="164" y="198" width="25" height="13.4286" rx="6.71429" fill="#20525C"/>
<circle cx="252" cy="176" r="36" fill="#008E7E"/>
<circle cx="105" cy="176" r="36" fill="#008E7E"/>
<ellipse cx="105" cy="190" rx="22" ry="12" fill="#58C3AF"/>
<ellipse cx="250" cy="190" rx="22" ry="12" fill="#58C3AF"/>
<ellipse cx="90.3923" cy="174.929" rx="12" ry="8" transform="rotate(-30 90.3923 174.929)" fill="white"/>
<ellipse cx="234.392" cy="174.929" rx="12" ry="8" transform="rotate(-30 234.392 174.929)" fill="white"/>
<path d="M146 234.5C162.5 243 175 230.5 176.5 211" stroke="#20525C" stroke-width="12" stroke-linecap="round"/>
<path d="M207.5 234.5C191 243 178.5 230.5 177 211" stroke="#20525C" stroke-width="12" stroke-linecap="round"/>
<rect x="123.446" y="8.48528" width="63.7047" height="158.336" rx="31.8523" transform="rotate(45 123.446 8.48528)" fill="#008E7E" stroke="#20525C" stroke-width="12"/>
<rect x="96.6754" y="53.532" width="37.8523" height="56.7785" rx="8" transform="rotate(45 96.6754 53.532)" fill="#58C3AF"/>
<circle cx="75" cy="94" r="6" fill="#008E7E"/>
<circle cx="99" cy="93" r="6" fill="#008E7E"/>
<circle cx="89" cy="75" r="6" fill="#008E7E"/>
</svg>
