<svg width="322" height="282" viewBox="0 0 322 282" fill="none" xmlns="http://www.w3.org/2000/svg">
<path d="M315.447 177.469C315.447 247.972 248.864 282 165.589 282C82.3144 282 16.6569 247.972 16.6569 177.469C16.6569 106.967 82.3144 26.687 165.589 26.687C248.864 26.687 315.447 106.967 315.447 177.469Z" fill="#BBD532"/>
<path d="M214.617 207.969C214.617 230.448 193.178 241.297 166.365 241.297C139.552 241.297 118.412 230.448 118.412 207.969C118.412 185.49 139.552 159.893 166.365 159.893C193.178 159.893 214.617 185.49 214.617 207.969Z" fill="#F0F4F4"/>
<path d="M42.1165 112.108L120.746 39.03C88.9381 18.6029 61.975 7.39948 49.9494 15.7251C37.9238 24.0508 31.4492 33.3014 25.8985 49.0271C20.3506 68.4531 34.6194 94.7619 42.1165 112.108Z" fill="#BBD532"/>
<path d="M293.247 112.109C318.223 51.0555 320.999 -35.8982 214.618 39.0307L293.247 112.109Z" fill="#BBD532"/>
<ellipse cx="105.461" cy="156.193" rx="11.1005" ry="14.8007" fill="black"/>
<ellipse cx="225.717" cy="156.193" rx="11.1005" ry="14.8007" fill="black"/>
<rect x="155.414" y="176.544" width="22.2011" height="12.9506" rx="6.47532" fill="#008E7E"/>
<path d="M136.946 202.446C136.021 214.471 154.522 229.457 165.623 200.596M195.224 202.446C196.149 214.471 177.648 229.457 166.548 200.596" stroke="black" stroke-width="11.1005" stroke-linecap="round"/>
<path d="M289.957 55.8007C292.162 41.0024 276.802 29.843 263.41 36.5132L254.963 40.7201C245.017 45.6736 243.873 59.4116 252.862 65.9426L265.227 74.9263C274.216 81.4573 286.928 76.1236 288.566 65.1338L289.957 55.8007Z" fill="#008E7E"/>
<rect x="117.739" width="74.0037" height="166.508" rx="37.0018" transform="rotate(45 117.739 0)" fill="#008E7E"/>
<rect x="91.5743" y="60.1779" width="25.9013" height="44.4022" transform="rotate(45 91.5743 60.1779)" fill="#58C3AF" stroke="#58C3AF" stroke-width="11.1005"/>
</svg>
