<svg width="321" height="284" viewBox="0 0 321 284" fill="none" xmlns="http://www.w3.org/2000/svg">
<path d="M315.121 177.068C315.121 211.011 299.239 236.022 273.032 252.798C246.573 269.737 209.435 278.323 167.497 278.323C125.559 278.323 88.6671 269.736 62.453 252.81C36.4954 236.05 20.819 211.044 20.819 177.068C20.819 142.672 36.8974 105.442 63.5335 76.7611C90.1267 48.1265 126.787 28.4972 167.497 28.4972C208.214 28.4972 245.117 48.1331 271.95 76.7789C298.826 105.47 315.121 142.697 315.121 177.068Z" stroke="#20525C" stroke-width="11.3557"/>
<path d="M41.1859 110.204C15.6357 47.7474 12.7965 -41.205 121.622 35.4462" stroke="#20525C" stroke-width="11.3557"/>
<path d="M298.088 110.204C323.638 47.7474 326.477 -41.205 217.652 35.4462" stroke="#20525C" stroke-width="11.3557"/>
<ellipse cx="109.772" cy="155.302" rx="11.3557" ry="15.1409" fill="#20525C"/>
<ellipse cx="225.222" cy="155.302" rx="11.3557" ry="15.1409" fill="#20525C"/>
<rect x="157.087" y="176.122" width="22.7114" height="13.2483" rx="6.62416" fill="#20525C"/>
<path d="M138.195 202.617C137.249 214.919 156.175 230.249 167.531 200.724M197.813 202.617C198.759 214.919 179.833 230.249 168.477 200.724" stroke="#20525C" stroke-width="11.3557" stroke-linecap="round"/>
<rect x="120.445" y="10.0297" width="64.349" height="158.98" rx="32.1745" transform="rotate(45 120.445 10.0297)" fill="#008E7E" stroke="#20525C" stroke-width="11.3557"/>
<rect x="93.6755" y="63.5617" width="26.4966" height="45.4228" transform="rotate(45 93.6755 63.5617)" fill="#008E7E" stroke="#20525C" stroke-width="11.3557"/>
</svg>
