<svg width="209" height="135" viewBox="0 0 209 135" fill="none" xmlns="http://www.w3.org/2000/svg">
<path d="M15.0048 96.6879C-2.30381 86.6431 4.30731 66.9061 16.1546 61.4056C4.55736 48.9575 20.7144 37.794 29.5223 38.7085C28.318 23.804 59.4568 22.8733 69.4543 30.5047C68.0857 13.5673 103.768 14.1858 114.67 28.7435C136.514 13.377 166.662 23.321 157.547 38.7085C165.054 31.5505 168.564 29.3234 173.423 37.4164C184.839 31.0926 206.771 38.3911 197.949 57.3941C208.445 59.0991 205.696 79.2115 199.755 79.7456C208.787 90.5217 188.909 108.653 180.529 102.242C181.758 117.452 160.142 122.157 147.257 114.787C137.084 129.007 113.5 125.328 110.138 115.736C100.851 126.175 94.7332 125.099 83.1647 118.161C64.0232 132.342 26.0596 120.857 33.2064 108.322C20.2779 112.437 10.7293 102.039 15.0048 96.6879Z" fill="white"/>
<path d="M156.814 40.4798C165.928 25.0924 136.367 13.4398 114.523 28.8063C103.621 14.2486 68.0853 13.8617 69.4538 30.7991C64.2709 26.8428 50.1991 21.8196 42.2395 24.3081M184.224 35.2407C194.483 35.9207 204.375 43.5525 197.949 57.3949C208.444 59.1 205.696 79.2123 199.755 79.7464C205.947 87.1347 198.55 97.9805 190.586 102.003M14.8633 45.4295C11.4338 49.6314 10.5283 55.3677 16.1542 61.4064C4.30691 66.9069 -2.30421 86.644 15.0045 96.6887C12.4566 99.8773 13.7628 104.444 18.8229 107.078M39.5399 120.044C50.3294 125.753 70.7227 127.379 83.1643 118.162C94.7329 125.1 100.851 126.176 110.138 115.737C113.5 125.328 137.084 129.008 147.257 114.787C154.775 119.088 165.267 119.278 172.457 115.667" stroke="black" stroke-width="2" stroke-linecap="round" stroke-linejoin="round"/>
<path d="M160.755 25.2994L171.468 4.80253M171.488 24.9072L186.638 7.33997M174.356 34.676L192.472 21.4739" stroke="black" stroke-width="2" stroke-linecap="round" stroke-linejoin="round"/>
<path d="M43.9358 108.83L33.2221 129.327M33.2024 109.223L18.0528 126.79M30.3342 99.4538L12.2189 112.656" stroke="black" stroke-width="2" stroke-linecap="round" stroke-linejoin="round"/>
<path d="M44.0198 35.7941L30.1723 17.5056M33.3783 37.3238L15.629 22.7145M32.1187 47.4637L12.1468 37.6861" stroke="black" stroke-width="2" stroke-linecap="round" stroke-linejoin="round"/>
<path d="M167.485 108.605L181.333 126.893M178.127 107.075L195.876 121.684M179.386 96.935L199.358 106.713" stroke="black" stroke-width="2" stroke-linecap="round" stroke-linejoin="round"/>
</svg>
