<svg width="212" height="229" viewBox="0 0 212 229" fill="none" xmlns="http://www.w3.org/2000/svg">
<path d="M57.767 22.2298C61.9756 29.5194 58.4413 39.4392 49.8728 44.3862C41.3043 49.3332 30.9464 47.4342 26.7378 40.1446C22.5291 32.855 20.8494 13.9043 29.4179 8.95731C37.9864 4.01029 53.5583 14.9402 57.767 22.2298Z" fill="black"/>
<path d="M76.0709 22.2298C71.8623 29.5194 75.3966 39.4392 83.9651 44.3862C92.5336 49.3332 102.891 47.4342 107.1 40.1446C111.309 32.855 112.988 13.9043 104.42 8.95731C95.8515 4.01029 80.2796 14.9402 76.0709 22.2298Z" fill="black"/>
<path d="M74.1832 42.4418C82.0103 46.7517 88.8721 49.9462 96.3582 49.5704C81.6053 85.3833 71.4788 99.2714 38.353 102.024C31.0996 99.6755 25.9509 95.0221 21.1702 90.7907C48.092 76.0021 64.3576 62.5652 74.1832 42.4418ZM97.6442 69.1709C108.924 79.4834 120.417 87.9068 131.551 94.0975C150.415 104.611 168.262 108.968 182.108 105.188C183.379 112.649 188.411 126.326 186.174 132.822C176.245 144.983 147.455 147.2 133.909 141.485C126.831 138.119 121.462 132.409 114.808 125.631C120.859 137.124 127.37 142.789 133.877 146.178C141.911 149.83 148.958 151.665 156.34 151.065C156.476 160.073 159.373 169.866 159.135 177.34C158.944 180.154 158.37 181.562 156.501 182.394C143.007 184.261 128.451 176.821 115.925 176.731C95.827 174.197 86.048 160.58 83.7773 156.963C88.5619 166.403 97.87 177.84 105.716 180.725C98.1587 189.298 102.873 209.429 105.097 217.706C98.6451 215.024 90.2533 210.238 82.2173 203.943C72.0445 196.001 62.4523 185.714 57.306 174.693C51.3394 161.696 50.1651 146.95 46.3141 131.744C44.334 123.842 41.5054 115.807 36.7985 107.998C82.467 109.33 91.8702 86.1047 97.6442 69.1709Z" fill="#20525C"/>
<circle cx="129.413" cy="163.104" r="12.8344" fill="black"/>
<rect x="82.355" y="118.719" width="27.8079" height="60.9636" rx="13.904" transform="rotate(-30 82.355 118.719)" fill="#58C3AF"/>
<path d="M27.2734 90.9101L104.547 76.7388L113.906 118.451L58.0226 145.991L27.2734 90.9101Z" fill="#58C3AF"/>
<path d="M111.498 59.718C111.498 80.0967 92.2527 89.9324 68.1821 89.9324C44.1116 89.9324 25.1333 80.0967 25.1333 59.718C25.1333 39.3392 44.1116 16.1344 68.1821 16.1344C92.2527 16.1344 111.498 39.3392 111.498 59.718Z" fill="black"/>
<path d="M111.498 59.718C111.498 80.0967 92.2527 89.9324 68.1821 89.9324C44.1116 89.9324 25.1333 80.0967 25.1333 59.718C25.1333 39.3392 44.1116 16.1344 68.1821 16.1344C92.2527 16.1344 111.498 39.3392 111.498 59.718Z" fill="black"/>
<circle cx="87.7014" cy="52.9419" r="6.41722" fill="white"/>
<ellipse cx="68.4502" cy="67.3799" rx="12.8344" ry="9.62582" fill="white"/>
<circle cx="48.6628" cy="52.9419" r="6.41722" fill="white"/>
<ellipse cx="85.5623" cy="52.9416" rx="4.27814" ry="5.34768" fill="#58C3AF"/>
<ellipse cx="50.803" cy="52.9416" rx="4.27814" ry="5.34768" fill="#58C3AF"/>
<rect x="65.2407" y="59.4497" width="6.41722" height="3.74338" rx="1.87169" fill="#D29595"/>
<path d="M59.9032 66.9378C59.6358 70.4138 64.9835 74.7455 68.1921 66.4031M76.7484 66.9378C77.0158 70.4138 71.6681 74.7455 68.4595 66.4031" stroke="black" stroke-width="6" stroke-linecap="round"/>
<rect x="53.7036" y="139.902" width="27.8079" height="67.9959" rx="13.904" transform="rotate(-30 53.7036 139.902)" fill="#58C3AF"/>
<circle cx="100.001" cy="190.378" r="12.8344" fill="black"/>
<rect x="11.7495" y="37.2097" width="22.6845" height="41.2653" rx="11.3423" transform="rotate(15 11.7495 37.2097)" fill="#58C3AF"/>
<rect y="71.1223" width="22.6845" height="61.8615" rx="11.3423" transform="rotate(-45 0 71.1223)" fill="#58C3AF"/>
<rect x="92.5146" y="93.9775" width="22.6845" height="41.2653" rx="11.3423" transform="rotate(-60 92.5146 93.9775)" fill="#58C3AF"/>
<rect x="126.19" y="68.9854" width="22.6845" height="41.2653" rx="11.3423" transform="rotate(15 126.19 68.9854)" fill="#58C3AF"/>
<rect x="52.9419" y="140.161" width="67.3808" height="12.8344" rx="6.41722" transform="rotate(-20 52.9419 140.161)" fill="#BBD532"/>
<ellipse cx="91.4395" cy="84.4657" rx="21.4857" ry="6.08761" transform="rotate(-30 91.4395 84.4657)" fill="#20525C"/>
<ellipse cx="56.933" cy="90.1086" rx="22.4569" ry="6.36279" transform="rotate(10.5462 56.933 90.1086)" fill="#20525C"/>
<path d="M86.9023 21.4975C84.7559 25.2152 88.7217 28.111 93.0916 30.634C97.4616 33.157 100.581 34.3517 102.727 30.634C104.874 26.9163 105.73 17.2514 101.36 14.7284C96.9905 12.2055 89.0488 17.7797 86.9023 21.4975Z" fill="#D29595"/>
<path d="M46.9697 21.4975C49.1161 25.2152 45.1504 28.111 40.7804 30.634C36.4105 33.157 33.2912 34.3517 31.1448 30.634C28.9983 26.9163 28.1417 17.2514 32.5117 14.7284C36.8816 12.2055 44.8233 17.7797 46.9697 21.4975Z" fill="#D29595"/>
<line x1="108.388" y1="58.0278" x2="114.638" y2="56.9258" stroke="#58605D" stroke-width="6" stroke-linecap="round"/>
<line x1="109.36" y1="63.8796" x2="115.609" y2="64.9816" stroke="#58605D" stroke-width="6" stroke-linecap="round"/>
<line x1="3" y1="-3" x2="9.34608" y2="-3" transform="matrix(-0.984808 -0.173648 -0.173648 0.984808 30.875 61.5032)" stroke="#58605D" stroke-width="6" stroke-linecap="round"/>
<line x1="3" y1="-3" x2="9.34608" y2="-3" transform="matrix(-0.984808 0.173648 0.173648 0.984808 30.9468 66.3131)" stroke="#58605D" stroke-width="6" stroke-linecap="round"/>
<circle cx="22.4609" cy="42.7819" r="12.8344" fill="black"/>
<circle cx="135.296" cy="81.2844" r="12.8344" fill="black"/>
<path d="M83.3718 127.665C84.4949 128.607 84.5074 130.441 83.3996 131.761C82.2918 133.082 80.4833 133.388 79.3602 132.445C78.237 131.503 76.8331 128.501 77.9409 127.181C79.0486 125.861 82.2486 126.722 83.3718 127.665Z" fill="#20525C"/>
<path d="M86.3675 126.576C86.1129 128.019 87.2824 129.433 88.9796 129.732C90.6768 130.031 92.259 129.103 92.5136 127.659C92.7682 126.215 91.9142 123.014 90.217 122.714C88.5197 122.415 86.6221 125.132 86.3675 126.576Z" fill="#20525C"/>
<path d="M94.4003 130.6C95.6143 133.935 93.0501 136.692 89.1103 138.126C85.1704 139.56 81.478 139.08 80.264 135.745C79.0499 132.409 80.7739 127.48 84.7137 126.046C88.6536 124.612 93.1862 127.264 94.4003 130.6Z" fill="#20525C"/>
<path d="M94.4003 130.6C95.6143 133.935 93.0501 136.692 89.1103 138.126C85.1704 139.56 81.478 139.08 80.264 135.745C79.0499 132.409 80.7739 127.48 84.7137 126.046C88.6536 124.612 93.1862 127.264 94.4003 130.6Z" fill="#20525C"/>
</svg>
