<svg width="24" height="24" viewBox="0 0 16 18" fill="none" xmlns="http://www.w3.org/2000/svg">
<path d="M12.6002 2.82C11.9166 2.03962 11.5399 1.03743 11.5402 0H8.45016V12.4C8.42632 13.071 8.14303 13.7066 7.65992 14.1729C7.17682 14.6393 6.5316 14.8999 5.86016 14.9C4.44016 14.9 3.26016 13.74 3.26016 12.3C3.26016 10.58 4.92016 9.29 6.63016 9.82V6.66C3.18016 6.2 0.160156 8.88 0.160156 12.3C0.160156 15.63 2.92016 18 5.85016 18C8.99016 18 11.5402 15.45 11.5402 12.3V6.01C12.7932 6.90985 14.2975 7.39265 15.8402 7.39V4.3C15.8402 4.3 13.9602 4.39 12.6002 2.82Z" fill="#008E7E"/>
</svg>
