<svg width="24" height="24" viewBox="0 0 24 24" fill="none" xmlns="http://www.w3.org/2000/svg">
<path d="M11.04 14.514L9.38159 16.5324C9.32715 16.5984 9.2891 16.6763 9.27056 16.7597C9.25203 16.8432 9.25354 16.9299 9.27496 17.0126C9.29639 17.0954 9.33712 17.1719 9.39383 17.2359C9.45053 17.2999 9.5216 17.3496 9.60119 17.3808L11.2224 18.018C11.3033 18.0499 11.3908 18.0618 11.4773 18.0526C11.5638 18.0435 11.6469 18.0137 11.7194 17.9656C11.792 17.9176 11.8518 17.8528 11.894 17.7767C11.9362 17.7005 11.9593 17.6154 11.9616 17.5284L12.0324 14.8848C12.0356 14.768 12.0023 14.6531 11.937 14.5561C11.8716 14.4592 11.7776 14.3851 11.6681 14.3442C11.5586 14.3034 11.4391 14.2978 11.3262 14.3282C11.2134 14.3587 11.1129 14.4236 11.0388 14.514H11.04ZM10.764 12.5076L8.30399 11.6244C8.22369 11.5956 8.13771 11.5862 8.05308 11.597C7.96845 11.6077 7.88756 11.6384 7.81701 11.6863C7.74646 11.7343 7.68825 11.7983 7.64713 11.873C7.60601 11.9478 7.58314 12.0312 7.58039 12.1164L7.52519 13.8576C7.51319 14.2332 7.87799 14.5056 8.23439 14.3892L10.7484 13.5672C10.8592 13.5309 10.956 13.4608 11.0251 13.3668C11.0943 13.2729 11.1324 13.1596 11.1341 13.043C11.1358 12.9263 11.1011 12.8121 11.0347 12.7161C10.9684 12.6201 10.8737 12.5472 10.764 12.5076ZM13.5816 12.7908L16.1004 12.096C16.1827 12.0734 16.2586 12.0316 16.3217 11.974C16.3848 11.9164 16.4333 11.8447 16.4634 11.7648C16.4935 11.6849 16.5042 11.5989 16.4947 11.5141C16.4852 11.4292 16.4558 11.3477 16.4088 11.2764L15.4524 9.82083C15.4046 9.74783 15.3399 9.68747 15.2637 9.6449C15.1875 9.60232 15.1022 9.57879 15.015 9.57632C14.9278 9.57384 14.8412 9.59249 14.7628 9.63068C14.6843 9.66887 14.6163 9.72546 14.5644 9.79563L12.984 11.916C12.9144 12.0096 12.8758 12.1226 12.8735 12.2391C12.8712 12.3557 12.9053 12.4701 12.9711 12.5664C13.0368 12.6627 13.131 12.736 13.2404 12.7762C13.3499 12.8165 13.4691 12.8216 13.5816 12.7908ZM11.7576 6.73923C11.7623 6.638 11.7431 6.53708 11.7013 6.44472C11.6596 6.35237 11.5966 6.27122 11.5174 6.20789C11.4383 6.14457 11.3453 6.10088 11.2461 6.08039C11.1468 6.05991 11.0441 6.06321 10.9464 6.09003L8.95319 6.63363C8.85343 6.66073 8.76169 6.71152 8.68577 6.78167C8.60984 6.85183 8.55199 6.93929 8.51711 7.0366C8.48224 7.13392 8.47138 7.23822 8.48546 7.34063C8.49954 7.44304 8.53815 7.54054 8.59799 7.62483L10.884 11.5872C10.9023 11.6199 10.9236 11.6508 10.9476 11.6796C11.024 11.7678 11.1223 11.8343 11.2325 11.8725C11.3427 11.9107 11.461 11.9193 11.5756 11.8974C11.6902 11.8756 11.797 11.824 11.8854 11.7479C11.9738 11.6717 12.0406 11.5737 12.0792 11.4636C12.1062 11.3796 12.116 11.2911 12.108 11.2032L11.7564 6.73923H11.7576ZM16.1172 14.6016L13.5888 13.8252C13.477 13.7906 13.3573 13.7918 13.2463 13.8287C13.1352 13.8656 13.0385 13.9363 12.9697 14.0309C12.9009 14.1255 12.8635 14.2393 12.8626 14.3563C12.8617 14.4733 12.8974 14.5876 12.9648 14.6832L14.4648 16.8216C14.6772 17.1216 15.12 17.13 15.3408 16.836L16.3908 15.4464C16.4435 15.377 16.4786 15.2958 16.4932 15.2098C16.5078 15.1238 16.5013 15.0356 16.4745 14.9526C16.4476 14.8697 16.4011 14.7944 16.3389 14.7333C16.2767 14.6722 16.2006 14.627 16.1172 14.6016Z" fill="#008E7E"/>
<path d="M12 21.6C14.5461 21.6 16.9879 20.5886 18.7882 18.7882C20.5886 16.9879 21.6 14.5461 21.6 12C21.6 9.45392 20.5886 7.01212 18.7882 5.21178C16.9879 3.41143 14.5461 2.4 12 2.4C9.45392 2.4 7.01212 3.41143 5.21178 5.21178C3.41143 7.01212 2.4 9.45392 2.4 12C2.4 14.5461 3.41143 16.9879 5.21178 18.7882C7.01212 20.5886 9.45392 21.6 12 21.6ZM12 24C5.3724 24 0 18.6276 0 12C0 5.3724 5.3724 0 12 0C18.6276 0 24 5.3724 24 12C24 18.6276 18.6276 24 12 24Z" fill="#008E7E"/>
</svg>
