<svg width="48" height="28" viewBox="0 0 48 28" fill="none" xmlns="http://www.w3.org/2000/svg">
<path d="M46.7164 5.41329L25.5903 26.6278C25.3388 26.8797 25.0663 27.0576 24.7729 27.1617C24.4795 27.2674 24.1651 27.3203 23.8298 27.3203C23.4945 27.3203 23.1801 27.2674 22.8867 27.1617C22.5932 27.0576 22.3208 26.8797 22.0693 26.6278L0.880256 5.41329C0.293418 4.82575 0 4.09132 0 3.21C0 2.32868 0.314377 1.57327 0.943131 0.943758C1.57189 0.314245 2.30543 -0.000509262 3.14377 -0.000509262C3.98211 -0.000509262 4.71566 0.314245 5.34441 0.943758L23.8298 19.4514L42.3152 0.943758C42.902 0.356213 43.6246 0.0624409 44.4831 0.0624409C45.3432 0.0624409 46.0877 0.377197 46.7164 1.00671C47.3452 1.63622 47.6596 2.37065 47.6596 3.21C47.6596 4.04935 47.3452 4.78378 46.7164 5.41329Z" fill="#909090"/>
</svg>
