<svg width="62" height="70" viewBox="0 0 62 70" fill="none" xmlns="http://www.w3.org/2000/svg">
<path opacity="0.8" d="M35.2496 69.1498C24.9747 69.1498 9.34961 43.7123 9.34961 28.9049C9.34961 14.3565 20.938 2.5498 35.2496 2.5498C49.5612 2.5498 61.1496 14.3565 61.1496 28.9049C61.1496 43.7123 45.5245 69.1498 35.2496 69.1498Z" fill="#BBD532"/>
<path fill-rule="evenodd" clip-rule="evenodd" d="M25.9994 37.7002C28.9433 37.7002 31.7666 36.5308 33.8483 34.4491C35.93 32.3675 37.0994 29.5441 37.0994 26.6002C37.0994 23.6563 35.93 20.833 33.8483 18.7514C31.7666 16.6697 28.9433 15.5002 25.9994 15.5002C23.0555 15.5002 20.2322 16.6697 18.1505 18.7514C16.0689 20.833 14.8994 23.6563 14.8994 26.6002C14.8994 29.5441 16.0689 32.3675 18.1505 34.4491C20.2322 36.5308 23.0555 37.7002 25.9994 37.7002ZM25.9994 19.2002C27.962 19.2002 29.8442 19.9799 31.232 21.3677C32.6198 22.7554 33.3994 24.6376 33.3994 26.6002C33.3994 28.5628 32.6198 30.4451 31.232 31.8328C29.8442 33.2206 27.962 34.0002 25.9994 34.0002C24.0368 34.0002 22.1546 33.2206 20.7668 31.8328C19.3791 30.4451 18.5994 28.5628 18.5994 26.6002C18.5994 24.6376 19.3791 22.7554 20.7668 21.3677C22.1546 19.9799 24.0368 19.2002 25.9994 19.2002Z" fill="black"/>
<path fill-rule="evenodd" clip-rule="evenodd" d="M0.0996094 27.0553C0.0996094 41.8627 15.7247 67.3002 25.9996 67.3002C36.2745 67.3002 51.8996 41.8627 51.8996 27.0553C51.8996 12.5069 40.3112 0.700195 25.9996 0.700195C11.688 0.700195 0.0996094 12.5069 0.0996094 27.0553ZM48.1996 27.0553C48.1996 40.0793 33.7548 63.6002 25.9996 63.6002C18.2444 63.6002 3.79961 40.0793 3.79961 27.0553C3.79961 14.5382 13.7452 4.4002 25.9996 4.4002C38.254 4.4002 48.1996 14.5382 48.1996 27.0553Z" fill="black"/>
</svg>
