<svg width="24" height="18" viewBox="0 0 24 18" fill="none" xmlns="http://www.w3.org/2000/svg">
<path d="M12.0773 0H12.2108C13.4438 0.0048047 19.6917 0.0528519 21.3763 0.536525C21.8856 0.684139 22.3497 0.971866 22.7222 1.37095C23.0946 1.77004 23.3625 2.26651 23.499 2.81075C23.6505 3.41934 23.757 4.22493 23.829 5.05614L23.844 5.22271L23.877 5.63911L23.889 5.80568C23.9865 7.26951 23.9985 8.64045 24 8.93994V9.06006C23.9985 9.37076 23.985 10.8346 23.877 12.3593L23.865 12.5274L23.8515 12.694C23.7765 13.6101 23.6655 14.5198 23.499 15.1893C23.3629 15.7337 23.0952 16.2304 22.7227 16.6296C22.3501 17.0287 21.8858 17.3163 21.3763 17.4635C19.6362 17.9632 13.0223 17.9984 12.1058 18H11.8927C11.4292 18 9.51209 17.9904 7.50197 17.9167L7.24695 17.9071L7.11645 17.9007L6.85993 17.8895L6.60341 17.8783C4.93831 17.7998 3.35271 17.6733 2.62216 17.4619C2.11287 17.3148 1.6487 17.0275 1.27617 16.6286C0.903632 16.2298 0.63581 15.7334 0.499531 15.1893C0.333021 14.5214 0.222014 13.6101 0.147009 12.694L0.135008 12.5258L0.123008 12.3593C0.0489745 11.2741 0.0079503 10.1866 0 9.0985L0 8.9015C0.00300019 8.55717 0.0150009 7.3672 0.096006 6.05392L0.106507 5.88896L0.111007 5.80568L0.123008 5.63911L0.15601 5.22271L0.171011 5.05614C0.243015 4.22493 0.349522 3.41774 0.501031 2.81075C0.63708 2.26629 0.9048 1.76959 1.27735 1.37043C1.6499 0.971276 2.11419 0.683696 2.62366 0.536525C3.35421 0.328321 4.93981 0.200196 6.60491 0.120117L6.85993 0.108906L7.11795 0.0992973L7.24695 0.0944926L7.50347 0.0832817C8.93112 0.034233 10.3594 0.00700343 11.7877 0.00160164H12.0773V0ZM9.6006 5.14103V12.8574L15.8365 9.0008L9.6006 5.14103Z" fill="#008E7E"/>
</svg>
