<svg width="207" height="217" viewBox="0 0 207 217" fill="none" xmlns="http://www.w3.org/2000/svg">
<mask id="path-1-inside-1_1_8" fill="white">
<path d="M35.8211 168.13C37.9433 169.54 38.0974 173.376 36.1355 176.724C34.1879 180.056 30.9017 181.647 28.7653 180.252C26.6448 178.872 26.4747 175.022 28.4207 171.66C30.3524 168.313 33.6704 166.751 35.8211 168.13M47.2128 178.317C48.8382 180.316 47.6392 183.773 44.5603 186.093C41.4195 188.387 37.5904 188.66 35.9668 186.692C34.3272 184.71 35.5421 181.268 38.6528 178.975C41.7618 176.653 45.5909 176.38 47.2128 178.317M20.7449 167.834C23.2592 168.678 24.461 172.304 23.5437 175.927C22.504 179.526 19.7253 181.8 17.2269 180.97C14.7286 180.141 13.5285 176.545 14.5061 172.918C15.4838 169.292 18.3086 167.031 20.7449 167.834ZM49.4235 193.481C50.4923 195.813 48.5597 198.872 45.0647 200.247C41.5697 201.622 37.8626 200.829 36.7602 198.439C35.6578 196.048 37.6081 193.034 41.0695 191.6C44.5679 190.285 48.3051 191.076 49.4235 193.481ZM31.4077 208.271C30.1325 209.826 27.5039 210.456 25.5782 209.852C21.5583 208.608 20.6021 202.879 17.4315 200.044C14.2609 197.209 8.33018 196.979 6.79378 193.053C5.89848 190.848 6.65086 187.794 8.39634 186.259C10.8055 184.143 14.7969 185.419 18.0384 185.193C22.2933 184.956 27.6612 182.16 30.8636 185.024C34.0501 187.874 32.0213 193.541 32.1068 197.774C32.1375 201.299 33.6179 205.575 31.4077 208.271Z"/>
</mask>
<path d="M36.1355 176.724L35.2727 176.219L35.2721 176.22L36.1355 176.724ZM28.7653 180.252L29.3119 179.415L29.3108 179.414L28.7653 180.252ZM28.4207 171.66L29.2862 172.161L29.2867 172.16L28.4207 171.66ZM44.5603 186.093L45.1501 186.901L45.1562 186.896L45.1622 186.892L44.5603 186.093ZM35.9668 186.692L36.7381 186.056L36.7373 186.055L35.9668 186.692ZM38.6528 178.975L39.246 179.781L39.2513 179.777L38.6528 178.975ZM20.7449 167.834L21.0631 166.886L21.0579 166.884L20.7449 167.834ZM23.5437 175.927L24.5044 176.204L24.5091 176.188L24.5131 176.172L23.5437 175.927ZM49.4235 193.481L50.3325 193.064L50.3302 193.059L49.4235 193.481ZM41.0695 191.6L40.7177 190.664L40.7022 190.67L40.6868 190.676L41.0695 191.6ZM31.4077 208.271L32.1808 208.906L32.181 208.905L31.4077 208.271ZM25.5782 209.852L25.8776 208.898L25.8739 208.897L25.5782 209.852ZM6.79378 193.053L7.72506 192.689L7.72033 192.677L6.79378 193.053ZM8.39634 186.259L7.73629 185.508L7.73597 185.508L8.39634 186.259ZM18.0384 185.193L17.9828 184.194L17.9689 184.195L18.0384 185.193ZM32.1068 197.774L33.1068 197.766L33.1066 197.754L32.1068 197.774ZM35.2675 168.963C35.9713 169.431 36.4593 170.381 36.5105 171.738C36.5611 173.081 36.1685 174.69 35.2727 176.219L36.9983 177.23C38.0644 175.41 38.5756 173.428 38.5091 171.663C38.4431 169.913 37.793 168.24 36.3746 167.297L35.2675 168.963ZM35.2721 176.22C34.3811 177.744 33.2108 178.82 32.0882 179.359C30.964 179.899 29.9996 179.864 29.3119 179.415L28.2186 181.09C29.6673 182.035 31.4143 181.902 32.9541 181.162C34.4956 180.422 35.9423 179.036 36.9988 177.229L35.2721 176.22ZM29.3108 179.414C28.6152 178.961 28.1235 178.02 28.0672 176.658C28.0116 175.313 28.3976 173.696 29.2862 172.161L27.5552 171.159C26.4979 172.986 25.9959 174.975 26.0689 176.741C26.1412 178.489 26.7949 180.163 28.2197 181.09L29.3108 179.414ZM29.2867 172.16C30.1677 170.633 31.339 169.562 32.4678 169.026C33.5995 168.489 34.5818 168.523 35.2814 168.972L36.3608 167.288C34.9097 166.358 33.1577 166.484 31.6097 167.22C30.0589 167.956 28.6053 169.339 27.5546 171.16L29.2867 172.16ZM46.4371 178.948C46.9684 179.602 47.1113 180.574 46.7047 181.76C46.2985 182.945 45.3662 184.234 43.9584 185.295L45.1622 186.892C46.8333 185.632 48.0399 184.032 48.5966 182.409C49.1529 180.786 49.0826 179.031 47.9886 177.686L46.4371 178.948ZM43.9706 185.286C42.5331 186.335 40.9676 186.899 39.6245 186.993C38.2665 187.089 37.2746 186.706 36.7381 186.056L35.1954 187.329C36.2826 188.647 38.017 189.111 39.7647 188.988C41.5273 188.865 43.4467 188.145 45.1501 186.901L43.9706 185.286ZM36.7373 186.055C36.2056 185.412 36.0623 184.454 36.4724 183.28C36.8826 182.107 37.8236 180.829 39.246 179.781L38.0596 178.17C36.3713 179.414 35.1495 181.004 34.5845 182.62C34.0194 184.237 34.0884 185.99 35.1962 187.33L36.7373 186.055ZM39.2513 179.777C40.6708 178.716 42.2269 178.147 43.5655 178.046C44.9206 177.944 45.9125 178.322 46.446 178.959L47.9797 177.676C46.8913 176.375 45.1577 175.921 43.4155 176.052C41.6568 176.184 39.7439 176.912 38.0544 178.174L39.2513 179.777ZM20.4267 168.782C21.2994 169.075 22.0505 169.889 22.4848 171.161C22.9162 172.425 22.9903 174.038 22.5743 175.681L24.5131 176.172C25.0145 174.192 24.9463 172.181 24.3775 170.515C23.8117 168.858 22.7047 167.437 21.0631 166.886L20.4267 168.782ZM22.583 175.649C22.1104 177.285 21.2567 178.565 20.3055 179.33C19.3583 180.092 18.387 180.302 17.5421 180.021L16.9118 181.919C18.5652 182.468 20.2325 181.956 21.5591 180.888C22.8818 179.824 23.9373 178.168 24.5044 176.204L22.583 175.649ZM17.5421 180.021C16.6787 179.734 15.9344 178.932 15.5108 177.674C15.0899 176.424 15.0289 174.821 15.4717 173.179L13.5406 172.658C13.0057 174.642 13.056 176.65 13.6153 178.312C14.172 179.966 15.2768 181.376 16.9118 181.919L17.5421 180.021ZM15.4717 173.179C15.9136 171.54 16.7608 170.26 17.7082 169.492C18.6563 168.724 19.6234 168.517 20.432 168.784L21.0579 166.884C19.4301 166.348 17.7667 166.87 16.4489 167.938C15.1303 169.007 14.0763 170.671 13.5406 172.658L15.4717 173.179ZM48.5144 193.897C48.8692 194.671 48.7715 195.655 48.1134 196.683C47.4558 197.71 46.2784 198.694 44.6986 199.316L45.4308 201.177C47.346 200.424 48.8824 199.191 49.7977 197.762C50.7124 196.333 51.0467 194.622 50.3325 193.064L48.5144 193.897ZM44.6986 199.316C43.1158 199.939 41.5163 200.056 40.2269 199.777C38.9292 199.496 38.0493 198.846 37.6683 198.02L35.8521 198.857C36.5736 200.422 38.0984 201.363 39.8036 201.732C41.5171 202.103 43.5186 201.929 45.4308 201.177L44.6986 199.316ZM37.6683 198.02C37.2955 197.211 37.3956 196.223 38.0475 195.197C38.7021 194.166 39.8788 193.175 41.4522 192.524L40.6868 190.676C38.7987 191.458 37.2696 192.691 36.3593 194.124C35.4463 195.561 35.1225 197.275 35.8521 198.857L37.6683 198.02ZM41.4213 192.536C43.0077 191.94 44.6193 191.834 45.9232 192.122C47.2359 192.412 48.1286 193.068 48.5167 193.902L50.3302 193.059C49.6 191.489 48.0649 190.547 46.3548 190.169C44.6358 189.789 42.6297 189.945 40.7177 190.664L41.4213 192.536ZM30.6346 207.637C30.1625 208.213 29.3913 208.666 28.484 208.904C27.5788 209.14 26.6342 209.135 25.8776 208.898L25.2789 210.806C26.448 211.173 27.7805 211.155 28.9898 210.839C30.197 210.523 31.3776 209.885 32.1808 208.906L30.6346 207.637ZM25.8739 208.897C24.2675 208.4 23.1901 206.986 22.0492 205.039C21.513 204.124 20.9285 203.032 20.3242 202.067C19.7045 201.078 18.992 200.098 18.0981 199.299L16.7649 200.789C17.4563 201.408 18.0523 202.207 18.6292 203.129C19.2216 204.074 19.7218 205.023 20.3235 206.05C21.4583 207.987 22.869 210.06 25.2825 210.807L25.8739 208.897ZM18.0981 199.299C17.2004 198.496 16.1351 197.901 15.0728 197.402C14.0406 196.918 12.869 196.463 11.8993 196.041C9.82105 195.135 8.32886 194.232 7.72499 192.689L5.86257 193.418C6.79511 195.8 9.03649 196.975 11.1003 197.874C12.2017 198.354 13.2033 198.734 14.2229 199.213C15.2123 199.677 16.0774 200.175 16.7649 200.789L18.0981 199.299ZM7.72033 192.677C7.36626 191.805 7.32116 190.709 7.57735 189.638C7.83371 188.566 8.3686 187.615 9.05672 187.01L7.73597 185.508C6.6786 186.438 5.96456 187.783 5.63219 189.172C5.29964 190.563 5.326 192.096 5.86722 193.43L7.72033 192.677ZM9.05639 187.011C9.96647 186.211 11.2374 185.992 12.8899 186.017C13.7103 186.03 14.5461 186.099 15.4401 186.155C16.3126 186.21 17.2265 186.252 18.1079 186.191L17.9689 184.195C17.2295 184.247 16.4289 184.214 15.5662 184.159C14.7248 184.106 13.8044 184.031 12.9206 184.017C11.1647 183.99 9.23536 184.191 7.73629 185.508L9.05639 187.011ZM18.0939 186.191C19.2434 186.128 20.4438 185.893 21.5997 185.641C22.7819 185.384 23.9041 185.112 25.0065 184.933C27.236 184.569 28.9602 184.663 30.197 185.769L31.5302 184.279C29.5647 182.521 27.0037 182.581 24.6848 182.959C23.5131 183.15 22.2953 183.443 21.1743 183.687C20.027 183.937 18.9608 184.14 17.9828 184.195L18.0939 186.191ZM30.197 185.769C31.4324 186.874 31.7449 188.589 31.649 190.838C31.6017 191.946 31.4611 193.097 31.3305 194.288C31.2024 195.457 31.0842 196.664 31.107 197.794L33.1066 197.754C33.0867 196.768 33.19 195.679 33.3186 194.506C33.4448 193.355 33.5963 192.117 33.6472 190.923C33.7477 188.568 33.4813 186.024 31.5302 184.279L30.197 185.769ZM31.1068 197.783C31.115 198.724 31.2196 199.7 31.328 200.637C31.4384 201.592 31.5522 202.502 31.599 203.386C31.6934 205.171 31.4932 206.59 30.6343 207.637L32.181 208.905C33.5324 207.257 33.6972 205.19 33.5962 203.281C33.5453 202.318 33.4215 201.33 33.3147 200.407C33.2059 199.467 33.1139 198.587 33.1068 197.766L31.1068 197.783Z" fill="#20525C" mask="url(#path-1-inside-1_1_8)"/>
<mask id="path-3-inside-2_1_8" fill="white">
<path d="M117.241 105.392C119.561 106.446 120.325 110.208 118.923 113.826C117.532 117.426 114.541 119.521 112.21 118.485C109.896 117.46 109.114 113.687 110.499 110.057C111.872 106.445 114.898 104.374 117.241 105.392M130.112 113.632C132.036 115.345 131.404 118.949 128.734 121.731C126 124.496 122.263 125.377 120.347 123.693C118.412 121.998 119.062 118.406 121.767 115.647C124.466 112.858 128.202 111.977 130.112 113.632M102.311 107.505C104.928 107.937 106.693 111.325 106.365 115.048C105.913 118.767 103.532 121.455 100.934 121.034C98.3351 120.614 96.5767 117.255 96.9633 113.52C97.3498 109.784 99.7778 107.101 102.311 107.505ZM134.714 128.248C136.141 130.379 134.721 133.707 131.49 135.622C128.259 137.538 124.473 137.346 123.004 135.162C121.534 132.978 122.978 129.691 126.167 127.724C129.411 125.868 133.226 126.052 134.714 128.248ZM119.289 145.723C118.278 147.461 115.783 148.503 113.786 148.214C109.619 147.627 107.761 142.124 104.179 139.831C100.596 137.538 94.705 138.257 92.562 134.627C91.3263 132.593 91.5819 129.458 93.0601 127.664C95.1007 125.19 99.2446 125.814 102.409 125.073C106.571 124.161 111.424 120.544 115.043 122.861C118.643 125.165 117.544 131.084 118.304 135.249C118.897 138.724 121.04 142.709 119.289 145.723Z"/>
</mask>
<path d="M118.923 113.826L117.99 113.465L117.99 113.466L118.923 113.826ZM112.21 118.485L112.616 117.571L112.615 117.57L112.21 118.485ZM110.499 110.057L111.433 110.413L111.434 110.412L110.499 110.057ZM128.734 121.731L129.445 122.434L129.451 122.429L129.456 122.423L128.734 121.731ZM120.347 123.693L121.006 122.942L121.006 122.941L120.347 123.693ZM121.767 115.647L122.481 116.347L122.486 116.342L121.767 115.647ZM102.311 107.505L102.474 106.518L102.468 106.517L102.311 107.505ZM106.365 115.048L107.358 115.168L107.36 115.152L107.361 115.135L106.365 115.048ZM134.714 128.248L135.545 127.692L135.542 127.687L134.714 128.248ZM126.167 127.724L125.67 126.856L125.656 126.864L125.642 126.873L126.167 127.724ZM119.289 145.723L120.153 146.226L120.153 146.226L119.289 145.723ZM113.786 148.214L113.929 147.224L113.925 147.224L113.786 148.214ZM92.562 134.627L93.4232 134.119L93.4167 134.108L92.562 134.627ZM93.0601 127.664L92.2887 127.028L92.2884 127.029L93.0601 127.664ZM102.409 125.073L102.194 124.097L102.181 124.1L102.409 125.073ZM118.304 135.249L119.29 135.081L119.288 135.07L118.304 135.249ZM116.828 106.302C117.597 106.652 118.23 107.512 118.498 108.844C118.762 110.161 118.631 111.813 117.99 113.465L119.855 114.187C120.617 112.221 120.806 110.183 120.458 108.451C120.114 106.734 119.206 105.186 117.655 104.481L116.828 106.302ZM117.99 113.466C117.354 115.113 116.37 116.362 115.348 117.073C114.324 117.786 113.366 117.904 112.616 117.571L111.804 119.399C113.385 120.101 115.088 119.691 116.49 118.715C117.894 117.738 119.101 116.139 119.856 114.186L117.99 113.466ZM112.615 117.57C111.856 117.234 111.22 116.383 110.947 115.048C110.678 113.729 110.801 112.071 111.433 110.413L109.564 109.701C108.812 111.673 108.634 113.717 108.988 115.448C109.338 117.163 110.25 118.711 111.805 119.399L112.615 117.57ZM111.434 110.412C112.06 108.765 113.045 107.521 114.074 106.812C115.105 106.1 116.081 105.978 116.843 106.309L117.64 104.475C116.059 103.788 114.349 104.192 112.939 105.165C111.525 106.14 110.311 107.737 109.564 109.702L111.434 110.412ZM129.447 114.378C130.076 114.938 130.372 115.876 130.16 117.111C129.948 118.346 129.233 119.766 128.013 121.038L129.456 122.423C130.905 120.913 131.841 119.141 132.131 117.45C132.421 115.759 132.072 114.038 130.778 112.885L129.447 114.378ZM128.023 121.028C126.772 122.293 125.316 123.1 124.005 123.407C122.68 123.718 121.64 123.498 121.006 122.942L119.687 124.445C120.97 125.572 122.756 125.754 124.462 125.354C126.182 124.951 127.962 123.934 129.445 122.434L128.023 121.028ZM121.006 122.941C120.378 122.392 120.084 121.468 120.301 120.244C120.519 119.02 121.244 117.608 122.481 116.347L121.053 114.947C119.585 116.444 118.632 118.208 118.332 119.894C118.032 121.58 118.38 123.3 119.688 124.446L121.006 122.941ZM122.486 116.342C123.718 115.069 125.163 114.259 126.468 113.946C127.79 113.629 128.829 113.843 129.458 114.388L130.767 112.876C129.485 111.766 127.701 111.593 126.002 112.001C124.287 112.412 122.515 113.436 121.048 114.951L122.486 116.342ZM102.148 108.492C103.056 108.641 103.928 109.325 104.559 110.512C105.187 111.691 105.517 113.272 105.369 114.96L107.361 115.135C107.54 113.101 107.152 111.126 106.325 109.572C105.502 108.026 104.182 106.8 102.474 106.518L102.148 108.492ZM105.372 114.927C105.167 116.617 104.528 118.017 103.711 118.924C102.898 119.827 101.972 120.189 101.093 120.047L100.774 122.021C102.494 122.3 104.058 121.528 105.197 120.262C106.333 119.001 107.111 117.197 107.358 115.168L105.372 114.927ZM101.093 120.047C100.195 119.902 99.3327 119.229 98.7137 118.054C98.0988 116.887 97.7829 115.314 97.9579 113.623L95.9686 113.417C95.7571 115.461 96.1271 117.435 96.9443 118.986C97.7577 120.53 99.0735 121.746 100.774 122.021L101.093 120.047ZM97.9579 113.623C98.1327 111.934 98.7649 110.535 99.5777 109.626C100.391 108.717 101.313 108.358 102.154 108.492L102.468 106.517C100.776 106.248 99.2172 107.029 98.0866 108.293C96.9554 109.559 96.1804 111.37 95.9686 113.417L97.9579 113.623ZM133.883 128.804C134.357 129.512 134.417 130.499 133.931 131.618C133.446 132.737 132.441 133.897 130.98 134.762L132 136.483C133.771 135.433 135.091 133.971 135.766 132.414C136.441 130.858 136.498 129.116 135.545 127.692L133.883 128.804ZM130.98 134.762C129.517 135.63 127.957 136.001 126.64 135.931C125.314 135.861 124.341 135.359 123.833 134.604L122.174 135.721C123.136 137.15 124.791 137.836 126.534 137.928C128.284 138.021 130.233 137.53 132 136.483L130.98 134.762ZM123.833 134.604C123.336 133.866 123.278 132.874 123.757 131.757C124.239 130.635 125.243 129.469 126.692 128.575L125.642 126.873C123.903 127.946 122.59 129.408 121.92 130.967C121.248 132.532 121.201 134.275 122.174 135.721L123.833 134.604ZM126.663 128.592C128.134 127.75 129.709 127.389 131.042 127.465C132.384 127.542 133.37 128.047 133.886 128.809L135.542 127.687C134.57 126.254 132.905 125.568 131.156 125.468C129.399 125.368 127.443 125.842 125.67 126.856L126.663 128.592ZM118.424 145.221C118.05 145.864 117.361 146.435 116.503 146.814C115.647 147.192 114.714 147.338 113.929 147.224L113.643 149.204C114.855 149.379 116.168 149.149 117.311 148.643C118.453 148.139 119.516 147.321 120.153 146.226L118.424 145.221ZM113.925 147.224C112.26 146.989 110.971 145.766 109.534 144.026C108.859 143.208 108.108 142.222 107.357 141.367C106.588 140.489 105.728 139.635 104.718 138.989L103.64 140.673C104.421 141.173 105.137 141.868 105.853 142.685C106.589 143.524 107.234 144.381 107.992 145.299C109.421 147.03 111.145 148.852 113.646 149.204L113.925 147.224ZM104.718 138.989C103.704 138.34 102.557 137.922 101.429 137.6C100.332 137.286 99.1034 137.024 98.0788 136.762C95.8826 136.199 94.2654 135.545 93.4231 134.119L91.7009 135.136C93.0016 137.339 95.4016 138.14 97.5825 138.699C98.7463 138.997 99.7958 139.212 100.879 139.522C101.929 139.823 102.863 140.176 103.64 140.673L104.718 138.989ZM93.4167 134.108C92.928 133.303 92.7086 132.229 92.7906 131.13C92.8726 130.031 93.2491 129.008 93.8319 128.3L92.2884 127.029C91.3929 128.115 90.9025 129.556 90.7961 130.981C90.6897 132.407 90.9603 133.917 91.7073 135.146L93.4167 134.108ZM93.8316 128.301C94.6024 127.366 95.8221 126.947 97.4574 126.708C98.2693 126.59 99.1055 126.525 99.997 126.438C100.867 126.353 101.776 126.248 102.636 126.047L102.181 124.1C101.459 124.269 100.663 124.364 99.8031 124.447C98.964 124.529 98.0434 124.602 97.1688 124.729C95.431 124.983 93.5584 125.489 92.2887 127.028L93.8316 128.301ZM102.623 126.05C103.747 125.804 104.895 125.38 105.996 124.948C107.122 124.505 108.186 124.058 109.246 123.705C111.389 122.991 113.106 122.808 114.503 123.703L115.582 122.018C113.361 120.597 110.842 121.065 108.613 121.808C107.487 122.183 106.332 122.667 105.264 123.086C104.171 123.516 103.151 123.887 102.194 124.097L102.623 126.05ZM114.503 123.703C115.899 124.596 116.481 126.239 116.745 128.475C116.876 129.577 116.92 130.735 116.981 131.931C117.041 133.106 117.117 134.316 117.32 135.429L119.288 135.07C119.111 134.1 119.039 133.008 118.979 131.829C118.92 130.673 118.872 129.426 118.732 128.24C118.455 125.899 117.786 123.43 115.582 122.018L114.503 123.703ZM117.318 135.417C117.476 136.345 117.735 137.292 117.992 138.2C118.253 139.124 118.511 140.005 118.698 140.87C119.076 142.617 119.105 144.05 118.424 145.221L120.153 146.226C121.224 144.383 121.057 142.316 120.653 140.448C120.449 139.506 120.169 138.55 119.917 137.656C119.659 136.745 119.428 135.891 119.29 135.081L117.318 135.417Z" fill="#20525C" mask="url(#path-3-inside-2_1_8)"/>
<mask id="path-5-inside-3_1_8" fill="white">
<path d="M117.419 44.4731C119.732 45.5434 120.469 49.3107 119.041 52.9189C117.624 56.5091 114.619 58.5823 112.295 57.5299C109.989 56.4892 109.233 52.7102 110.644 49.0904C112.042 45.4885 115.083 43.4386 117.419 44.4731M130.232 52.8037C132.143 54.5305 131.485 58.1299 128.796 60.893C126.042 63.6389 122.3 64.4935 120.395 62.7962C118.472 61.0873 119.147 57.4995 121.872 54.7598C124.591 51.9905 128.333 51.1359 130.232 52.8037M102.474 46.4803C105.088 46.9307 106.829 50.331 106.475 54.0514C105.996 57.7674 103.597 60.4382 101.001 59.9994C98.4056 59.5606 96.671 56.1899 97.084 52.4569C97.4971 48.724 99.944 46.0585 102.474 46.4803ZM134.729 67.4523C136.141 69.5938 134.698 72.9117 131.454 74.8038C128.209 76.6959 124.425 76.4781 122.971 74.2837C121.516 72.0893 122.984 68.8126 126.186 66.8677C129.443 65.0347 133.257 65.2463 134.729 67.4523ZM119.181 84.8181C118.157 86.5486 115.656 87.5728 113.661 87.2695C109.498 86.6529 107.679 81.1374 104.113 78.8189C100.547 76.5003 94.6506 77.1777 92.5334 73.5328C91.3122 71.4899 91.5899 68.3571 93.0808 66.5738C95.1389 64.1143 99.2783 64.7668 102.447 64.0491C106.616 63.166 111.495 59.5839 115.097 61.9258C118.681 64.256 117.54 70.1666 118.27 74.3371C118.838 77.8159 120.954 81.8165 119.181 84.8181Z"/>
</mask>
<path d="M119.041 52.9189L118.111 52.5508L118.111 52.5519L119.041 52.9189ZM112.295 57.5299L112.708 56.6189L112.706 56.6184L112.295 57.5299ZM110.644 49.0904L111.576 49.4534L111.576 49.4523L110.644 49.0904ZM128.796 60.893L129.502 61.6011L129.508 61.5958L129.513 61.5904L128.796 60.893ZM120.395 62.7962L121.06 62.0496L121.059 62.0488L120.395 62.7962ZM121.872 54.7598L122.581 55.4649L122.586 55.4603L121.872 54.7598ZM102.474 46.4803L102.644 45.4948L102.639 45.4939L102.474 46.4803ZM106.475 54.0514L107.467 54.1791L107.469 54.1627L107.47 54.1461L106.475 54.0514ZM134.729 67.4523L135.564 66.9018L135.561 66.8973L134.729 67.4523ZM126.186 66.8677L125.696 65.9962L125.681 66.0044L125.667 66.013L126.186 66.8677ZM119.181 84.8181L120.041 85.327L120.042 85.3267L119.181 84.8181ZM113.661 87.2695L113.811 86.2808L113.807 86.2803L113.661 87.2695ZM92.5334 73.5328L93.3982 73.0305L93.3917 73.0197L92.5334 73.5328ZM93.0808 66.5738L92.3139 65.9321L92.3136 65.9324L93.0808 66.5738ZM102.447 64.0491L102.24 63.0707L102.227 63.0738L102.447 64.0491ZM118.27 74.3371L119.257 74.1759L119.255 74.1646L118.27 74.3371ZM116.999 45.3806C117.766 45.7355 118.393 46.6001 118.651 47.9339C118.906 49.253 118.763 50.9034 118.111 52.5509L119.971 53.2869C120.747 51.3262 120.95 49.2889 120.615 47.5546C120.282 45.8352 119.385 44.2809 117.839 43.5656L116.999 45.3806ZM118.111 52.5519C117.463 54.1945 116.47 55.4364 115.443 56.1406C114.414 56.8457 113.456 56.9577 112.708 56.6189L111.883 58.4408C113.459 59.1545 115.165 58.7561 116.574 57.7902C117.984 56.8233 119.203 55.2335 119.971 53.2859L118.111 52.5519ZM112.706 56.6184C111.95 56.277 111.32 55.4217 111.057 54.084C110.797 52.7631 110.932 51.1064 111.576 49.4534L109.712 48.7273C108.946 50.6942 108.753 52.7368 109.095 54.4705C109.433 56.1875 110.334 57.7421 111.884 58.4414L112.706 56.6184ZM111.576 49.4523C112.214 47.8096 113.208 46.5725 114.242 45.8703C115.278 45.1664 116.254 45.0509 117.014 45.3874L117.824 43.5588C116.248 42.8608 114.536 43.253 113.118 44.2159C111.698 45.1804 110.472 46.7692 109.712 48.7284L111.576 49.4523ZM129.561 53.5456C130.186 54.1102 130.475 55.0496 130.255 56.2835C130.034 57.5163 129.309 58.9322 128.08 60.1955L129.513 61.5904C130.972 60.0907 131.921 58.3253 132.223 56.636C132.526 54.9477 132.188 53.224 130.902 52.0617L129.561 53.5456ZM128.09 60.1848C126.83 61.4416 125.368 62.2375 124.055 62.5356C122.728 62.8371 121.689 62.6103 121.06 62.0496L119.729 63.5428C121.005 64.6793 122.79 64.874 124.498 64.486C126.221 64.0947 128.009 63.0903 129.502 61.6011L128.09 60.1848ZM121.059 62.0488C120.435 61.4945 120.148 60.5689 120.374 59.3466C120.6 58.1244 121.335 56.7177 122.581 55.4649L121.163 54.0546C119.684 55.5416 118.719 57.2986 118.407 58.9824C118.095 60.6662 118.431 62.3889 119.73 63.5436L121.059 62.0488ZM122.586 55.4603C123.827 54.1959 125.278 53.3956 126.585 53.0919C127.909 52.7845 128.947 53.0064 129.572 53.555L130.892 52.0524C129.617 50.9332 127.835 50.7485 126.133 51.1438C124.415 51.5427 122.636 52.5544 121.158 54.0592L122.586 55.4603ZM102.304 47.4657C103.212 47.6221 104.078 48.3122 104.701 49.5033C105.32 50.6864 105.64 52.2696 105.479 53.9567L107.47 54.1461C107.664 52.1128 107.29 50.1357 106.473 48.5759C105.661 47.0242 104.35 45.7889 102.644 45.4948L102.304 47.4657ZM105.483 53.9237C105.265 55.6128 104.617 57.0076 103.794 57.909C102.974 58.8066 102.046 59.1618 101.168 59.0134L100.835 60.9854C102.552 61.2758 104.122 60.515 105.27 59.2579C106.415 58.0045 107.206 56.206 107.467 54.1791L105.483 53.9237ZM101.168 59.0134C100.271 58.8618 99.413 58.1826 98.8024 57.0036C98.1957 55.8321 97.8909 54.2575 98.078 52.5669L96.0901 52.347C95.8641 54.3894 96.2202 56.3666 97.0264 57.9234C97.8288 59.4727 99.1359 60.6983 100.835 60.9854L101.168 59.0134ZM98.078 52.5669C98.2647 50.8795 98.9068 49.4856 99.7259 48.5823C100.546 47.6783 101.47 47.3267 102.31 47.4667L102.639 45.4939C100.948 45.2121 99.3839 45.9823 98.2444 47.2388C97.1043 48.4961 96.3164 50.3014 96.0901 52.347L98.078 52.5669ZM133.895 68.0028C134.363 68.7135 134.417 69.701 133.923 70.8171C133.43 71.9323 132.416 73.0847 130.95 73.94L131.958 75.6677C133.735 74.6308 135.066 73.1783 135.752 71.6261C136.438 70.0748 136.508 68.3326 135.564 66.9018L133.895 68.0028ZM130.95 73.94C129.481 74.7969 127.918 75.1572 126.601 75.078C125.276 74.9983 124.307 74.4896 123.804 73.7313L122.137 74.8361C123.089 76.2722 124.739 76.9696 126.481 77.0744C128.231 77.1797 130.182 76.7029 131.958 75.6677L130.95 73.94ZM123.804 73.7313C123.312 72.9892 123.261 71.9969 123.748 70.8834C124.238 69.7651 125.25 68.6064 126.705 67.7224L125.667 66.013C123.92 67.0739 122.597 68.5261 121.916 70.081C121.233 71.6406 121.175 73.3839 122.137 74.8361L123.804 73.7313ZM126.677 67.7392C128.154 66.908 129.73 66.5575 131.063 66.6433C132.404 66.7298 133.387 67.2417 133.898 68.0074L135.561 66.8973C134.6 65.4569 132.939 64.7601 131.191 64.6475C129.435 64.5343 127.476 64.9945 125.696 65.9962L126.677 67.7392ZM118.32 84.3091C117.941 84.9498 117.248 85.5161 116.388 85.8889C115.529 86.2608 114.595 86.4 113.811 86.2808L113.51 88.2581C114.722 88.4423 116.036 88.221 117.183 87.7241C118.328 87.228 119.397 86.417 120.041 85.327L118.32 84.3091ZM113.807 86.2803C112.144 86.0339 110.863 84.8017 109.439 83.0512C108.769 82.2286 108.025 81.238 107.28 80.3768C106.517 79.4936 105.663 78.6342 104.658 77.9805L103.568 79.6572C104.346 80.1628 105.057 80.8623 105.767 81.6846C106.497 82.5289 107.136 83.3904 107.887 84.3136C109.304 86.0547 111.015 87.8885 113.514 88.2587L113.807 86.2803ZM104.658 77.9805C103.648 77.324 102.505 76.8987 101.379 76.5679C100.285 76.2464 99.0577 75.976 98.0349 75.7063C95.8428 75.1282 94.2303 74.4631 93.3981 73.0305L91.6687 74.0351C92.9537 76.2474 95.348 77.0661 97.5249 77.6402C98.6866 77.9465 99.7345 78.1693 100.815 78.4868C101.864 78.7949 102.795 79.1544 103.568 79.6572L104.658 77.9805ZM93.3917 73.0197C92.9088 72.2118 92.697 71.1353 92.7867 70.0374C92.8766 68.9388 93.2603 67.9182 93.848 67.2152L92.3136 65.9324C91.4105 67.0127 90.9099 68.4501 90.7934 69.8744C90.6769 71.2995 90.9368 72.8109 91.6751 74.0459L93.3917 73.0197ZM93.8478 67.2156C94.6252 66.2865 95.8478 65.8757 97.4848 65.6488C98.2975 65.5361 99.1341 65.477 100.026 65.3964C100.897 65.3178 101.807 65.2196 102.668 65.0244L102.227 63.0738C101.504 63.2375 100.707 63.3268 99.8464 63.4045C99.0068 63.4804 98.0857 63.5464 97.2102 63.6677C95.4706 63.9089 93.5945 64.4017 92.3139 65.9321L93.8478 67.2156ZM102.655 65.0274C103.781 64.7889 104.931 64.3737 106.035 63.9487C107.165 63.514 108.232 63.0747 109.294 62.729C111.442 62.0298 113.161 61.8596 114.552 62.7641L115.642 61.0874C113.431 59.65 110.909 60.1 108.675 60.8272C107.546 61.1947 106.388 61.6701 105.317 62.0822C104.221 62.5041 103.198 62.8679 102.24 63.0708L102.655 65.0274ZM114.552 62.7641C115.941 63.6676 116.512 65.3144 116.76 67.5516C116.882 68.6546 116.919 69.813 116.971 71.01C117.023 72.1847 117.09 73.3956 117.285 74.5096L119.255 74.1646C119.085 73.1934 119.021 72.1015 118.969 70.9222C118.919 69.7652 118.879 68.5184 118.748 67.3311C118.488 64.9878 117.836 62.5142 115.642 61.0874L114.552 62.7641ZM117.283 74.4982C117.435 75.4267 117.687 76.3759 117.937 77.2853C118.192 78.2119 118.443 79.0944 118.625 79.9611C118.99 81.7105 119.009 83.1431 118.32 84.3095L120.042 85.3267C121.126 83.4915 120.973 81.423 120.582 79.552C120.385 78.6085 120.112 77.6509 119.866 76.7552C119.615 75.8423 119.39 74.9869 119.257 74.1759L117.283 74.4982Z" fill="#20525C" mask="url(#path-5-inside-3_1_8)"/>
<mask id="path-7-inside-4_1_8" fill="white">
<path d="M182.419 7.4731C184.732 8.54339 185.469 12.3107 184.041 15.9189C182.624 19.5091 179.619 21.5823 177.295 20.5299C174.989 19.4892 174.233 15.7102 175.644 12.0904C177.042 8.48845 180.083 6.43864 182.419 7.4731M195.232 15.8037C197.143 17.5305 196.485 21.1299 193.796 23.893C191.042 26.6389 187.3 27.4935 185.395 25.7962C183.472 24.0873 184.147 20.4995 186.872 17.7598C189.591 14.9905 193.333 14.1359 195.232 15.8037M167.474 9.48027C170.088 9.93071 171.829 13.331 171.475 17.0514C170.996 20.7674 168.597 23.4382 166.001 22.9994C163.406 22.5606 161.671 19.1899 162.084 15.4569C162.497 11.724 164.944 9.05853 167.474 9.48027ZM199.729 30.4523C201.141 32.5938 199.698 35.9117 196.454 37.8038C193.209 39.6959 189.425 39.4781 187.971 37.2837C186.516 35.0893 187.984 31.8126 191.186 29.8677C194.443 28.0347 198.257 28.2463 199.729 30.4523ZM184.181 47.8181C183.157 49.5486 180.656 50.5728 178.661 50.2695C174.498 49.6529 172.679 44.1374 169.113 41.8189C165.547 39.5003 159.651 40.1777 157.533 36.5328C156.312 34.4899 156.59 31.3571 158.081 29.5738C160.139 27.1143 164.278 27.7668 167.447 27.0491C171.616 26.166 176.495 22.5839 180.097 24.9258C183.681 27.256 182.54 33.1666 183.27 37.3371C183.838 40.8159 185.954 44.8165 184.181 47.8181Z"/>
</mask>
<path d="M184.041 15.9189L183.111 15.5508L183.111 15.5519L184.041 15.9189ZM177.295 20.5299L177.708 19.6189L177.706 19.6184L177.295 20.5299ZM175.644 12.0904L176.576 12.4534L176.576 12.4523L175.644 12.0904ZM193.796 23.893L194.502 24.6011L194.508 24.5958L194.513 24.5904L193.796 23.893ZM185.395 25.7962L186.06 25.0496L186.059 25.0488L185.395 25.7962ZM186.872 17.7598L187.581 18.4649L187.586 18.4603L186.872 17.7598ZM167.474 9.48027L167.644 8.49479L167.639 8.49388L167.474 9.48027ZM171.475 17.0514L172.467 17.1791L172.469 17.1627L172.47 17.1461L171.475 17.0514ZM199.729 30.4523L200.564 29.9018L200.561 29.8973L199.729 30.4523ZM191.186 29.8677L190.696 28.9962L190.681 29.0044L190.667 29.013L191.186 29.8677ZM184.181 47.8181L185.041 48.327L185.042 48.3267L184.181 47.8181ZM178.661 50.2695L178.811 49.2808L178.807 49.2803L178.661 50.2695ZM157.533 36.5328L158.398 36.0305L158.392 36.0197L157.533 36.5328ZM158.081 29.5738L157.314 28.9321L157.314 28.9324L158.081 29.5738ZM167.447 27.0491L167.24 26.0707L167.227 26.0738L167.447 27.0491ZM183.27 37.3371L184.257 37.1759L184.255 37.1646L183.27 37.3371ZM181.999 8.38062C182.766 8.73555 183.393 9.60007 183.651 10.9339C183.906 12.253 183.763 13.9034 183.111 15.5509L184.971 16.2869C185.747 14.3262 185.95 12.2889 185.615 10.5546C185.282 8.83524 184.385 7.28095 182.839 6.56559L181.999 8.38062ZM183.111 15.5519C182.463 17.1945 181.47 18.4364 180.443 19.1406C179.414 19.8457 178.456 19.9577 177.708 19.6189L176.883 21.4408C178.459 22.1545 180.165 21.7561 181.574 20.7902C182.984 19.8233 184.203 18.2335 184.971 16.2859L183.111 15.5519ZM177.706 19.6184C176.95 19.277 176.32 18.4217 176.057 17.084C175.797 15.7631 175.932 14.1064 176.576 12.4534L174.712 11.7273C173.946 13.6942 173.753 15.7368 174.095 17.4705C174.433 19.1875 175.334 20.7421 176.884 21.4414L177.706 19.6184ZM176.576 12.4523C177.214 10.8096 178.208 9.57251 179.242 8.87033C180.278 8.16644 181.254 8.05093 182.014 8.38745L182.824 6.55876C181.248 5.86081 179.536 6.25297 178.118 7.21585C176.698 8.18044 175.472 9.76919 174.712 11.7284L176.576 12.4523ZM194.561 16.5456C195.186 17.1102 195.475 18.0496 195.255 19.2835C195.034 20.5163 194.309 21.9322 193.08 23.1955L194.513 24.5904C195.972 23.0907 196.921 21.3253 197.223 19.636C197.526 17.9477 197.188 16.224 195.902 15.0617L194.561 16.5456ZM193.09 23.1848C191.83 24.4416 190.368 25.2375 189.055 25.5356C187.728 25.8371 186.689 25.6103 186.06 25.0496L184.729 26.5428C186.005 27.6793 187.79 27.874 189.498 27.486C191.221 27.0947 193.009 26.0903 194.502 24.6011L193.09 23.1848ZM186.059 25.0488C185.435 24.4945 185.148 23.5689 185.374 22.3466C185.6 21.1244 186.335 19.7177 187.581 18.4649L186.163 17.0546C184.684 18.5416 183.719 20.2986 183.407 21.9824C183.095 23.6662 183.431 25.3889 184.73 26.5436L186.059 25.0488ZM187.586 18.4603C188.827 17.1959 190.278 16.3956 191.585 16.0919C192.909 15.7845 193.947 16.0064 194.572 16.555L195.892 15.0524C194.617 13.9332 192.835 13.7485 191.133 14.1438C189.415 14.5427 187.636 15.5544 186.158 17.0592L187.586 18.4603ZM167.304 10.4657C168.212 10.6221 169.078 11.3122 169.701 12.5033C170.32 13.6864 170.64 15.2696 170.479 16.9567L172.47 17.1461C172.664 15.1128 172.29 13.1357 171.473 11.5759C170.661 10.0242 169.35 8.78889 167.644 8.4948L167.304 10.4657ZM170.483 16.9237C170.265 18.6128 169.617 20.0076 168.794 20.909C167.974 21.8066 167.046 22.1618 166.168 22.0134L165.835 23.9854C167.552 24.2758 169.122 23.515 170.27 22.2579C171.415 21.0045 172.206 19.206 172.467 17.1791L170.483 16.9237ZM166.168 22.0134C165.271 21.8618 164.413 21.1826 163.802 20.0036C163.196 18.8321 162.891 17.2575 163.078 15.5669L161.09 15.347C160.864 17.3894 161.22 19.3666 162.026 20.9234C162.829 22.4727 164.136 23.6983 165.835 23.9854L166.168 22.0134ZM163.078 15.5669C163.265 13.8795 163.907 12.4856 164.726 11.5823C165.546 10.6783 166.47 10.3267 167.31 10.4667L167.639 8.49388C165.948 8.2121 164.384 8.98232 163.244 10.2388C162.104 11.4961 161.316 13.3014 161.09 15.347L163.078 15.5669ZM198.895 31.0028C199.363 31.7135 199.417 32.701 198.923 33.8171C198.43 34.9323 197.416 36.0847 195.95 36.94L196.958 38.6677C198.735 37.6308 200.066 36.1783 200.752 34.6261C201.438 33.0748 201.508 31.3326 200.564 29.9018L198.895 31.0028ZM195.95 36.94C194.481 37.7969 192.918 38.1572 191.601 38.078C190.276 37.9983 189.307 37.4896 188.804 36.7313L187.137 37.8361C188.089 39.2722 189.739 39.9696 191.481 40.0744C193.231 40.1797 195.182 39.7029 196.958 38.6677L195.95 36.94ZM188.804 36.7313C188.312 35.9892 188.261 34.9969 188.748 33.8834C189.238 32.7651 190.25 31.6064 191.705 30.7224L190.667 29.013C188.92 30.0739 187.597 31.5261 186.916 33.081C186.233 34.6406 186.175 36.3839 187.137 37.8361L188.804 36.7313ZM191.677 30.7392C193.154 29.908 194.73 29.5575 196.063 29.6433C197.404 29.7298 198.387 30.2417 198.898 31.0074L200.561 29.8973C199.6 28.4569 197.939 27.7601 196.191 27.6475C194.435 27.5343 192.476 27.9945 190.696 28.9962L191.677 30.7392ZM183.32 47.3091C182.941 47.9498 182.248 48.5161 181.388 48.8889C180.529 49.2608 179.595 49.4 178.811 49.2808L178.51 51.2581C179.722 51.4423 181.036 51.221 182.183 50.7241C183.328 50.228 184.397 49.417 185.041 48.327L183.32 47.3091ZM178.807 49.2803C177.144 49.0339 175.863 47.8017 174.439 46.0512C173.769 45.2286 173.025 44.238 172.28 43.3768C171.517 42.4936 170.663 41.6342 169.658 40.9805L168.568 42.6572C169.346 43.1628 170.057 43.8623 170.767 44.6846C171.497 45.5289 172.136 46.3904 172.887 47.3136C174.304 49.0547 176.015 50.8885 178.514 51.2587L178.807 49.2803ZM169.658 40.9805C168.648 40.324 167.505 39.8987 166.379 39.5679C165.285 39.2464 164.058 38.976 163.035 38.7063C160.843 38.1282 159.23 37.4631 158.398 36.0305L156.669 37.0351C157.954 39.2474 160.348 40.0661 162.525 40.6402C163.687 40.9465 164.735 41.1693 165.815 41.4868C166.864 41.7949 167.795 42.1544 168.568 42.6572L169.658 40.9805ZM158.392 36.0197C157.909 35.2118 157.697 34.1353 157.787 33.0374C157.877 31.9388 158.26 30.9182 158.848 30.2152L157.314 28.9324C156.41 30.0127 155.91 31.4501 155.793 32.8744C155.677 34.2995 155.937 35.8109 156.675 37.0459L158.392 36.0197ZM158.848 30.2156C159.625 29.2865 160.848 28.8757 162.485 28.6488C163.298 28.5361 164.134 28.477 165.026 28.3964C165.897 28.3178 166.807 28.2196 167.668 28.0244L167.227 26.0738C166.504 26.2375 165.707 26.3268 164.846 26.4045C164.007 26.4804 163.086 26.5464 162.21 26.6677C160.471 26.9089 158.595 27.4017 157.314 28.9321L158.848 30.2156ZM167.655 28.0274C168.781 27.7889 169.931 27.3737 171.035 26.9487C172.165 26.514 173.232 26.0747 174.294 25.729C176.442 25.0298 178.161 24.8596 179.552 25.7641L180.642 24.0874C178.431 22.65 175.909 23.1 173.675 23.8272C172.546 24.1947 171.388 24.6701 170.317 25.0822C169.221 25.5041 168.198 25.8679 167.24 26.0708L167.655 28.0274ZM179.552 25.7641C180.941 26.6676 181.512 28.3144 181.76 30.5516C181.882 31.6546 181.919 32.813 181.971 34.01C182.023 35.1847 182.09 36.3956 182.285 37.5096L184.255 37.1646C184.085 36.1934 184.021 35.1015 183.969 33.9222C183.919 32.7652 183.879 31.5184 183.748 30.3311C183.488 27.9878 182.836 25.5142 180.642 24.0874L179.552 25.7641ZM182.283 37.4982C182.435 38.4267 182.687 39.3759 182.937 40.2853C183.192 41.2119 183.443 42.0944 183.625 42.9611C183.99 44.7105 184.009 46.1431 183.32 47.3095L185.042 48.3267C186.126 46.4915 185.973 44.423 185.582 42.552C185.385 41.6085 185.112 40.6509 184.866 39.7552C184.615 38.8423 184.39 37.9869 184.257 37.1759L182.283 37.4982Z" fill="#20525C" mask="url(#path-7-inside-4_1_8)"/>
<path d="M47.5386 150.61L47.5403 150.611C48.3396 151.027 49.3653 151.208 50.3762 151.127C51.3882 151.046 52.3357 150.706 53.0003 150.138C54.1766 149.13 54.6415 147.607 54.8644 145.802C54.9623 145.011 55.0112 144.19 55.0609 143.355C55.0676 143.243 55.0744 143.13 55.0812 143.017C55.1384 142.076 55.205 141.121 55.3562 140.224C55.5259 139.143 55.8443 138.005 56.1749 136.876C56.2218 136.716 56.2691 136.556 56.3162 136.396C56.6042 135.419 56.8895 134.452 57.1001 133.503C57.5936 131.279 57.6334 129.334 56.4621 127.842C55.2868 126.344 53.3929 125.951 51.1116 125.919C50.2458 125.907 49.3552 125.946 48.4514 125.985C48.1711 125.998 47.8895 126.01 47.6071 126.021C46.4284 126.066 45.2411 126.086 44.1418 125.953C43.2998 125.863 42.4359 125.67 41.59 125.464C41.3946 125.416 41.2005 125.368 41.0077 125.32C40.3541 125.158 39.714 124.999 39.08 124.876C37.4321 124.558 35.9812 124.518 34.7777 125.248M47.5386 150.61C45.8562 149.742 44.9893 147.986 44.2076 145.872C44.069 145.497 43.9316 145.107 43.7924 144.712C43.5507 144.026 43.3034 143.324 43.0343 142.657C42.6047 141.593 42.0953 140.554 41.3969 139.664C40.6969 138.772 39.7971 138.033 38.8548 137.367C38.2758 136.959 37.6553 136.561 37.0495 136.173C36.6835 135.939 36.3229 135.708 35.9799 135.48C34.0953 134.227 32.6115 132.977 32.2426 131.131C32.0193 130.083 32.1903 128.889 32.6627 127.804M32.6627 127.804C33.1352 126.718 33.8892 125.787 34.7776 125.248L32.6627 127.804ZM63.1169 119.959L63.1166 119.959C61.9195 121.367 60.4976 122.286 59.1861 122.651C57.8737 123.017 56.7304 122.821 55.9662 122.103L55.9657 122.103C55.2012 121.387 54.874 120.187 55.0697 118.74C55.2642 117.301 55.9718 115.69 57.1696 114.27L57.1699 114.269C58.3588 112.856 59.7825 111.941 61.1004 111.58C62.418 111.219 63.5743 111.418 64.3486 112.131C65.1127 112.863 65.4342 114.067 65.2339 115.508C65.0344 116.944 64.3209 118.546 63.1169 119.959ZM62.0235 129.822L62.0232 129.822C61.5007 128.899 61.5803 127.738 62.2469 126.552C62.9134 125.366 64.1462 124.208 65.804 123.388L65.8069 123.387C67.4652 122.553 69.1917 122.241 70.6321 122.386C72.079 122.533 73.168 123.128 73.6901 124.035C74.2054 124.965 74.1234 126.136 73.4605 127.332C72.7976 128.528 71.5744 129.698 69.9309 130.533C68.2591 131.351 66.5266 131.654 65.0841 131.501C63.6333 131.348 62.5443 130.745 62.0235 129.822ZM49.6606 109.278C50.6459 109.816 51.3036 110.914 51.5242 112.342C51.7438 113.765 51.5168 115.461 50.7869 117.083C49.998 118.683 48.8692 119.875 47.6962 120.519C46.5236 121.162 45.346 121.243 44.3759 120.717C43.3973 120.187 42.7425 119.102 42.5301 117.685C42.3182 116.273 42.5588 114.585 43.3196 112.966C44.0796 111.348 45.2053 110.15 46.3768 109.502C47.5484 108.854 48.7215 108.772 49.6606 109.278ZM73.1667 139.232C73.4342 140.264 73.0758 141.384 72.1678 142.368C71.2598 143.352 69.8291 144.161 68.0767 144.514C66.3226 144.868 64.6258 144.7 63.3047 144.159C61.9797 143.616 61.081 142.722 60.7989 141.645C60.5192 140.578 60.8774 139.453 61.7809 138.467C62.6848 137.481 64.111 136.668 65.8535 136.282C67.6023 135.959 69.3037 136.142 70.6332 136.693C71.9684 137.247 72.878 138.147 73.1667 139.232Z" stroke="#20525C"/>
</svg>
