<svg width="264" height="199" viewBox="0 0 264 199" fill="none" xmlns="http://www.w3.org/2000/svg">
<path d="M18.9535 142.526C-2.91008 127.719 5.44081 98.6251 20.4058 90.517C5.75667 72.1675 26.1656 55.7118 37.2914 57.0598C35.7702 35.0896 75.1034 33.7175 87.7318 44.9668C86.0031 19.9998 131.075 20.9116 144.846 42.3707C172.439 19.7194 210.52 34.3776 199.007 57.0597C208.49 46.5085 212.923 43.2255 219.061 55.1552C233.481 45.8335 261.185 56.5919 250.042 84.6037C263.299 87.1171 259.827 116.764 252.323 117.551C263.731 133.436 238.622 160.163 228.036 150.712C229.589 173.134 202.285 180.07 186.009 169.204C173.159 190.167 143.369 184.743 139.122 170.603C127.391 185.991 119.663 184.406 105.05 174.178C80.8714 195.083 32.9174 178.152 41.9449 159.676C25.6141 165.741 13.5528 150.413 18.9535 142.526Z" fill="white"/>
<path d="M198.081 59.6704C209.594 36.9882 172.254 19.8114 144.661 42.4628C130.89 21.0036 86.0031 20.4333 87.7318 45.4003C81.1848 39.5684 63.41 32.1638 53.3557 35.8321M232.704 51.9475C245.663 52.9498 258.159 64.1997 250.042 84.6044C263.299 87.1178 259.827 116.765 252.323 117.552C260.144 128.443 250.8 144.43 240.741 150.361M18.7752 66.9665C14.4432 73.1604 13.2994 81.6162 20.4058 90.5177C5.44085 98.6258 -2.91004 127.72 18.9535 142.526C15.7352 147.226 17.3851 153.958 23.7768 157.841M49.9457 176.953C63.5745 185.369 89.3346 187.766 105.05 174.179C119.663 184.407 127.391 185.992 139.122 170.604C143.369 184.743 173.159 190.168 186.009 169.205C195.506 175.545 208.758 175.824 217.841 170.502" stroke="black" stroke-width="2" stroke-linecap="round" stroke-linejoin="round"/>
<path d="M203.059 37.2925L216.592 7.07866M216.617 36.7145L235.754 10.819M220.24 51.1143L243.123 31.6535" stroke="black" stroke-width="2" stroke-linecap="round" stroke-linejoin="round"/>
<path d="M55.4982 160.424L41.9651 190.638M41.9402 161.002L22.804 186.897M38.3173 146.602L15.4348 166.063" stroke="black" stroke-width="2" stroke-linecap="round" stroke-linejoin="round"/>
<path d="M55.6035 52.7635L38.1118 25.8049M42.1616 55.0184L19.7413 33.4832M40.5705 69.9652L15.3427 55.5524" stroke="black" stroke-width="2" stroke-linecap="round" stroke-linejoin="round"/>
<path d="M211.56 160.092L229.051 187.051M225.002 157.837L247.422 179.372M226.593 142.89L251.82 157.303" stroke="black" stroke-width="2" stroke-linecap="round" stroke-linejoin="round"/>
</svg>
