<svg width="201" height="137" viewBox="0 0 201 137" fill="none" xmlns="http://www.w3.org/2000/svg">
<path fill-rule="evenodd" clip-rule="evenodd" d="M126.362 122.922C124.176 114.837 106.772 117.308 113.652 116.131C128.792 114.605 147.43 132.148 118.016 136.445C69.2522 141.136 65.7449 114.573 69.5142 114.252C72.8476 136.874 129.455 137.578 126.362 122.922Z" fill="white"/>
<path d="M0 78.1413C0 76.1179 1.38196 74.3013 3.83699 74.3013H16.4228C18.5911 74.3013 19.7194 75.9768 19.7194 77.6958C19.7194 79.3689 18.637 81.0858 16.4228 81.0858H7.37864V88.2721H14.9984C17.3598 88.2721 18.538 89.9428 18.538 91.6101C18.538 93.3394 17.3598 95.0642 14.9984 95.0642H7.37864V105.787C7.37864 108.243 5.79991 109.619 3.68776 109.619C1.5711 109.619 0 108.243 0 105.787V78.1413Z" fill="white"/>
<path d="M23.9991 86.7954C23.9991 84.438 25.4737 82.8618 27.5372 82.8618C29.6036 82.8618 31.0806 84.438 31.0806 86.7954V105.685C31.0806 108.047 29.6036 109.619 27.5372 109.619C25.4716 109.619 23.9991 108.047 23.9991 105.685V86.7954ZM31.5232 76.1178C31.5232 78.3342 29.7525 80.2024 27.5372 80.2024C25.4275 80.2024 23.5576 78.2829 23.5576 76.1178C23.5576 74.1045 25.4275 72.2329 27.5372 72.2329C29.6557 72.2329 31.5232 74.0525 31.5232 76.1178Z" fill="white"/>
<path d="M44.6082 95.607L38.6035 88.8627C38.0146 88.1765 37.5218 87.1916 37.5218 86.3062C37.5218 84.438 39.3424 82.8618 41.164 82.8618C42.293 82.8618 43.0343 83.3544 43.7669 84.2367L48.7381 90.442L53.6981 84.2367C54.4454 83.3544 55.1804 82.8618 56.3073 82.8618C58.1299 82.8618 59.9458 84.438 59.9458 86.3062C59.9458 87.1916 59.454 88.1765 58.8671 88.8627L52.8666 95.607L60.0485 103.771C60.5905 104.354 61.0313 105.388 61.0313 106.178C61.0313 108.243 59.6039 109.619 57.54 109.619C55.9633 109.619 55.3289 108.929 54.5894 108.047L48.7381 100.865L42.8819 108.047C42.1508 108.929 41.5045 109.619 39.9348 109.619C37.865 109.619 36.4414 108.243 36.4414 106.178C36.4414 105.388 36.8815 104.354 37.4256 103.771L44.6082 95.607Z" fill="white"/>
<path d="M71.6572 107.311C71.6572 108.734 70.8225 109.619 69.486 109.619C68.162 109.619 67.3291 108.734 67.3291 107.311V76.5596C67.3291 74.8445 67.9139 74.0033 69.2959 74.0033C70.5741 74.0033 71.1612 74.5507 72.344 76.271L90.0451 101.705H90.1464V76.3184C90.1464 74.8943 90.9816 74.0033 92.3098 74.0033C93.6407 74.0033 94.4723 74.8943 94.4723 76.3184V107.065C94.4723 108.783 93.885 109.619 92.507 109.619C91.2303 109.619 90.6368 109.079 89.4579 107.361L71.7557 81.9275H71.6572V107.311Z" fill="white"/>
<path d="M110.064 105.881C115.376 105.881 117.246 100.668 117.246 96.2416C117.246 91.8176 115.376 86.6044 110.064 86.6044C104.754 86.6044 102.883 91.8176 102.883 96.2416C102.883 100.668 104.754 105.881 110.064 105.881ZM121.331 107.501C121.331 109.03 120.145 109.619 119.31 109.619C118.425 109.619 117.293 109.03 117.293 107.501V105.685H117.195C115.326 108.342 112.87 109.619 110.064 109.619C102.689 109.619 98.5605 103.179 98.5605 96.2416C98.5605 89.3023 102.689 82.8618 110.064 82.8618C113.068 82.8618 115.183 84.1422 117.195 86.3498H117.293V84.9736C117.293 83.4479 118.425 82.8618 119.31 82.8618C120.145 82.8618 121.331 83.4479 121.331 84.9736V107.501Z" fill="white"/>
<path d="M128.901 77.4987C128.901 76.0763 129.737 75.185 131.068 75.185C132.392 75.185 133.23 76.0763 133.23 77.4987V83.1573H135.002C136.423 83.1573 137.164 83.8453 137.164 85.0255C137.164 86.204 136.423 86.8933 135.002 86.8933H133.23V107.311C133.23 108.734 132.392 109.619 131.068 109.619C129.737 109.619 128.901 108.734 128.901 107.311V86.8933H127.129C125.704 86.8933 124.969 86.204 124.969 85.0255C124.969 83.8453 125.704 83.1573 127.129 83.1573H128.901V77.4987Z" fill="white"/>
<path d="M146.114 107.311C146.114 108.734 145.281 109.619 143.955 109.619C142.62 109.619 141.789 108.734 141.789 107.311V85.1717C141.789 83.7486 142.62 82.8618 143.955 82.8618C145.281 82.8618 146.114 83.7486 146.114 85.1717V107.311ZM143.955 74.0033C145.43 74.0033 146.603 75.185 146.603 76.661C146.603 78.1413 145.43 79.3191 143.955 79.3191C142.477 79.3191 141.291 78.1413 141.291 76.661C141.291 75.185 142.477 74.0033 143.955 74.0033Z" fill="white"/>
<path d="M163.673 105.881C168.986 105.881 170.854 100.668 170.854 96.2416C170.854 91.8176 168.986 86.6044 163.673 86.6044C158.362 86.6044 156.49 91.8176 156.49 96.2416C156.49 100.668 158.362 105.881 163.673 105.881ZM163.673 82.8618C171.049 82.8618 175.183 89.3023 175.183 96.2416C175.183 103.179 171.049 109.619 163.673 109.619C156.293 109.619 152.163 103.179 152.163 96.2416C152.163 89.3023 156.293 82.8618 163.673 82.8618Z" fill="white"/>
<path d="M180.244 85.1717C180.244 83.7486 181.086 82.8618 182.405 82.8618C183.737 82.8618 184.574 83.7486 184.574 85.1717V86.204L184.676 86.3062C186.592 83.8453 189.297 82.8618 191.904 82.8618C195.936 82.8618 201 85.4148 201 92.8028V107.311C201 108.734 200.163 109.619 198.838 109.619C197.508 109.619 196.673 108.734 196.673 107.311V93.0439C196.673 88.4667 193.478 86.6044 190.627 86.6044C187.774 86.6044 184.574 88.4667 184.574 93.0439V107.311C184.574 108.734 183.737 109.619 182.405 109.619C181.086 109.619 180.244 108.734 180.244 107.311V85.1717Z" fill="white"/>
<path fill-rule="evenodd" clip-rule="evenodd" d="M126.427 122.419C124.243 114.334 106.833 116.792 113.72 115.627C128.862 114.092 147.493 131.638 118.082 135.937C69.3158 140.629 65.8077 114.066 69.5816 113.745C72.914 136.369 129.521 137.069 126.427 122.419Z" fill="white"/>
<path fill-rule="evenodd" clip-rule="evenodd" d="M117.338 26.7527C123.528 44.5581 114.293 47.1804 107.835 52.8569C111.435 49.6901 117.269 40.822 117.338 26.7527Z" fill="white"/>
<path fill-rule="evenodd" clip-rule="evenodd" d="M86.1361 44.7453C83.8522 43.7166 70.3314 51.2404 69.1826 70.1748C75.265 67.5417 74.936 55.7906 86.1361 44.7453Z" fill="white"/>
<path fill-rule="evenodd" clip-rule="evenodd" d="M119.975 17.7389C124.993 9.06053 119.282 2.4121 118.211 0.903627C106.05 8.37858 92.5922 14.1881 91.4656 1.59977C91.0863 -2.57534 84.5607 1.98376 83.0791 8.78385C82.4531 11.6873 83.7001 13.8254 83.7001 13.8254C83.7001 13.8254 84.5705 9.59262 85.6814 7.96443C86.8253 6.28126 88.2707 5.3102 88.2707 5.3102C88.2707 5.3102 89.3449 11.9764 96.5609 13.3713C105.996 15.1999 111.975 9.71589 116.901 5.9762C122.358 13.8254 115.428 24.5886 119.975 17.7389Z" fill="white"/>
<path fill-rule="evenodd" clip-rule="evenodd" d="M87.4809 14.6274C80.6764 26.3253 75.2197 39.5007 103.331 42.8396C86.2201 48.603 64.7633 34.124 87.4809 14.6274Z" fill="white"/>
</svg>
