<svg width="74" height="49" viewBox="0 0 74 49" fill="none" xmlns="http://www.w3.org/2000/svg">
<path fill-rule="evenodd" clip-rule="evenodd" d="M46.4538 43.1888C45.6559 40.356 39.3048 41.2216 41.8156 40.8093C47.3405 40.2745 54.1419 46.421 43.4081 47.9265C25.613 49.5703 24.3331 40.2634 25.7087 40.151C26.9251 48.0771 47.5824 48.3235 46.4538 43.1888Z" fill="#008E7E"/>
<path d="M0.341797 27.499C0.341797 26.7901 0.846102 26.1536 1.742 26.1536H6.33483C7.12611 26.1536 7.53783 26.7407 7.53783 27.3429C7.53783 27.9291 7.14284 28.5307 6.33483 28.5307H3.03442V31.0485H5.81505C6.67678 31.0485 7.10672 31.6339 7.10672 32.218C7.10672 32.8239 6.67678 33.4282 5.81505 33.4282H3.03442V37.1852C3.03442 38.0456 2.45831 38.5276 1.68754 38.5276C0.915124 38.5276 0.341797 38.0456 0.341797 37.1852V27.499Z" fill="#008E7E"/>
<path d="M9.09958 30.5311C9.09958 29.7052 9.63771 29.1529 10.3907 29.1529C11.1448 29.1529 11.6838 29.7052 11.6838 30.5311V37.1495C11.6838 37.9769 11.1448 38.5276 10.3907 38.5276C9.63693 38.5276 9.09958 37.9769 9.09958 37.1495V30.5311ZM11.8453 26.7901C11.8453 27.5666 11.1991 28.2212 10.3907 28.2212C9.62085 28.2212 8.93848 27.5486 8.93848 26.7901C8.93848 26.0847 9.62085 25.4289 10.3907 25.4289C11.1638 25.4289 11.8453 26.0665 11.8453 26.7901Z" fill="#008E7E"/>
<path d="M16.6199 33.6184L14.4287 31.2554C14.2137 31.015 14.0339 30.6699 14.0339 30.3597C14.0339 29.7052 14.6983 29.1529 15.363 29.1529C15.775 29.1529 16.0455 29.3255 16.3129 29.6346L18.127 31.8088L19.937 29.6346C20.2097 29.3255 20.4779 29.1529 20.8891 29.1529C21.5543 29.1529 22.2169 29.7052 22.2169 30.3597C22.2169 30.6699 22.0374 31.015 21.8233 31.2554L19.6336 33.6184L22.2544 36.4787C22.4522 36.6831 22.613 37.0452 22.613 37.322C22.613 38.0456 22.0921 38.5276 21.339 38.5276C20.7636 38.5276 20.5321 38.286 20.2622 37.9769L18.127 35.4606L15.9899 37.9769C15.7231 38.286 15.4873 38.5276 14.9145 38.5276C14.1591 38.5276 13.6396 38.0456 13.6396 37.322C13.6396 37.0452 13.8002 36.6831 13.9988 36.4787L16.6199 33.6184Z" fill="#008E7E"/>
<path d="M26.4915 37.719C26.4915 38.2175 26.1869 38.5276 25.6992 38.5276C25.2161 38.5276 24.9121 38.2175 24.9121 37.719V26.9448C24.9121 26.3439 25.1255 26.0492 25.6298 26.0492C26.0963 26.0492 26.3105 26.241 26.7421 26.8437L33.2017 35.7548H33.2386V26.8604C33.2386 26.3614 33.5434 26.0492 34.0281 26.0492C34.5138 26.0492 34.8172 26.3614 34.8172 26.8604V37.6327C34.8172 38.2348 34.6029 38.5276 34.1001 38.5276C33.6342 38.5276 33.4176 38.3386 32.9874 37.7365L26.5275 28.8256H26.4915V37.719Z" fill="#008E7E"/>
<path d="M40.5065 37.2179C42.445 37.2179 43.1275 35.3915 43.1275 33.8407C43.1275 32.2907 42.445 30.4642 40.5065 30.4642C38.5687 30.4642 37.8859 32.2907 37.8859 33.8407C37.8859 35.3915 38.5687 37.2179 40.5065 37.2179ZM44.6179 37.7855C44.6179 38.3215 44.1851 38.5276 43.8806 38.5276C43.5577 38.5276 43.1447 38.3215 43.1447 37.7855V37.1495H43.1087C42.4265 38.0804 41.5304 38.5276 40.5065 38.5276C37.8152 38.5276 36.3086 36.2714 36.3086 33.8407C36.3086 31.4094 37.8152 29.1529 40.5065 29.1529C41.6027 29.1529 42.3746 29.6015 43.1087 30.375H43.1447V29.8928C43.1447 29.3583 43.5577 29.1529 43.8806 29.1529C44.1851 29.1529 44.6179 29.3583 44.6179 29.8928V37.7855Z" fill="#008E7E"/>
<path d="M47.3803 27.2739C47.3803 26.7755 47.6854 26.4632 48.171 26.4632C48.6541 26.4632 48.9602 26.7755 48.9602 27.2739V29.2565H49.6067C50.1251 29.2565 50.3958 29.4975 50.3958 29.911C50.3958 30.3239 50.1251 30.5654 49.6067 30.5654H48.9602V37.719C48.9602 38.2175 48.6541 38.5276 48.171 38.5276C47.6854 38.5276 47.3803 38.2175 47.3803 37.719V30.5654H46.7338C46.2138 30.5654 45.9453 30.3239 45.9453 29.911C45.9453 29.4975 46.2138 29.2565 46.7338 29.2565H47.3803V27.2739Z" fill="#008E7E"/>
<path d="M53.6622 37.719C53.6622 38.2175 53.3584 38.5276 52.8743 38.5276C52.3874 38.5276 52.0842 38.2175 52.0842 37.719V29.9622C52.0842 29.4636 52.3874 29.1529 52.8743 29.1529C53.3584 29.1529 53.6622 29.4636 53.6622 29.9622V37.719ZM52.8743 26.0492C53.4129 26.0492 53.8408 26.4632 53.8408 26.9804C53.8408 27.499 53.4129 27.9117 52.8743 27.9117C52.3352 27.9117 51.9023 27.499 51.9023 26.9804C51.9023 26.4632 52.3352 26.0492 52.8743 26.0492Z" fill="#008E7E"/>
<path d="M60.0693 37.2179C62.0081 37.2179 62.69 35.3915 62.69 33.8407C62.69 32.2907 62.0081 30.4642 60.0693 30.4642C58.1312 30.4642 57.4481 32.2907 57.4481 33.8407C57.4481 35.3915 58.1312 37.2179 60.0693 37.2179ZM60.0693 29.1529C62.761 29.1529 64.2695 31.4094 64.2695 33.8407C64.2695 36.2714 62.761 38.5276 60.0693 38.5276C57.3764 38.5276 55.8691 36.2714 55.8691 33.8407C55.8691 31.4094 57.3764 29.1529 60.0693 29.1529Z" fill="#008E7E"/>
<path d="M66.1172 29.9622C66.1172 29.4636 66.4245 29.1529 66.9057 29.1529C67.3917 29.1529 67.6974 29.4636 67.6974 29.9622V30.3239L67.7344 30.3597C68.4337 29.4975 69.4209 29.1529 70.3722 29.1529C71.8435 29.1529 73.6915 30.0474 73.6915 32.6359V37.719C73.6915 38.2175 73.3861 38.5276 72.9023 38.5276C72.4173 38.5276 72.1126 38.2175 72.1126 37.719V32.7204C72.1126 31.1167 70.9464 30.4642 69.906 30.4642C68.8649 30.4642 67.6974 31.1167 67.6974 32.7204V37.719C67.6974 38.2175 67.3917 38.5276 66.9057 38.5276C66.4245 38.5276 66.1172 38.2175 66.1172 37.719V29.9622Z" fill="#008E7E"/>
<path fill-rule="evenodd" clip-rule="evenodd" d="M46.478 43.0124C45.6811 40.1796 39.3278 41.0408 41.8407 40.6327C47.3666 40.0951 54.1654 46.2424 43.4326 47.7487C25.6368 49.3927 24.3566 40.0857 25.7338 39.9732C26.9498 47.9001 47.6069 48.1452 46.478 43.0124Z" fill="#008E7E"/>
<path fill-rule="evenodd" clip-rule="evenodd" d="M43.1612 9.49437C45.42 15.7328 42.0501 16.6515 39.6934 18.6404C41.0071 17.5308 43.1362 14.4238 43.1612 9.49437Z" fill="#008E7E"/>
<path fill-rule="evenodd" clip-rule="evenodd" d="M31.7746 15.7982C30.9411 15.4377 26.0071 18.0738 25.5879 24.7078C27.8075 23.7852 27.6874 19.668 31.7746 15.7982Z" fill="#008E7E"/>
<path fill-rule="evenodd" clip-rule="evenodd" d="M44.123 6.33616C45.9542 3.29557 43.8701 0.966187 43.4791 0.437672C39.0416 3.05663 34.1304 5.09208 33.7193 0.681577C33.5809 -0.781238 31.1995 0.816114 30.6589 3.19863C30.4304 4.21589 30.8855 4.965 30.8855 4.965C30.8855 4.965 31.2031 3.48199 31.6085 2.91153C32.0259 2.32181 32.5534 1.98158 32.5534 1.98158C32.5534 1.98158 32.9454 4.31718 35.5787 4.80592C39.0218 5.4466 41.2038 3.52518 43.0012 2.21492C44.9926 4.965 42.4637 8.73607 44.123 6.33616Z" fill="#008E7E"/>
<path fill-rule="evenodd" clip-rule="evenodd" d="M32.2656 5.24607C29.7825 9.34463 27.7913 13.9608 38.0496 15.1306C31.8056 17.1499 23.9755 12.077 32.2656 5.24607Z" fill="#008E7E"/>
</svg>
