<svg width="44" height="44" viewBox="0 0 44 44" fill="none" xmlns="http://www.w3.org/2000/svg">
<path d="M23.8334 27.4998H27.5C28.5084 27.4998 29.3719 27.1405 30.0905 26.4218C30.8092 25.7032 31.1679 24.8403 31.1667 23.8332V21.0832C31.1667 20.2887 30.907 19.6318 30.3875 19.1123C29.8681 18.5929 29.2111 18.3332 28.4167 18.3332C29.2111 18.3332 29.8681 18.0735 30.3875 17.554C30.907 17.0346 31.1667 16.3776 31.1667 15.5832V12.8332C31.1667 11.8248 30.8074 10.9613 30.0887 10.2427C29.37 9.52401 28.5071 9.16528 27.5 9.16651H23.8334C22.825 9.16651 21.9615 9.52584 21.2429 10.2445C20.5242 10.9632 20.1655 11.8261 20.1667 12.8332V15.5832C20.1667 16.3776 20.4264 17.0346 20.9459 17.554C21.4653 18.0735 22.1222 18.3332 22.9167 18.3332C22.1222 18.3332 21.4653 18.5929 20.9459 19.1123C20.4264 19.6318 20.1667 20.2887 20.1667 21.0832V23.8332C20.1667 24.8415 20.526 25.705 21.2447 26.4237C21.9634 27.1423 22.8262 27.5011 23.8334 27.4998ZM23.8334 12.8332H27.5V16.4998H23.8334V12.8332ZM23.8334 23.8332V20.1665H27.5V23.8332H23.8334ZM14.6667 32.9998C13.6584 32.9998 12.7949 32.6405 12.0762 31.9218C11.3575 31.2032 10.9988 30.3403 11 29.3332V7.33317C11 6.32484 11.3594 5.46134 12.078 4.74267C12.7967 4.02401 13.6596 3.66528 14.6667 3.66651H36.6667C37.675 3.66651 38.5385 4.02584 39.2572 4.74451C39.9759 5.46317 40.3346 6.32606 40.3334 7.33317V29.3332C40.3334 30.3415 39.974 31.205 39.2554 31.9237C38.5367 32.6423 37.6738 33.0011 36.6667 32.9998H14.6667ZM7.33336 40.3332C6.32502 40.3332 5.46152 39.9738 4.74286 39.2552C4.02419 38.5365 3.66547 37.6736 3.66669 36.6665V10.9998H7.33336V36.6665H33V40.3332H7.33336Z" fill="#F0F4F4"/>
</svg>
