<svg width="50" height="50" viewBox="0 0 50 50" fill="none" xmlns="http://www.w3.org/2000/svg">
<path d="M32.5 22.5V30C32.5 30.7083 32.74 31.3025 33.22 31.7825C33.7 32.2625 34.2933 32.5017 35 32.5C35.7083 32.5 36.3025 32.26 36.7825 31.78C37.2625 31.3 37.5017 30.7067 37.5 30V10C37.5 9.29167 37.26 8.6975 36.78 8.2175C36.3 7.7375 35.7067 7.49834 35 7.5C34.2917 7.5 33.6975 7.74 33.2175 8.22C32.7375 8.7 32.4983 9.29334 32.5 10V17.5H27.5V10C27.5 9.29167 27.26 8.6975 26.78 8.2175C26.3 7.7375 25.7067 7.49834 25 7.5C24.2917 7.5 23.6975 7.74 23.2175 8.22C22.7375 8.7 22.4983 9.29334 22.5 10V20C22.5 20.7083 22.74 21.3025 23.22 21.7825C23.7 22.2625 24.2933 22.5017 25 22.5H32.5ZM15 40C13.625 40 12.4475 39.51 11.4675 38.53C10.4875 37.55 9.99834 36.3733 10 35V5C10 3.625 10.49 2.4475 11.47 1.4675C12.45 0.487504 13.6267 -0.00166242 15 4.24448e-06H45C46.375 4.24448e-06 47.5525 0.490004 48.5325 1.47C49.5125 2.45 50.0017 3.62667 50 5V35C50 36.375 49.51 37.5525 48.53 38.5325C47.55 39.5125 46.3733 40.0017 45 40H15ZM5 50C3.625 50 2.4475 49.51 1.4675 48.53C0.487504 47.55 -0.00166242 46.3733 4.24448e-06 45V12.5C4.24448e-06 11.7917 0.240004 11.1975 0.720004 10.7175C1.2 10.2375 1.79334 9.99833 2.5 10C3.20834 10 3.8025 10.24 4.2825 10.72C4.7625 11.2 5.00167 11.7933 5 12.5V45H37.5C38.2083 45 38.8025 45.24 39.2825 45.72C39.7625 46.2 40.0017 46.7933 40 47.5C40 48.2083 39.76 48.8025 39.28 49.2825C38.8 49.7625 38.2067 50.0017 37.5 50H5Z" fill="#F0F4F4"/>
</svg>
