<svg width="43" height="43" viewBox="0 0 43 43" fill="none" xmlns="http://www.w3.org/2000/svg">
<path d="M25.4608 10.7057V25.4606C25.4608 26.0578 25.6631 26.5588 26.0678 26.9635C26.4725 27.3682 26.9728 27.5699 27.5686 27.5685C28.1658 27.5685 28.6668 27.3661 29.0715 26.9614C29.4762 26.5567 29.6779 26.0564 29.6765 25.4606V8.59788C29.6765 8.00066 29.4741 7.49969 29.0694 7.09499C28.6647 6.69028 28.1644 6.48863 27.5686 6.49004H23.3529C22.7557 6.49004 22.2547 6.69239 21.85 7.09709C21.4453 7.5018 21.2437 8.00206 21.2451 8.59788C21.2451 9.1951 21.4474 9.69606 21.8521 10.1008C22.2569 10.5055 22.7571 10.7071 23.3529 10.7057H25.4608ZM12.8137 33.892C11.6544 33.892 10.6616 33.4789 9.83534 32.6526C9.00906 31.8263 8.59663 30.8342 8.59803 29.6763V4.38219C8.59803 3.22288 9.01117 2.23009 9.83744 1.40381C10.6637 0.577537 11.6558 0.165102 12.8137 0.166507H38.1078C39.2671 0.166507 40.2599 0.579645 41.0862 1.40592C41.9125 2.23219 42.3249 3.22428 42.3235 4.38219V29.6763C42.3235 30.8356 41.9104 31.8284 41.0841 32.6547C40.2578 33.481 39.2657 33.8934 38.1078 33.892H12.8137ZM4.38235 42.3234C3.22303 42.3234 2.23024 41.9102 1.40396 41.084C0.577689 40.2577 0.165255 39.2656 0.16666 38.1077V10.7057C0.16666 10.1085 0.369013 9.60754 0.773719 9.20283C1.17842 8.79812 1.67869 8.59647 2.2745 8.59788C2.87173 8.59788 3.37269 8.80023 3.7774 9.20494C4.1821 9.60964 4.38375 10.1099 4.38235 10.7057V38.1077H31.7843C32.3815 38.1077 32.8825 38.31 33.2872 38.7147C33.6919 39.1194 33.8936 39.6197 33.8921 40.2155C33.8921 40.8127 33.6898 41.3137 33.2851 41.7184C32.8804 42.1231 32.3801 42.3248 31.7843 42.3234H4.38235Z" fill="#F0F4F4"/>
</svg>
