<svg width="44" height="44" viewBox="0 0 44 44" fill="none" xmlns="http://www.w3.org/2000/svg">
<path d="M27.5 12.8332L21.3584 25.1165C21.0834 25.6665 21.1066 26.2012 21.428 26.7207C21.7495 27.2401 22.2151 27.4998 22.825 27.4998C23.1611 27.4998 23.4514 27.4161 23.6959 27.2487C23.9403 27.0812 24.1389 26.8594 24.2917 26.5832L30.9834 13.1998C31.0445 13.0776 31.1056 12.8179 31.1667 12.4207V10.9998C31.1667 10.4804 30.9907 10.0453 30.6387 9.69451C30.2867 9.34373 29.8516 9.16773 29.3334 9.16651H22C21.4806 9.16651 21.0449 9.34251 20.6929 9.69451C20.3409 10.0465 20.1655 10.4816 20.1667 10.9998C20.1667 11.5193 20.3427 11.955 20.6947 12.307C21.0467 12.659 21.4818 12.8344 22 12.8332H27.5ZM14.6667 32.9998C13.6584 32.9998 12.7949 32.6405 12.0762 31.9218C11.3575 31.2032 10.9988 30.3403 11 29.3332V7.33317C11 6.32484 11.3594 5.46134 12.078 4.74267C12.7967 4.02401 13.6596 3.66528 14.6667 3.66651H36.6667C37.675 3.66651 38.5385 4.02584 39.2572 4.74451C39.9759 5.46317 40.3346 6.32606 40.3334 7.33317V29.3332C40.3334 30.3415 39.974 31.205 39.2554 31.9237C38.5367 32.6423 37.6738 33.0011 36.6667 32.9998H14.6667ZM7.33336 40.3332C6.32502 40.3332 5.46152 39.9738 4.74286 39.2552C4.02419 38.5365 3.66547 37.6736 3.66669 36.6665V12.8332C3.66669 12.3137 3.84269 11.878 4.19469 11.526C4.54669 11.174 4.9818 10.9986 5.50002 10.9998C6.01947 10.9998 6.45519 11.1758 6.80719 11.5278C7.15919 11.8798 7.33458 12.315 7.33336 12.8332V36.6665H31.1667C31.6861 36.6665 32.1219 36.8425 32.4739 37.1945C32.8259 37.5465 33.0012 37.9816 33 38.4998C33 39.0193 32.824 39.455 32.472 39.807C32.12 40.159 31.6849 40.3344 31.1667 40.3332H7.33336Z" fill="#F0F4F4"/>
</svg>
