<svg width="38" height="27" viewBox="0 0 38 27" fill="none" xmlns="http://www.w3.org/2000/svg">
<path d="M24.5 9.83317L18.3584 22.1165C18.0834 22.6665 18.1066 23.2012 18.428 23.7207C18.7495 24.2401 19.2151 24.4998 19.825 24.4998C20.1611 24.4998 20.4514 24.4161 20.6959 24.2487C20.9403 24.0812 21.1389 23.8594 21.2917 23.5832L27.9834 10.1998C28.0445 10.0776 28.1056 9.8179 28.1667 9.42067V7.99984C28.1667 7.4804 27.9907 7.04528 27.6387 6.69451C27.2867 6.34373 26.8516 6.16773 26.3334 6.16651H19C18.4806 6.16651 18.0449 6.34251 17.6929 6.69451C17.3409 7.04651 17.1655 7.48162 17.1667 7.99984C17.1667 8.51928 17.3427 8.95501 17.6947 9.30701C18.0467 9.65901 18.4818 9.8344 19 9.83317H24.5ZM11.6667 29.9998C10.6584 29.9998 9.79486 29.6405 9.07619 28.9218C8.35752 28.2032 7.9988 27.3403 8.00002 26.3332V4.33317C8.00002 3.32484 8.35936 2.46134 9.07802 1.74267C9.79669 1.02401 10.6596 0.665285 11.6667 0.666507H33.6667C34.675 0.666507 35.5385 1.02584 36.2572 1.74451C36.9759 2.46317 37.3346 3.32606 37.3334 4.33317V26.3332C37.3334 27.3415 36.974 28.205 36.2554 28.9237C35.5367 29.6423 34.6738 30.0011 33.6667 29.9998H11.6667ZM4.33336 37.3332C3.32502 37.3332 2.46152 36.9738 1.74286 36.2552C1.02419 35.5365 0.665468 34.6736 0.66669 33.6665V9.83317C0.66669 9.31373 0.84269 8.87801 1.19469 8.52601C1.54669 8.17401 1.9818 7.99862 2.50002 7.99984C3.01947 7.99984 3.45519 8.17584 3.80719 8.52784C4.15919 8.87984 4.33458 9.31495 4.33336 9.83317V33.6665H28.1667C28.6861 33.6665 29.1219 33.8425 29.4739 34.1945C29.8259 34.5465 30.0012 34.9816 30 35.4998C30 36.0193 29.824 36.455 29.472 36.807C29.12 37.159 28.6849 37.3344 28.1667 37.3332H4.33336Z" fill="#F0F4F4"/>
</svg>
