<svg width="50" height="50" viewBox="0 0 50 50" fill="none" xmlns="http://www.w3.org/2000/svg">
<path d="M27.5 27.5V22.5H32.5C33.875 22.5 35.0525 22.01 36.0325 21.03C37.0125 20.05 37.5017 18.8733 37.5 17.5V12.5C37.5 11.125 37.01 9.9475 36.03 8.9675C35.05 7.9875 33.8733 7.49834 32.5 7.5H25C24.2917 7.5 23.6975 7.74 23.2175 8.22C22.7375 8.7 22.4983 9.29334 22.5 10C22.5 10.7083 22.74 11.3025 23.22 11.7825C23.7 12.2625 24.2933 12.5017 25 12.5H32.5V17.5H27.5C26.125 17.5 24.9475 17.99 23.9675 18.97C22.9875 19.95 22.4983 21.1267 22.5 22.5V30C22.5 30.7083 22.74 31.3025 23.22 31.7825C23.7 32.2625 24.2933 32.5017 25 32.5H35C35.7083 32.5 36.3025 32.26 36.7825 31.78C37.2625 31.3 37.5017 30.7067 37.5 30C37.5 29.2917 37.26 28.6975 36.78 28.2175C36.3 27.7375 35.7067 27.4983 35 27.5H27.5ZM15 40C13.625 40 12.4475 39.51 11.4675 38.53C10.4875 37.55 9.99834 36.3733 10 35V5C10 3.625 10.49 2.4475 11.47 1.4675C12.45 0.487504 13.6267 -0.00166242 15 4.24448e-06H45C46.375 4.24448e-06 47.5525 0.490004 48.5325 1.47C49.5125 2.45 50.0017 3.62667 50 5V35C50 36.375 49.51 37.5525 48.53 38.5325C47.55 39.5125 46.3733 40.0017 45 40H15ZM5 50C3.625 50 2.4475 49.51 1.4675 48.53C0.487504 47.55 -0.00166242 46.3733 4.24448e-06 45V12.5C4.24448e-06 11.7917 0.240004 11.1975 0.720004 10.7175C1.2 10.2375 1.79334 9.99833 2.5 10C3.20834 10 3.8025 10.24 4.2825 10.72C4.7625 11.2 5.00167 11.7933 5 12.5V45H37.5C38.2083 45 38.8025 45.24 39.2825 45.72C39.7625 46.2 40.0017 46.7933 40 47.5C40 48.2083 39.76 48.8025 39.28 49.2825C38.8 49.7625 38.2067 50.0017 37.5 50H5Z" fill="#F0F4F4"/>
</svg>
