<svg width="206" height="141" viewBox="0 0 206 141" fill="none" xmlns="http://www.w3.org/2000/svg">
<path fill-rule="evenodd" clip-rule="evenodd" d="M129.506 126.511C127.265 118.19 109.428 120.733 116.479 119.522C131.996 117.951 151.098 136.006 120.952 140.428C70.9749 145.257 67.3803 117.918 71.2434 117.588C74.6597 140.871 132.675 141.594 129.506 126.511Z" fill="#F9F9F9"/>
<path d="M0 80.4226C0 78.34 1.41633 76.4705 3.93244 76.4705H16.8313C19.0536 76.4705 20.2099 78.1949 20.2099 79.964C20.2099 81.686 19.1006 83.453 16.8313 83.453H7.56219V90.8491H15.3715C17.7917 90.8491 18.9992 92.5687 18.9992 94.2846C18.9992 96.0644 17.7917 97.8396 15.3715 97.8396H7.56219V108.876C7.56219 111.403 5.94419 112.819 3.77949 112.819C1.61018 112.819 0 111.403 0 108.876V80.4226Z" fill="#F9F9F9"/>
<path d="M24.5958 89.3293C24.5958 86.9031 26.1071 85.2809 28.2219 85.2809C30.3397 85.2809 31.8535 86.9031 31.8535 89.3293V108.771C31.8535 111.201 30.3397 112.819 28.2219 112.819C26.1049 112.819 24.5958 111.201 24.5958 108.771V89.3293ZM32.307 78.34C32.307 80.6211 30.4923 82.5439 28.2219 82.5439C26.0597 82.5439 24.1433 80.5683 24.1433 78.34C24.1433 76.2679 26.0597 74.3417 28.2219 74.3417C30.393 74.3417 32.307 76.2144 32.307 78.34Z" fill="#F9F9F9"/>
<path d="M45.7177 98.3982L39.5637 91.457C38.9601 90.7507 38.455 89.7371 38.455 88.8258C38.455 86.9031 40.3209 85.2809 42.1879 85.2809C43.3449 85.2809 44.1047 85.7879 44.8555 86.696L49.9503 93.0824L55.0337 86.696C55.7996 85.7879 56.5529 85.2809 57.7078 85.2809C59.5758 85.2809 61.4368 86.9031 61.4368 88.8258C61.4368 89.7371 60.9328 90.7507 60.3313 91.457L54.1816 98.3982L61.5421 106.8C62.0976 107.401 62.5493 108.464 62.5493 109.278C62.5493 111.403 61.0864 112.819 58.9712 112.819C57.3553 112.819 56.7052 112.109 55.9472 111.201L49.9503 103.81L43.9485 111.201C43.1992 112.109 42.5368 112.819 40.9281 112.819C38.8068 112.819 37.3478 111.403 37.3478 109.278C37.3478 108.464 37.7988 107.401 38.3565 106.8L45.7177 98.3982Z" fill="#F9F9F9"/>
<path d="M73.4397 110.444C73.4397 111.908 72.5842 112.819 71.2145 112.819C69.8576 112.819 69.004 111.908 69.004 110.444V78.7947C69.004 77.0295 69.6033 76.1638 71.0197 76.1638C72.3297 76.1638 72.9314 76.7271 74.1436 78.4977L92.2851 104.674H92.3889V78.5465C92.3889 77.0808 93.2448 76.1638 94.6061 76.1638C95.9701 76.1638 96.8223 77.0808 96.8223 78.5465V110.19C96.8223 111.959 96.2205 112.819 94.8082 112.819C93.4997 112.819 92.8915 112.264 91.6832 110.495L73.5407 84.3194H73.4397V110.444Z" fill="#F9F9F9"/>
<path d="M112.802 108.972C118.247 108.972 120.163 103.607 120.163 99.0513C120.163 94.4981 118.247 89.1328 112.802 89.1328C107.36 89.1328 105.442 94.4981 105.442 99.0513C105.442 103.607 107.36 108.972 112.802 108.972ZM124.349 110.639C124.349 112.214 123.134 112.819 122.279 112.819C121.372 112.819 120.212 112.214 120.212 110.639V108.771H120.11C118.195 111.505 115.678 112.819 112.802 112.819C105.244 112.819 101.013 106.192 101.013 99.0513C101.013 91.9094 105.244 85.2809 112.802 85.2809C115.881 85.2809 118.049 86.5987 120.11 88.8707H120.212V87.4543C120.212 85.8841 121.372 85.2809 122.279 85.2809C123.134 85.2809 124.349 85.8841 124.349 87.4543V110.639Z" fill="#F9F9F9"/>
<path d="M132.107 79.7612C132.107 78.2972 132.964 77.38 134.328 77.38C135.685 77.38 136.544 78.2972 136.544 79.7612V85.585H138.36C139.816 85.585 140.576 86.2931 140.576 87.5078C140.576 88.7207 139.816 89.4301 138.36 89.4301H136.544V110.444C136.544 111.908 135.685 112.819 134.328 112.819C132.964 112.819 132.107 111.908 132.107 110.444V89.4301H130.291C128.831 89.4301 128.077 88.7207 128.077 87.5078C128.077 86.2931 128.831 85.585 130.291 85.585H132.107V79.7612Z" fill="#F9F9F9"/>
<path d="M149.748 110.444C149.748 111.908 148.895 112.819 147.535 112.819C146.168 112.819 145.316 111.908 145.316 110.444V87.6582C145.316 86.1936 146.168 85.2809 147.535 85.2809C148.895 85.2809 149.748 86.1936 149.748 87.6582V110.444ZM147.535 76.1638C149.048 76.1638 150.25 77.38 150.25 78.8991C150.25 80.4226 149.048 81.6347 147.535 81.6347C146.021 81.6347 144.806 80.4226 144.806 78.8991C144.806 77.38 146.021 76.1638 147.535 76.1638Z" fill="#F9F9F9"/>
<path d="M167.744 108.972C173.189 108.972 175.104 103.607 175.104 99.0513C175.104 94.4981 173.189 89.1328 167.744 89.1328C162.301 89.1328 160.382 94.4981 160.382 99.0513C160.382 103.607 162.301 108.972 167.744 108.972ZM167.744 85.2809C175.304 85.2809 179.54 91.9094 179.54 99.0513C179.54 106.192 175.304 112.819 167.744 112.819C160.181 112.819 155.948 106.192 155.948 99.0513C155.948 91.9094 160.181 85.2809 167.744 85.2809Z" fill="#F9F9F9"/>
<path d="M184.728 87.6582C184.728 86.1936 185.591 85.2809 186.942 85.2809C188.307 85.2809 189.166 86.1936 189.166 87.6582V88.7207L189.27 88.8258C191.234 86.2931 194.006 85.2809 196.678 85.2809C200.81 85.2809 206 87.9085 206 95.5121V110.444C206 111.908 205.142 112.819 203.784 112.819C202.422 112.819 201.566 111.908 201.566 110.444V95.7603C201.566 91.0495 198.29 89.1328 195.368 89.1328C192.445 89.1328 189.166 91.0495 189.166 95.7603V110.444C189.166 111.908 188.307 112.819 186.942 112.819C185.591 112.819 184.728 111.908 184.728 110.444V87.6582Z" fill="#F9F9F9"/>
<path fill-rule="evenodd" clip-rule="evenodd" d="M129.572 125.993C127.334 117.672 109.491 120.202 116.549 119.003C132.068 117.424 151.162 135.481 121.019 139.906C71.04 144.735 67.4447 117.396 71.3124 117.066C74.7277 140.351 132.743 141.071 129.572 125.993Z" fill="#F9F9F9"/>
<path fill-rule="evenodd" clip-rule="evenodd" d="M120.256 27.5337C126.6 45.859 117.136 48.5579 110.517 54.4001C114.207 51.1409 120.186 42.0138 120.256 27.5337Z" fill="#F9F9F9"/>
<path fill-rule="evenodd" clip-rule="evenodd" d="M88.2792 46.0516C85.9384 44.9928 72.0813 52.7362 70.904 72.2235C77.1377 69.5135 76.8005 57.4193 88.2792 46.0516Z" fill="#F9F9F9"/>
<path fill-rule="evenodd" clip-rule="evenodd" d="M122.96 18.2571C128.102 9.32533 122.249 2.48278 121.151 0.930269C108.689 8.62347 94.8956 14.6026 93.741 1.64674C93.3522 -2.65028 86.6643 2.04194 85.1459 9.04057C84.5043 12.0288 85.7823 14.2293 85.7823 14.2293C85.7823 14.2293 86.6743 9.87296 87.8129 8.19723C88.9852 6.46492 90.4666 5.4655 90.4666 5.4655C90.4666 5.4655 91.5675 12.3263 98.963 13.762C108.633 15.644 114.761 9.99982 119.809 6.15094C125.402 14.2293 118.299 25.3068 122.96 18.2571Z" fill="#F9F9F9"/>
<path fill-rule="evenodd" clip-rule="evenodd" d="M89.6575 15.0543C82.6837 27.0938 77.0913 40.6539 105.902 44.0902C88.3653 50.0219 66.3748 35.1201 89.6575 15.0543Z" fill="#F9F9F9"/>
</svg>
