<svg width="822" height="400" viewBox="0 0 822 400" fill="none" xmlns="http://www.w3.org/2000/svg">
<path fill-rule="evenodd" clip-rule="evenodd" d="M209.284 16.3735C98.9794 -4.41195 -66.5165 -19.2945 -118.774 62.0584C-183.388 162.646 -14.2364 274.528 -28.9702 387.278C-36.9352 448.23 -146.966 464.892 -178.688 520.544C-231.793 613.711 -379.458 758.996 -271.429 812.645C-143.606 876.125 -12.0583 658.701 136.195 676.922C252.406 691.204 242.276 886.367 359.721 890.216C459.084 893.471 474.638 763.18 514.202 689.308C543.796 634.05 523.642 568.743 560.026 516.21C629.58 415.784 853.149 361.801 818.347 250.163C786.736 148.763 568.687 214.409 451.976 169.61C357.362 133.292 311.266 35.5909 209.284 16.3735Z" fill="#008E7E"/>
</svg>
