<svg width="28" height="28" viewBox="0 0 28 28" fill="none" xmlns="http://www.w3.org/2000/svg">
<path d="M15.1673 14.2043L17.7923 16.8293C18.0062 17.0432 18.1131 17.3108 18.1131 17.632C18.1131 17.9532 18.0062 18.2301 17.7923 18.4627C17.559 18.696 17.2817 18.8127 16.9605 18.8127C16.6393 18.8127 16.3624 18.696 16.1298 18.4627L13.184 15.5168C13.0673 15.4002 12.9798 15.2687 12.9215 15.1225C12.8632 14.9763 12.834 14.8258 12.834 14.671V10.5002C12.834 10.1696 12.946 9.89233 13.17 9.66833C13.394 9.44433 13.6709 9.33272 14.0007 9.3335C14.3312 9.3335 14.6085 9.4455 14.8325 9.6695C15.0565 9.8935 15.1681 10.1704 15.1673 10.5002V14.2043ZM14.0007 7.00016C13.6701 7.00016 13.3928 6.88816 13.1688 6.66416C12.9448 6.44016 12.8332 6.16327 12.834 5.8335V4.66683H15.1673V5.8335C15.1673 6.16405 15.0553 6.44133 14.8313 6.66533C14.6073 6.88933 14.3304 7.00094 14.0007 7.00016ZM21.0007 14.0002C21.0007 13.6696 21.1126 13.3923 21.3367 13.1683C21.5606 12.9443 21.8375 12.8327 22.1673 12.8335H23.334V15.1668H22.1673C21.8368 15.1668 21.5595 15.0548 21.3355 14.8308C21.1115 14.6068 20.9999 14.3299 21.0007 14.0002ZM14.0007 21.0002C14.3312 21.0002 14.6085 21.1122 14.8325 21.3362C15.0565 21.5602 15.1681 21.8371 15.1673 22.1668V23.3335H12.834V22.1668C12.834 21.8363 12.946 21.559 13.17 21.335C13.394 21.111 13.6709 20.9994 14.0007 21.0002ZM7.00065 14.0002C7.00065 14.3307 6.88865 14.608 6.66465 14.832C6.44065 15.056 6.16376 15.1676 5.83398 15.1668H4.66732V12.8335H5.83398C6.16454 12.8335 6.44182 12.9455 6.66582 13.1695C6.88982 13.3935 7.00143 13.6704 7.00065 14.0002ZM14.0007 25.6668C12.3868 25.6668 10.8701 25.3604 9.45065 24.7475C8.03121 24.1346 6.79648 23.3036 5.74648 22.2543C4.69648 21.2043 3.86543 19.9696 3.25332 18.5502C2.64121 17.1307 2.33476 15.6141 2.33398 14.0002C2.33398 12.3863 2.64043 10.8696 3.25332 9.45016C3.86621 8.03072 4.69726 6.796 5.74648 5.746C6.79648 4.696 8.03121 3.86494 9.45065 3.25283C10.8701 2.64072 12.3868 2.33427 14.0007 2.3335C15.6145 2.3335 17.1312 2.63994 18.5506 3.25283C19.9701 3.86572 21.2048 4.69677 22.2548 5.746C23.3048 6.796 24.1363 8.03072 24.7491 9.45016C25.362 10.8696 25.6681 12.3863 25.6673 14.0002C25.6673 15.6141 25.3609 17.1307 24.748 18.5502C24.1351 19.9696 23.304 21.2043 22.2548 22.2543C21.2048 23.3043 19.9701 24.1358 18.5506 24.7487C17.1312 25.3615 15.6145 25.6676 14.0007 25.6668ZM23.334 14.0002C23.334 11.3946 22.4298 9.18766 20.6215 7.37933C18.8132 5.571 16.6062 4.66683 14.0007 4.66683C11.3951 4.66683 9.18815 5.571 7.37982 7.37933C5.57148 9.18766 4.66732 11.3946 4.66732 14.0002C4.66732 16.6057 5.57148 18.8127 7.37982 20.621C9.18815 22.4293 11.3951 23.3335 14.0007 23.3335C16.6062 23.3335 18.8132 22.4293 20.6215 20.621C22.4298 18.8127 23.334 16.6057 23.334 14.0002Z" fill="#20525C"/>
</svg>
