<svg width="116" height="104" viewBox="0 0 116 104" fill="none" xmlns="http://www.w3.org/2000/svg">
<path d="M69.5 0.25C74.075 0.25 78.4626 2.06741 81.6976 5.30241C84.9326 8.53741 86.75 12.925 86.75 17.5H104C107.05 17.5 109.975 18.7116 112.132 20.8683C114.288 23.0249 115.5 25.95 115.5 29V92.25C115.5 95.3 114.288 98.2251 112.132 100.382C109.975 102.538 107.05 103.75 104 103.75H12C8.95001 103.75 6.02494 102.538 3.86827 100.382C1.7116 98.2251 0.5 95.3 0.5 92.25V29C0.5 25.95 1.7116 23.0249 3.86827 20.8683C6.02494 18.7116 8.95001 17.5 12 17.5H29.25C29.25 12.925 31.0674 8.53741 34.3024 5.30241C37.5374 2.06741 41.925 0.25 46.5 0.25H69.5ZM98.25 40.5H17.75C16.2844 40.5016 14.8748 41.0628 13.8091 42.0689C12.7434 43.075 12.1021 44.45 12.0163 45.913C11.9304 47.3761 12.4064 48.8167 13.347 49.9405C14.2877 51.0644 15.6219 51.7867 17.0772 51.9598L17.75 52H52.25V57.75C52.2516 59.2156 52.8128 60.6252 53.8189 61.6909C54.825 62.7565 56.2 63.3979 57.663 63.4837C59.1261 63.5696 60.5667 63.0936 61.6905 62.153C62.8144 61.2123 63.5367 59.878 63.7098 58.4227L63.75 57.75V52H98.25C99.7156 51.9984 101.125 51.4372 102.191 50.4311C103.257 49.425 103.898 48.05 103.984 46.587C104.07 45.1239 103.594 43.6833 102.653 42.5595C101.712 41.4356 100.378 40.7133 98.9228 40.5402L98.25 40.5ZM69.5 11.75H46.5C45.0916 11.7502 43.7323 12.2672 42.6799 13.2031C41.6274 14.139 40.955 15.4286 40.7902 16.8272L40.75 17.5H75.25C75.2498 16.0916 74.7327 14.7323 73.7969 13.6799C72.861 12.6274 71.5714 11.955 70.1727 11.7902L69.5 11.75Z" fill="#008E7E"/>
</svg>
