<svg width="134" height="120" viewBox="0 0 134 120" fill="none" xmlns="http://www.w3.org/2000/svg">
<path d="M128.701 75.4177C128.701 88.8422 122.465 98.6874 112.052 105.353C101.461 112.133 86.4436 115.651 69.2866 115.651C52.1294 115.651 37.2173 112.133 26.7303 105.362C16.424 98.7073 10.2637 88.8657 10.2637 75.4177C10.2637 61.6746 16.7072 46.6611 27.4915 35.049C38.2456 23.4694 52.9945 15.6119 69.2866 15.6119C85.5836 15.6119 100.435 23.474 111.289 35.0615C122.173 46.6811 128.701 61.6915 128.701 75.4177Z" stroke="#20525C" stroke-width="8"/>
<path d="M17.0358 47.7595C6.46673 21.9238 5.29228 -14.8719 50.3088 16.8353" stroke="#20525C" stroke-width="8"/>
<path d="M123.306 47.7595C133.875 21.9238 135.049 -14.8719 90.0325 16.8353" stroke="#20525C" stroke-width="8"/>
<mask id="path-4-inside-1_691_2535" fill="white">
<ellipse cx="45.4088" cy="66.4145" rx="4.69736" ry="6.26315"/>
</mask>
<ellipse cx="45.4088" cy="66.4145" rx="4.69736" ry="6.26315" fill="black"/>
<path d="M42.1062 66.4145C42.1062 66.5804 42.0457 66.4227 42.3303 66.0432C42.6168 65.6612 43.6233 64.6776 45.4088 64.6776V80.6776C49.7886 80.6776 53.1437 78.292 55.1303 75.6432C57.1151 72.9968 58.1062 69.7076 58.1062 66.4145H42.1062ZM45.4088 64.6776C47.1943 64.6776 48.2008 65.6612 48.4873 66.0432C48.7719 66.4227 48.7114 66.5804 48.7114 66.4145H32.7114C32.7114 69.7076 33.7025 72.9968 35.6873 75.6432C37.6739 78.292 41.029 80.6776 45.4088 80.6776V64.6776ZM48.7114 66.4145C48.7114 66.2485 48.7719 66.4062 48.4873 66.7857C48.2008 67.1677 47.1943 68.1513 45.4088 68.1513V52.1513C41.029 52.1513 37.6739 54.5369 35.6873 57.1857C33.7025 59.8321 32.7114 63.1214 32.7114 66.4145H48.7114ZM45.4088 68.1513C43.6233 68.1513 42.6168 67.1677 42.3303 66.7857C42.0457 66.4062 42.1062 66.2485 42.1062 66.4145H58.1062C58.1062 63.1214 57.1151 59.8321 55.1303 57.1857C53.1437 54.5369 49.7886 52.1513 45.4088 52.1513V68.1513Z" fill="#20525C" mask="url(#path-4-inside-1_691_2535)"/>
<mask id="path-6-inside-2_691_2535" fill="white">
<ellipse cx="93.1651" cy="66.4145" rx="4.69736" ry="6.26315"/>
</mask>
<ellipse cx="93.1651" cy="66.4145" rx="4.69736" ry="6.26315" fill="black"/>
<path d="M89.8625 66.4145C89.8625 66.5804 89.802 66.4227 90.0867 66.0432C90.3732 65.6612 91.3797 64.6776 93.1651 64.6776V80.6776C97.5449 80.6776 100.9 78.292 102.887 75.6432C104.871 72.9968 105.863 69.7076 105.863 66.4145H89.8625ZM93.1651 64.6776C94.9506 64.6776 95.9571 65.6612 96.2436 66.0432C96.5283 66.4227 96.4678 66.5804 96.4678 66.4145H80.4678C80.4678 69.7076 81.4588 72.9968 83.4436 75.6432C85.4302 78.292 88.7854 80.6776 93.1651 80.6776V64.6776ZM96.4678 66.4145C96.4678 66.2485 96.5283 66.4062 96.2436 66.7857C95.9571 67.1677 94.9506 68.1513 93.1651 68.1513V52.1513C88.7854 52.1513 85.4302 54.5369 83.4436 57.1857C81.4588 59.8321 80.4678 63.1214 80.4678 66.4145H96.4678ZM93.1651 68.1513C91.3797 68.1513 90.3732 67.1677 90.0867 66.7857C89.802 66.4062 89.8625 66.2485 89.8625 66.4145H105.863C105.863 63.1214 104.871 59.8321 102.887 57.1857C100.9 54.5369 97.5449 52.1513 93.1651 52.1513V68.1513Z" fill="#20525C" mask="url(#path-6-inside-2_691_2535)"/>
<rect x="66.35" y="76.3964" width="6.6546" height="2.74013" rx="1.37006" fill="black" stroke="#20525C" stroke-width="2.74013"/>
<path d="M57.166 85.9868C56.7746 91.0756 64.6035 97.4171 69.3008 85.2039M81.8271 85.9868C82.2186 91.0756 74.3896 97.4171 69.6923 85.2039" stroke="#20525C" stroke-width="8" stroke-linecap="round"/>
<rect x="49.8232" y="8.65685" width="23.3158" height="62.4604" rx="11.6579" transform="rotate(45 49.8232 8.65685)" fill="white" stroke="#20525C" stroke-width="8"/>
<rect x="38.752" y="30.6795" width="7.82894" height="15.6579" transform="rotate(45 38.752 30.6795)" fill="white" stroke="#20525C" stroke-width="7.82894"/>
</svg>
