<svg width="128" height="120" viewBox="0 0 128 120" fill="none" xmlns="http://www.w3.org/2000/svg">
<path d="M122.437 74.8519C122.437 88.2765 116.201 98.1216 105.788 104.788C95.1974 111.568 80.1799 115.085 63.023 115.085C45.8657 115.085 30.9536 111.567 20.4666 104.796C10.1603 98.1415 4 88.2999 4 74.8519C4 61.1088 10.4435 46.0953 21.2278 34.4832C31.9819 22.9036 46.7309 15.0461 63.023 15.0461C79.32 15.0461 94.1713 22.9082 105.026 34.4957C115.91 46.1153 122.437 61.1257 122.437 74.8519Z" stroke="#20525C" stroke-width="8"/>
<path d="M10.7745 47.1936C0.205502 21.358 -0.968947 -15.4378 44.0476 16.2695" stroke="#20525C" stroke-width="8"/>
<path d="M117.042 47.1936C127.611 21.358 128.786 -15.4378 83.7693 16.2695" stroke="#20525C" stroke-width="8"/>
<rect x="60.0864" y="75.8305" width="6.6546" height="2.74013" rx="1.37006" fill="black" stroke="#20525C" stroke-width="2.74013"/>
<path d="M47.7577 68.2635L50.1088 71.4996L47.7577 68.2635C44.1606 70.877 42.6554 75.5094 44.0294 79.7381L44.3126 80.6098C44.9901 82.6949 42.6036 84.4287 40.83 83.1401L40.0884 82.6013C36.4913 79.9879 31.6205 79.9879 28.0234 82.6013L27.2818 83.1401C25.5081 84.4287 23.1217 82.6949 23.7992 80.6098L24.0824 79.7381C25.4564 75.5094 23.9512 70.877 20.3541 68.2635L19.6126 67.7248C17.8389 66.4361 18.7505 63.6307 20.9428 63.6307H21.8594C26.3057 63.6307 30.2463 60.7677 31.6203 56.539L31.9035 55.6673C32.581 53.5822 35.5308 53.5822 36.2083 55.6673L36.4915 56.539C37.8655 60.7677 41.8061 63.6307 46.2524 63.6307H47.169C49.3613 63.6307 50.2729 66.4361 48.4992 67.7248L47.7577 68.2635Z" stroke="#20525C" stroke-width="8"/>
<path d="M106.474 68.2635L108.825 71.4996L106.474 68.2635C102.877 70.877 101.372 75.5094 102.746 79.7381L103.029 80.6098C103.706 82.6949 101.32 84.4287 99.5463 83.1401L98.8047 82.6013C95.2076 79.9879 90.3368 79.9879 86.7397 82.6013L85.9981 83.1401C84.2245 84.4287 81.838 82.6949 82.5155 80.6098L82.7987 79.7381C84.1727 75.5094 82.6675 70.877 79.0704 68.2635L78.3289 67.7248C76.5552 66.4361 77.4668 63.6307 79.6591 63.6307H80.5757C85.022 63.6307 88.9626 60.7677 90.3366 56.539L90.6198 55.6673C91.2973 53.5822 94.2471 53.5822 94.9246 55.6673L95.2078 56.539C96.5818 60.7677 100.522 63.6307 104.969 63.6307H105.885C108.078 63.6307 108.989 66.4361 107.216 67.7248L106.474 68.2635Z" stroke="#20525C" stroke-width="8"/>
<path d="M56.5398 94.7751L54.2774 88.6381H71.9474L69.9577 94.575C68.9861 97.4738 66.2708 99.4275 63.2135 99.4275C60.2341 99.4275 57.5704 97.5706 56.5398 94.7751Z" stroke="#20525C" stroke-width="8"/>
</svg>
