<svg width="28" height="28" viewBox="0 0 28 28" fill="none" xmlns="http://www.w3.org/2000/svg">
<path d="M13.9993 14.0002C14.641 14.0002 15.1905 13.7715 15.6478 13.3142C16.1052 12.8568 16.3335 12.3077 16.3327 11.6668C16.3327 11.0252 16.104 10.4757 15.6467 10.0183C15.1893 9.561 14.6402 9.33272 13.9993 9.3335C13.3577 9.3335 12.8082 9.56216 12.3508 10.0195C11.8935 10.4768 11.6652 11.0259 11.666 11.6668C11.666 12.3085 11.8947 12.858 12.352 13.3153C12.8093 13.7727 13.3585 14.0009 13.9993 14.0002ZM13.9993 22.5752C16.3716 20.3974 18.1313 18.4187 19.2785 16.6392C20.4257 14.8596 20.9993 13.2799 20.9993 11.9002C20.9993 9.78072 20.3235 8.0455 18.9717 6.6945C17.6199 5.3435 15.9625 4.66761 13.9993 4.66683C12.0355 4.66683 10.3776 5.34272 9.02585 6.6945C7.67407 8.04627 6.99857 9.7815 6.99935 11.9002C6.99935 13.2807 7.57296 14.8608 8.72018 16.6403C9.8674 18.4199 11.6271 20.3982 13.9993 22.5752ZM13.9993 25.2293C13.8438 25.2293 13.6882 25.2002 13.5327 25.1418C13.3771 25.0835 13.241 25.0057 13.1243 24.9085C10.2855 22.4002 8.16602 20.0715 6.76602 17.9225C5.36602 15.7735 4.66602 13.7661 4.66602 11.9002C4.66602 8.9835 5.6044 6.65989 7.48118 4.92933C9.35796 3.19877 11.5307 2.3335 13.9993 2.3335C16.4688 2.3335 18.6419 3.19877 20.5187 4.92933C22.3955 6.65989 23.3335 8.9835 23.3327 11.9002C23.3327 13.7668 22.6327 15.7747 21.2327 17.9237C19.8327 20.0727 17.7132 22.4009 14.8743 24.9085C14.7577 25.0057 14.6216 25.0835 14.466 25.1418C14.3105 25.2002 14.1549 25.2293 13.9993 25.2293Z" fill="#20525C"/>
</svg>
