<svg width="28" height="28" viewBox="0 0 28 28" fill="none" xmlns="http://www.w3.org/2000/svg">
<path d="M4.725 24.5C4.375 24.5 4.08333 24.3833 3.85 24.15C3.61667 23.9167 3.5 23.625 3.5 23.275V18.55C3.5 18.2778 3.5875 18.0394 3.7625 17.8348C3.9375 17.6303 4.16111 17.4992 4.43333 17.4417L8.45833 16.625C8.73056 16.5861 9.00783 16.6106 9.29017 16.6985C9.5725 16.7864 9.80078 16.9174 9.975 17.0917L12.7167 19.8333C14.1944 18.9389 15.5458 17.8792 16.7708 16.6542C17.9958 15.4292 19.0167 14.1167 19.8333 12.7167L17.0333 9.85833C16.8583 9.68333 16.7463 9.48383 16.6973 9.25983C16.6483 9.03583 16.6437 8.78811 16.6833 8.51667L17.4417 4.43333C17.4806 4.16111 17.6069 3.9375 17.8208 3.7625C18.0347 3.5875 18.2778 3.5 18.55 3.5H23.275C23.625 3.5 23.9167 3.61667 24.15 3.85C24.3833 4.08333 24.5 4.375 24.5 4.725C24.5 7.23333 23.9408 9.67867 22.8223 12.061C21.7039 14.4433 20.2261 16.5531 18.389 18.3902C16.5519 20.2273 14.4422 21.7051 12.0598 22.8235C9.6775 23.9419 7.23256 24.5008 4.725 24.5Z" fill="#20525C"/>
</svg>
