<svg width="100" height="90" viewBox="0 0 100 90" fill="none" xmlns="http://www.w3.org/2000/svg">
<path d="M31.8244 0.0748865C37.7003 -0.771397 43.9249 5.6504 45.7175 14.5115C47.5102 23.3228 44.2734 31.1882 38.3975 32.0843C32.5713 32.9804 26.297 26.5586 24.4545 17.6975C22.6121 8.88619 25.9484 1.02073 31.8244 0.0748865ZM67.4287 0.0748865C73.3544 1.02073 76.641 8.88619 74.8981 17.6975C73.0059 26.5586 66.7813 32.9804 60.9054 32.0843C54.9796 31.1882 51.7429 23.3228 53.5853 14.5115C55.378 5.6504 61.6025 -0.771397 67.4287 0.0748865ZM5.1834 22.9743C10.8602 20.535 18.5786 24.9656 22.6121 32.6817C26.3966 40.5471 25.1019 48.8108 19.4749 51.2501C13.8479 53.6894 6.17932 49.3086 2.24542 41.493C-1.68848 33.6773 -0.294186 25.3638 5.1834 22.9743ZM94.8166 22.9743C100.294 25.3638 101.688 33.6773 97.7546 41.493C93.8207 49.3086 86.1521 53.6894 80.5251 51.2501C74.8981 48.8108 73.6034 40.5471 77.3879 32.6817C81.4214 24.9656 89.1398 20.535 94.8166 22.9743ZM86.5006 76.6386C86.6998 81.3181 83.1145 86.4953 78.832 88.4368C69.9185 92.5189 59.3617 84.056 49.4522 84.056C39.5428 84.056 28.8864 92.8673 20.1223 88.4368C15.1426 85.9975 11.7067 79.5259 12.3541 74.1495C13.2504 66.7321 22.1639 62.7496 27.4423 57.3234C34.4636 50.3043 39.4432 37.1122 49.4522 37.1122C59.4115 37.1122 64.6899 50.1051 71.4124 57.3234C76.9398 63.3968 86.1521 68.5242 86.5006 76.6386Z" fill="#BBD532"/>
</svg>
