<svg width="26" height="34" viewBox="0 0 26 34" fill="none" xmlns="http://www.w3.org/2000/svg">
  <path fill-rule="evenodd" clip-rule="evenodd" d="M5.99961 10.8C7.43178 10.8 8.80529 10.2311 9.81799 9.21838C10.8307 8.20568 11.3996 6.83217 11.3996 5.4C11.3996 3.96783 10.8307 2.59432 9.81799 1.58162C8.80529 0.568927 7.43178 0 5.99961 0C4.56744 0 3.19393 0.568927 2.18123 1.58162C1.16854 2.59432 0.599609 3.96783 0.599609 5.4C0.599609 6.83217 1.16854 8.20568 2.18123 9.21838C3.19393 10.2311 4.56744 10.8 5.99961 10.8ZM5.99961 1.8C6.95439 1.8 7.87006 2.17928 8.54519 2.85442C9.22032 3.52955 9.59961 4.44522 9.59961 5.4C9.59961 6.35478 9.22032 7.27045 8.54519 7.94558C7.87006 8.62072 6.95439 9 5.99961 9C5.04483 9 4.12916 8.62072 3.45403 7.94558C2.77889 7.27045 2.39961 6.35478 2.39961 5.4C2.39961 4.44522 2.77889 3.52955 3.45403 2.85442C4.12916 2.17928 5.04483 1.8 5.99961 1.8Z" fill="black" transform="translate(7 8)" />
  <path fill-rule="evenodd" clip-rule="evenodd" d="M0.399414 13.6212C0.399414 20.8248 8.00081 33.1998 12.9994 33.1998C17.998 33.1998 25.5994 20.8248 25.5994 13.6212C25.5994 6.5436 19.9618 0.799805 12.9994 0.799805C6.03701 0.799805 0.399414 6.5436 0.399414 13.6212ZM23.7994 13.6212C23.7994 19.9572 16.7722 31.3998 12.9994 31.3998C9.22661 31.3998 2.19941 19.9572 2.19941 13.6212C2.19941 7.5318 7.03781 2.5998 12.9994 2.5998C18.961 2.5998 23.7994 7.5318 23.7994 13.6212V13.6212Z" fill="black"/>
</svg>
