<svg width="109" height="128" viewBox="0 0 109 128" fill="none" xmlns="http://www.w3.org/2000/svg">
<mask id="path-1-inside-1_4682_25017" fill="white">
<rect x="18" width="10" height="128" rx="4"/>
</mask>
<rect x="18" width="10" height="128" rx="4" fill="#F0F4F4" stroke="#20525C" stroke-width="10" mask="url(#path-1-inside-1_4682_25017)"/>
<path d="M2.5 12C2.5 11.1716 3.17157 10.5 4 10.5H58.7306H86.1341C86.5981 10.5 87.036 10.7148 87.3201 11.0817L105.127 34.0817C105.546 34.6224 105.546 35.3776 105.127 35.9183L87.3201 58.9183C87.036 59.2852 86.5981 59.5 86.1341 59.5H58.7306H4C3.17157 59.5 2.5 58.8284 2.5 58V12Z" fill="#BBD532" stroke="#20525C" stroke-width="5"/>
<mask id="path-3-inside-2_4682_25017" fill="white">
<rect x="7" y="118" width="32" height="10" rx="4"/>
</mask>
<rect x="7" y="118" width="32" height="10" rx="4" fill="#F0F4F4" stroke="#20525C" stroke-width="10" mask="url(#path-3-inside-2_4682_25017)"/>
<path d="M19.32 39.64C19.5333 39.44 19.7733 39.34 20.04 39.34C20.24 39.34 20.7 39.5333 21.42 39.92C22.1533 40.2933 22.6933 40.48 23.04 40.48C23.8533 40.48 24.5533 40.2867 25.14 39.9C25.74 39.5133 26.04 38.9467 26.04 38.2C26.04 37.4133 25.4 36.7333 24.12 36.16C22.84 35.5867 21.5867 35.0267 20.36 34.48C19.0267 33.7333 18.36 32.8133 18.36 31.72C18.36 30.6267 18.9467 29.5733 20.12 28.56C21.3067 27.5467 22.6 27.04 24 27.04C25.0933 27.04 25.9067 27.1 26.44 27.22C26.9733 27.3267 27.24 27.6667 27.24 28.24C27.24 28.68 26.5267 28.9733 25.1 29.12C23.6733 29.2533 22.5933 29.44 21.86 29.68C21.1267 29.9067 20.76 30.5467 20.76 31.6C20.76 32.2933 21.6267 32.98 23.36 33.66C25.1067 34.3267 26.3667 34.8933 27.14 35.36C27.9267 35.8133 28.32 36.72 28.32 38.08C28.32 39.4 27.78 40.4533 26.7 41.24C25.6333 42.0133 24.3733 42.4 22.92 42.4C22.12 42.4 21.2667 42.1733 20.36 41.72C19.4667 41.2533 19.02 40.7667 19.02 40.26C19.02 40.0333 19.12 39.8267 19.32 39.64ZM36.3737 42.4C35.9204 42.4 35.5938 42.0867 35.3938 41.46C35.1938 40.8333 35.0738 40.0533 35.0338 39.12C34.9938 38.1867 34.9738 36.84 34.9738 35.08C34.9738 34.1467 34.9604 33.1133 34.9338 31.98C34.9204 30.8333 34.9071 29.9067 34.8938 29.2C34.6404 29.1467 34.3471 29.12 34.0138 29.12C33.7471 29.12 33.3204 29.1533 32.7338 29.22C32.1604 29.2867 31.8138 29.32 31.6938 29.32C31.3338 29.32 31.0604 29.2533 30.8737 29.12C30.6737 28.9867 30.5471 28.7333 30.4937 28.36C30.4004 27.68 31.0338 27.2733 32.3938 27.14C33.6338 27.0867 34.8804 27.0267 36.1338 26.96C37.4938 26.76 38.8604 26.56 40.2338 26.36C40.5938 26.36 40.8738 26.4133 41.0738 26.52C41.2871 26.6133 41.4004 26.7867 41.4138 27.04C41.4938 27.8933 41.0004 28.4 39.9338 28.56C38.8671 28.72 37.9204 28.8533 37.0938 28.96V29.56V30.16V30.72V31.22V31.68V32.08V32.44V32.78V33.06V33.32C37.0938 33.5733 37.0871 33.8333 37.0738 34.1C37.0738 34.3533 37.0738 34.6067 37.0738 34.86V35.08C37.0738 35.7733 37.1004 36.7467 37.1538 38C37.2071 39.24 37.2338 39.8867 37.2338 39.94C37.2338 40.7533 37.1738 41.3667 37.0538 41.78C36.9338 42.1933 36.7071 42.4 36.3737 42.4ZM42.4233 42.4C42.1699 42.3467 42.0433 42.0067 42.0433 41.38C42.0433 40.6467 42.1633 39.7867 42.4033 38.8C42.6433 37.8 43.1299 35.9867 43.8633 33.36C44.6099 30.72 45.1633 28.8933 45.5233 27.88C45.8833 26.8667 46.4366 26.36 47.1833 26.36C47.7966 26.36 48.3033 26.84 48.7033 27.8C49.1166 28.76 49.4033 29.6867 49.5633 30.58C49.7366 31.4733 49.9099 32.46 50.0833 33.54C50.2699 34.6067 50.5166 35.9267 50.8233 37.5C51.1299 39.06 51.2833 40.2667 51.2833 41.12C51.2833 41.6933 51.2166 42.1533 51.0833 42.5C50.9633 42.8333 50.7566 43 50.4633 43C49.9166 43 49.5099 42.34 49.2433 41.02C48.9899 39.7 48.8099 38.84 48.7033 38.44H44.7433C44.3299 39.9067 44.0233 40.9467 43.8233 41.56C43.6366 42.16 43.3033 42.46 42.8233 42.46C42.7033 42.46 42.5699 42.44 42.4233 42.4ZM48.4233 36.44L47.2233 28.92L45.1433 36.44H48.4233ZM62.8633 32.74C62.6233 31.6867 62.1566 30.8933 61.4633 30.36C60.7699 29.8267 59.9833 29.56 59.1033 29.56C58.4366 29.56 57.8099 29.7 57.2233 29.98V35.58C57.2233 36.1133 57.2233 36.6533 57.2233 37.2C57.2233 37.7333 57.2299 38.28 57.2433 38.84C57.2433 40.96 57.1499 42.36 56.9633 43.04C56.7899 43.7333 56.5299 44.08 56.1833 44.08C55.6899 44.08 55.3566 43.5933 55.1833 42.62C55.0099 41.6333 54.9233 40.3 54.9233 38.62C54.9233 38.1 54.9233 37.5867 54.9233 37.08C54.9233 36.56 54.9299 36.0533 54.9433 35.56C54.9433 35.1867 54.9366 34.6067 54.9233 33.82C54.9099 33.02 54.9033 32.4267 54.9033 32.04C54.9033 30.76 54.9433 29.88 55.0233 29.4C55.1166 28.92 55.2366 28.56 55.3833 28.32C55.5299 28.0667 55.9099 27.8667 56.5233 27.72C57.1366 27.56 57.8366 27.48 58.6233 27.48C60.3299 27.48 61.8166 27.8667 63.0833 28.64C64.3633 29.4133 65.0033 30.68 65.0033 32.44C65.0033 33.5333 64.8166 34.42 64.4433 35.1C64.0833 35.7667 63.6033 36.3 63.0033 36.7C62.4033 37.1 61.5033 37.5733 60.3033 38.12C60.5299 38.6133 60.8833 39.02 61.3633 39.34C61.8433 39.6467 62.3166 39.9467 62.7833 40.24C62.9433 40.3733 63.4166 40.5933 64.2033 40.9C64.9899 41.1933 65.3833 41.5267 65.3833 41.9C65.3833 41.94 65.3633 42.0467 65.3233 42.22C65.2833 42.3933 65.1699 42.5333 64.9833 42.64C64.7966 42.7467 64.5633 42.8 64.2833 42.8C63.7766 42.8 63.1766 42.66 62.4833 42.38C61.8033 42.1 61.1299 41.72 60.4633 41.24C59.7966 40.7467 59.1633 40.1133 58.5633 39.34C57.9633 38.5667 57.6966 38 57.7633 37.64C57.8166 37.36 58.3699 36.9867 59.4233 36.52C60.4899 36.04 61.3366 35.58 61.9633 35.14C62.6033 34.7 62.9233 34.0933 62.9233 33.32C62.9233 33.1333 62.9033 32.94 62.8633 32.74ZM73.155 42.4C72.7017 42.4 72.375 42.0867 72.175 41.46C71.975 40.8333 71.855 40.0533 71.815 39.12C71.775 38.1867 71.755 36.84 71.755 35.08C71.755 34.1467 71.7417 33.1133 71.715 31.98C71.7017 30.8333 71.6883 29.9067 71.675 29.2C71.4217 29.1467 71.1283 29.12 70.795 29.12C70.5283 29.12 70.1017 29.1533 69.515 29.22C68.9417 29.2867 68.595 29.32 68.475 29.32C68.115 29.32 67.8417 29.2533 67.655 29.12C67.455 28.9867 67.3283 28.7333 67.275 28.36C67.1817 27.68 67.815 27.2733 69.175 27.14C70.415 27.0867 71.6617 27.0267 72.915 26.96C74.275 26.76 75.6417 26.56 77.015 26.36C77.375 26.36 77.655 26.4133 77.855 26.52C78.0683 26.6133 78.1817 26.7867 78.195 27.04C78.275 27.8933 77.7817 28.4 76.715 28.56C75.6483 28.72 74.7017 28.8533 73.875 28.96V29.56V30.16V30.72V31.22V31.68V32.08V32.44V32.78V33.06V33.32C73.875 33.5733 73.8683 33.8333 73.855 34.1C73.855 34.3533 73.855 34.6067 73.855 34.86V35.08C73.855 35.7733 73.8817 36.7467 73.935 38C73.9883 39.24 74.015 39.8867 74.015 39.94C74.015 40.7533 73.955 41.3667 73.835 41.78C73.715 42.1933 73.4883 42.4 73.155 42.4Z" fill="#20525C"/>
</svg>
