<svg width="202" height="108" viewBox="0 0 202 108" fill="none" xmlns="http://www.w3.org/2000/svg">
<path d="M11.0048 79.6879C-6.30381 69.6431 0.307305 49.9061 12.1546 44.4056C0.557357 31.9575 16.7144 20.794 25.5223 21.7085C24.318 6.80404 55.4568 5.87327 65.4543 13.5047C64.0857 -3.43275 99.7679 -2.81421 110.67 11.7435C132.514 -3.62297 162.662 6.32105 153.547 21.7085C161.054 14.5505 164.564 12.3234 169.423 20.4164C180.839 14.0926 202.771 21.3911 193.949 40.3941C204.445 42.0991 201.696 62.2115 195.755 62.7456C204.787 73.5217 184.909 91.6533 176.529 85.2416C177.758 100.452 156.142 105.157 143.257 97.7866C133.084 112.007 109.5 108.328 106.138 98.7357C96.8512 109.175 90.7332 108.099 79.1647 101.161C60.0232 115.342 22.0596 103.857 29.2064 91.3225C16.2779 95.4371 6.72927 85.0386 11.0048 79.6879Z" fill="white"/>
</svg>
