<svg width="359" height="141" viewBox="0 0 359 141" fill="none" xmlns="http://www.w3.org/2000/svg">
<path d="M135.671 8.73322C154.7 13.807 174.427 9.59532 173.053 1C178.1 11.4198 218.783 17.5816 232.018 8.82563C245.583 25.6783 300.108 24.2608 314.855 11.7821C303.268 27.9085 327.195 47.038 358.226 42.6836C332.503 48.2061 310.517 78.4028 348.519 90.1587C305.656 90.1176 303.622 98.9373 304.113 114.646C269.954 94.6109 228.5 114.146 244 139C235.018 145 193 100.5 155.09 124.123C150.9 107.732 90.7253 103.846 79.0295 117.046C80.3677 101.122 46.6997 88.9709 18.0758 98.5117C32.1053 88.036 37.3145 67.43 1 61.1859C37.1205 61.2206 38.7474 42.0553 29.2001 37.1089C51.9558 41.9526 87.7646 30.0736 74.7164 16.0497C72.4069 14.8973 70.6553 13.5537 69.6635 12.0334C71.8178 13.3831 73.4848 14.7259 74.7164 16.0497C90.3241 23.8376 131.412 22.8927 135.671 8.73322Z" fill="white"/>
<path d="M135.671 8.73322L135.799 8.25009C135.539 8.18054 135.27 8.33065 135.192 8.5892L135.671 8.73322ZM173.053 1L173.503 0.782039C173.395 0.558843 173.139 0.448619 172.903 0.523049C172.666 0.59748 172.52 0.834068 172.559 1.07896L173.053 1ZM29.2001 37.1089L29.3042 36.6199C29.0594 36.5678 28.8138 36.7047 28.7294 36.9404C28.645 37.176 28.7479 37.4377 28.9701 37.5529L29.2001 37.1089ZM1 61.1859L1.00048 60.6859C0.740727 60.6857 0.524044 60.8844 0.501832 61.1432C0.479619 61.402 0.659275 61.6347 0.915271 61.6787L1 61.1859ZM69.6635 12.0334L69.9289 11.6097C69.73 11.485 69.4712 11.5156 69.3067 11.6831C69.1422 11.8506 69.1164 12.11 69.2447 12.3066L69.6635 12.0334ZM232.018 8.82563L232.408 8.51211C232.246 8.31105 231.958 8.26621 231.743 8.40862L232.018 8.82563ZM314.855 11.7821L315.261 12.0738C315.408 11.8688 315.379 11.5861 315.194 11.4148C315.008 11.2435 314.724 11.2373 314.532 11.4004L314.855 11.7821ZM358.226 42.6836L358.331 43.1725C358.594 43.116 358.765 42.8613 358.718 42.5963C358.671 42.3313 358.423 42.1511 358.156 42.1885L358.226 42.6836ZM348.519 90.1587L348.518 90.6587C348.766 90.6589 348.976 90.4782 349.013 90.2337C349.05 89.9891 348.903 89.7542 348.667 89.681L348.519 90.1587ZM304.113 114.646L303.86 115.077C304.017 115.169 304.211 115.169 304.368 115.076C304.525 114.983 304.618 114.812 304.612 114.63L304.113 114.646ZM244 139L244.277 139.416C244.502 139.266 244.567 138.965 244.424 138.736L244 139ZM155.09 124.123L154.606 124.247C154.645 124.401 154.756 124.528 154.904 124.587C155.052 124.646 155.219 124.632 155.354 124.547L155.09 124.123ZM79.0295 117.046L78.5312 117.004C78.5132 117.219 78.6347 117.421 78.8327 117.506C79.0307 117.59 79.2608 117.539 79.4037 117.378L79.0295 117.046ZM18.0758 98.5117L17.7767 98.1111C17.58 98.258 17.519 98.5258 17.6327 98.7433C17.7464 98.9608 18.0011 99.0637 18.2339 98.9861L18.0758 98.5117ZM135.542 9.21634C145.123 11.7709 154.891 11.9929 162.116 10.4819C165.723 9.72734 168.738 8.53192 170.775 6.94216C172.826 5.34241 173.927 3.30165 173.547 0.921043L172.559 1.07896C172.866 2.99601 172.017 4.70495 170.16 6.15377C168.291 7.61259 165.442 8.76461 161.911 9.50312C154.858 10.9784 145.248 10.7694 135.799 8.25009L135.542 9.21634ZM28.9701 37.5529C33.4778 39.8883 35.3704 45.5752 31.8139 50.7314C28.2277 55.9305 19.0065 60.7032 1.00048 60.6859L0.99952 61.6859C19.114 61.7033 28.7665 56.9106 32.637 51.2992C36.5372 45.6448 34.4697 39.2759 29.4301 36.665L28.9701 37.5529ZM69.398 12.4571C71.5259 13.7902 73.1559 15.1065 74.3503 16.3903L75.0825 15.7091C73.8136 14.3454 72.1098 12.976 69.9289 11.6097L69.398 12.4571ZM74.3503 16.3903C75.9317 18.0899 76.7371 19.7181 76.9448 21.2469C77.1517 22.7701 76.7729 24.2496 75.885 25.673C74.0921 28.5471 70.2491 31.145 65.197 33.1912C55.1142 37.275 40.5747 39.0189 29.3042 36.6199L29.096 37.598C40.5813 40.0427 55.324 38.2689 65.5724 34.1181C70.686 32.047 74.7709 29.3483 76.7334 26.2023C77.7233 24.6156 78.1791 22.904 77.9357 21.1123C77.693 19.3261 76.7631 17.5154 75.0825 15.7091L74.3503 16.3903ZM69.2447 12.3066C70.3054 13.9324 72.1458 15.3258 74.4932 16.4971L74.9396 15.6023C72.668 14.4688 71.0052 13.1749 70.0822 11.7602L69.2447 12.3066ZM74.4932 16.4971C82.4133 20.449 96.6921 22.1562 109.49 21.1201C115.898 20.6013 121.977 19.3919 126.737 17.4066C131.48 15.4286 135.02 12.6334 136.149 8.87723L135.192 8.5892C134.192 11.9128 130.999 14.5455 126.352 16.4837C121.723 18.4145 115.756 19.6095 109.409 20.1233C96.6961 21.1526 82.6272 19.4382 74.9396 15.6023L74.4932 16.4971ZM172.603 1.21796C173.284 2.62515 174.546 3.9203 176.204 5.095C177.866 6.27281 179.959 7.35116 182.347 8.31368C187.125 10.2388 193.139 11.7206 199.395 12.5989C205.653 13.4773 212.176 13.7548 217.974 13.2603C223.757 12.7669 228.881 11.5005 232.294 9.24263L231.743 8.40862C228.538 10.5287 223.613 11.7756 217.889 12.2639C212.178 12.751 205.732 12.4786 199.534 11.6086C193.335 10.7384 187.404 9.2733 182.721 7.38615C180.379 6.44253 178.362 5.39839 176.782 4.27902C175.197 3.15653 174.083 1.9798 173.503 0.782039L172.603 1.21796ZM231.629 9.13914C235.116 13.4718 241.187 16.5805 248.475 18.6334C255.777 20.6903 264.371 21.7066 272.988 21.8031C281.606 21.8996 290.266 21.0764 297.705 19.4428C305.128 17.8128 311.397 15.3628 315.178 12.1637L314.532 11.4004C310.939 14.4407 304.862 16.8474 297.491 18.4661C290.135 20.0813 281.551 20.899 272.999 20.8032C264.446 20.7073 255.943 19.698 248.746 17.6709C241.535 15.6397 235.703 12.6058 232.408 8.51211L231.629 9.13914ZM314.449 11.4903C311.469 15.6374 310.756 20.0115 311.897 24.1587C313.034 28.2887 315.992 32.1417 320.26 35.3144C328.795 41.6593 342.672 45.3711 358.295 43.1788L358.156 42.1885C342.748 44.3506 329.147 40.6747 320.857 34.5119C316.712 31.4307 313.922 27.7498 312.861 23.8935C311.805 20.0544 312.447 15.99 315.261 12.0738L314.449 11.4903ZM358.121 42.1948C345.142 44.9813 333.052 53.9953 329.013 63.8947C326.983 68.8695 326.981 74.0929 329.963 78.8244C332.933 83.5352 338.811 87.6789 348.371 90.6364L348.667 89.681C339.226 86.7605 333.602 82.7212 330.809 78.2912C328.03 73.8819 328.007 69.0067 329.938 64.2725C333.822 54.754 345.587 45.9085 358.331 43.1725L358.121 42.1948ZM348.519 89.6587C337.79 89.6484 329.594 90.1923 323.344 91.2657C317.097 92.3384 312.756 93.9458 309.767 96.0898C303.726 100.422 303.368 106.823 303.613 114.661L304.612 114.63C304.367 106.76 304.78 100.897 310.349 96.9025C313.165 94.8831 317.338 93.3116 323.513 92.2513C329.684 91.1916 337.816 90.6484 348.518 90.6587L348.519 89.6587ZM304.366 114.214C287.155 104.12 268.084 103.978 255.236 109.53C248.812 112.306 243.9 116.526 241.593 121.688C239.276 126.873 239.624 132.929 243.575 139.265L244.424 138.736C240.625 132.644 240.342 126.938 242.506 122.096C244.68 117.231 249.36 113.159 255.632 110.448C268.176 105.028 286.912 105.137 303.86 115.077L304.366 114.214ZM243.722 138.584C242.795 139.203 241.351 139.223 239.293 138.634C237.261 138.052 234.771 136.918 231.877 135.44C226.12 132.5 218.793 128.213 210.599 124.498C194.195 117.058 174.003 111.749 154.826 123.699L155.354 124.547C174.087 112.875 193.859 118.004 210.186 125.408C218.359 129.115 225.59 133.352 231.422 136.33C234.322 137.811 236.885 138.985 239.018 139.595C241.125 140.199 242.959 140.297 244.277 139.416L243.722 138.584ZM79.4037 117.378C80.7953 115.807 82.9374 114.461 85.6718 113.351C88.4013 112.244 91.6902 111.385 95.3418 110.771C102.645 109.543 111.352 109.304 119.834 109.986C128.319 110.669 136.548 112.272 142.903 114.713C146.081 115.933 148.771 117.356 150.787 118.962C152.804 120.57 154.118 122.338 154.606 124.247L155.574 123.999C155.015 121.81 153.532 119.871 151.41 118.18C149.288 116.489 146.497 115.022 143.262 113.779C136.79 111.294 128.459 109.677 119.915 108.989C111.367 108.302 102.576 108.541 95.176 109.785C91.476 110.407 88.1121 111.282 85.2958 112.425C82.4844 113.565 80.1875 114.985 78.6552 116.714L79.4037 117.378ZM18.2339 98.9861C32.4377 94.2517 47.9009 94.9001 59.6342 98.7051C65.5011 100.608 70.4058 103.29 73.7517 106.454C77.0956 109.615 78.8491 113.221 78.5312 117.004L79.5277 117.088C79.8789 112.909 77.9257 109.024 74.4388 105.727C70.9538 102.432 65.9034 99.6869 59.9427 97.7539C48.0205 93.8876 32.3379 93.2309 17.9177 98.0374L18.2339 98.9861ZM0.915271 61.6787C19.026 64.7927 26.5097 71.4427 27.9271 78.3623C29.3528 85.3227 24.7281 92.9205 17.7767 98.1111L18.375 98.9124C25.453 93.6273 30.4476 85.6842 28.9067 78.1616C27.3575 70.5983 19.2885 63.8232 1.08473 60.6932L0.915271 61.6787Z" fill="#20525C"/>
</svg>
