<svg width="587" height="187" viewBox="0 0 587 187" fill="none" xmlns="http://www.w3.org/2000/svg">
<path d="M221.539 12.4445C252.702 19.9534 285.008 13.7204 282.757 1C291.022 16.4204 357.646 25.5394 379.32 12.5813C401.535 37.5219 490.826 35.424 514.975 16.9566C495.999 40.8224 535.183 69.1325 586 62.6884C543.876 70.8613 507.871 115.55 570.104 132.948C499.91 132.887 496.58 145.939 497.383 169.186C441.445 139.536 400.05 163.256 389.823 186C372.379 166.145 272.201 173.461 253.341 183.212C246.479 158.954 147.936 153.204 128.783 172.739C130.974 149.172 75.8388 131.19 28.9637 145.309C51.9387 129.806 60.4694 99.311 1 90.0703C60.1517 90.1216 62.8158 61.7585 47.1811 54.4383C84.4463 61.6066 143.087 44.0265 121.719 23.2723C117.937 21.5668 115.069 19.5784 113.445 17.3285C116.973 19.3259 119.702 21.3132 121.719 23.2723C147.279 34.7977 214.565 33.3995 221.539 12.4445Z" fill="white"/>
<path d="M221.539 12.4445L221.774 11.4724C221.269 11.3507 220.755 11.6359 220.59 12.1287L221.539 12.4445ZM282.757 1L283.639 0.527597C283.407 0.0945034 282.894 -0.105768 282.43 0.0551241C281.966 0.216016 281.687 0.690391 281.773 1.17425L282.757 1ZM47.1811 54.4383L47.37 53.4563C46.8746 53.361 46.3858 53.6496 46.23 54.1294C46.0742 54.6093 46.3002 55.13 46.7571 55.3439L47.1811 54.4383ZM1 90.0703L1.00087 89.0703C0.478281 89.0698 0.0434676 89.4718 0.00300241 89.9929C-0.0374627 90.5139 0.330067 90.9782 0.846456 91.0584L1 90.0703ZM113.445 17.3285L113.937 16.4583C113.528 16.2267 113.013 16.3112 112.7 16.6614C112.386 17.0115 112.359 17.5327 112.634 17.9138L113.445 17.3285ZM379.32 12.5813L380.067 11.9162C379.748 11.5578 379.219 11.4767 378.807 11.723L379.32 12.5813ZM514.975 16.9566L515.757 17.5789C516.072 17.1838 516.042 16.6165 515.688 16.2562C515.335 15.8959 514.768 15.8556 514.367 16.1622L514.975 16.9566ZM586 62.6884L586.19 63.6701C586.72 63.5673 587.073 63.0629 586.987 62.5301C586.902 61.9974 586.409 61.6284 585.874 61.6963L586 62.6884ZM570.104 132.948L570.103 133.948C570.603 133.948 571.026 133.579 571.095 133.084C571.163 132.589 570.855 132.119 570.373 131.985L570.104 132.948ZM497.383 169.186L496.915 170.07C497.231 170.237 497.611 170.223 497.914 170.034C498.216 169.845 498.395 169.509 498.383 169.152L497.383 169.186ZM389.823 186L389.071 186.66C389.296 186.916 389.635 187.039 389.971 186.989C390.308 186.938 390.595 186.72 390.735 186.41L389.823 186ZM253.341 183.212L252.379 183.484C252.46 183.773 252.668 184.01 252.943 184.13C253.219 184.249 253.533 184.238 253.8 184.1L253.341 183.212ZM128.783 172.739L127.787 172.646C127.748 173.067 127.978 173.468 128.362 173.646C128.746 173.824 129.2 173.741 129.497 173.439L128.783 172.739ZM28.9637 145.309L28.4044 144.481C27.9946 144.757 27.8483 145.292 28.0603 145.738C28.2722 146.185 28.7788 146.41 29.2521 146.267L28.9637 145.309ZM221.305 13.4167C237.008 17.2003 253.019 17.5298 264.864 15.2908C270.777 14.1733 275.736 12.4003 279.1 10.0278C282.481 7.64369 284.397 4.52697 283.742 0.825747L281.773 1.17425C282.243 3.83322 280.965 6.26576 277.948 8.39329C274.914 10.5324 270.271 12.2335 264.493 13.3256C252.957 15.506 237.234 15.1976 221.774 11.4724L221.305 13.4167ZM46.7571 55.3439C50.433 57.065 52.9783 59.9943 53.9159 63.3689C54.8486 66.7258 54.2223 70.6363 51.3405 74.4119C45.5312 82.023 30.4981 89.0958 1.00087 89.0703L0.999133 91.0703C30.6535 91.096 46.5284 84.0129 52.9304 75.6253C56.1542 71.4015 56.9594 66.8519 55.8429 62.8335C54.7313 58.8328 51.7466 55.4717 47.6051 53.5326L46.7571 55.3439ZM112.952 18.1987C116.429 20.1672 119.084 22.1061 121.023 23.9896L122.416 22.5549C120.321 20.5204 117.516 18.4846 113.937 16.4583L112.952 18.1987ZM121.023 23.9896C123.592 26.4853 124.865 28.8421 125.191 31.0128C125.515 33.1659 124.929 35.2751 123.505 37.3376C120.613 41.5274 114.37 45.3578 106.094 48.3871C89.601 54.4239 65.8085 57.0031 47.37 53.4563L46.9922 55.4203C65.8189 59.0418 89.9796 56.4151 106.781 50.2653C115.152 47.2013 121.893 43.1934 125.151 38.4738C126.802 36.0816 127.583 33.4684 127.169 30.7155C126.758 27.9804 125.189 25.2478 122.416 22.5549L121.023 23.9896ZM112.634 17.9138C114.407 20.3702 117.46 22.4485 121.308 24.1839L122.131 22.3607C118.415 20.6851 115.731 18.7866 114.256 16.7432L112.634 17.9138ZM121.308 24.1839C134.306 30.0448 157.709 32.5696 178.672 31.0359C189.17 30.2678 199.137 28.477 206.947 25.5332C214.703 22.61 220.595 18.4479 222.488 12.7603L220.59 12.1287C218.996 16.9186 213.862 20.7894 206.242 23.6618C198.676 26.5136 188.916 28.281 178.526 29.0412C157.712 30.564 134.693 28.0252 122.131 22.3607L121.308 24.1839ZM281.876 1.4724C283.023 3.61334 285.128 5.55503 287.851 7.29866C290.588 9.05053 294.025 10.6507 297.942 12.077C305.777 14.93 315.633 17.1243 325.884 18.4247C336.138 19.7253 346.825 20.1365 356.327 19.404C365.8 18.6738 374.215 16.7989 379.834 13.4396L378.807 11.723C373.589 14.8428 365.547 16.6873 356.174 17.4099C346.83 18.1302 336.281 17.7274 326.136 16.4406C315.989 15.1534 306.285 12.9865 298.626 10.1977C294.796 8.80301 291.503 7.26207 288.93 5.61429C286.343 3.95827 284.557 2.24177 283.639 0.527597L281.876 1.4724ZM378.574 13.2464C384.328 19.7066 394.311 24.3148 406.245 27.3528C418.214 30.3995 432.296 31.904 446.412 32.0469C460.53 32.1899 474.719 30.9711 486.909 28.552C499.066 26.1397 509.359 22.51 515.582 17.7509L514.367 16.1622C508.516 20.6369 498.592 24.1948 486.52 26.5903C474.482 28.9791 460.432 30.1888 446.432 30.047C432.43 29.9053 418.514 28.4121 406.739 25.4147C394.929 22.4086 385.42 17.9263 380.067 11.9162L378.574 13.2464ZM514.192 16.3342C509.263 22.5332 508.061 29.1147 509.964 35.368C511.853 41.57 516.752 47.3124 523.758 52.0188C537.773 61.4345 560.528 66.9266 586.126 63.6804L585.874 61.6963C560.656 64.8943 538.41 59.4534 524.873 50.3586C518.102 45.8098 513.588 40.4026 511.878 34.7855C510.183 29.2198 511.198 23.3128 515.757 17.5789L514.192 16.3342ZM585.81 61.7067C575.144 63.7761 564.87 68.1545 556.435 73.8385C548.01 79.5152 541.351 86.541 538.007 93.9472C534.644 101.394 534.636 109.25 539.589 116.351C544.498 123.389 554.177 129.533 569.835 133.911L570.373 131.985C554.915 127.663 545.756 121.697 541.23 115.207C536.747 108.781 536.704 101.692 539.829 94.7702C542.973 87.8078 549.324 81.0418 557.552 75.4971C565.77 69.9596 575.794 65.6871 586.19 63.6701L585.81 61.7067ZM570.105 131.948C552.532 131.932 539.105 132.737 528.862 134.327C518.629 135.915 511.498 138.297 506.576 141.487C501.613 144.704 498.935 148.717 497.575 153.431C496.231 158.091 496.183 163.409 496.384 169.221L498.383 169.152C498.182 163.34 498.249 158.309 499.497 153.985C500.729 149.716 503.12 146.11 507.664 143.166C512.247 140.195 519.061 137.872 529.169 136.303C539.267 134.736 552.579 133.932 570.103 133.948L570.105 131.948ZM497.852 168.303C441.517 138.443 399.425 162.208 388.911 185.59L390.735 186.41C400.675 164.305 441.372 140.63 496.915 170.07L497.852 168.303ZM390.574 185.34C388.239 182.682 384.592 180.552 380.077 178.844C375.547 177.131 370.059 175.813 363.949 174.829C351.73 172.863 336.918 172.22 322.094 172.504C307.264 172.788 292.388 173.999 280.029 175.752C267.723 177.497 257.766 179.798 252.882 182.324L253.8 184.1C258.346 181.75 267.984 179.48 280.31 177.732C292.584 175.991 307.379 174.786 322.132 174.504C336.89 174.221 351.572 174.863 363.632 176.804C369.662 177.775 375.009 179.066 379.37 180.715C383.746 182.37 387.045 184.354 389.071 186.66L390.574 185.34ZM129.497 173.439C131.744 171.146 135.224 169.164 139.697 167.524C144.157 165.889 149.535 164.619 155.51 163.711C167.462 161.896 181.713 161.541 195.599 162.551C209.488 163.561 222.955 165.932 233.349 169.54C238.548 171.344 242.937 173.443 246.22 175.808C249.509 178.177 251.606 180.751 252.379 183.484L254.303 182.94C253.361 179.608 250.877 176.697 247.389 174.185C243.894 171.668 239.309 169.491 234.005 167.65C223.394 163.967 209.742 161.574 195.744 160.556C181.741 159.538 167.337 159.892 155.21 161.734C149.147 162.655 143.63 163.952 139.008 165.646C134.399 167.336 130.609 169.447 128.069 172.039L129.497 173.439ZM29.2521 146.267C52.4914 139.267 77.7957 140.226 96.9919 145.851C106.592 148.665 114.601 152.627 120.053 157.285C125.506 161.945 128.294 167.197 127.787 172.646L129.778 172.831C130.367 166.497 127.085 160.664 121.352 155.765C115.617 150.865 107.323 146.795 97.5543 143.932C78.012 138.205 52.311 137.232 28.6753 144.352L29.2521 146.267ZM0.846456 91.0584C15.6408 93.3573 26.1166 96.966 33.1675 101.273C40.2066 105.573 43.7834 110.534 44.9232 115.563C46.0656 120.602 44.8016 125.893 41.7917 130.924C38.7808 135.956 34.0539 140.668 28.4044 144.481L29.5231 146.138C35.361 142.199 40.316 137.286 43.508 131.951C46.7008 126.615 48.1605 120.797 46.8737 115.12C45.5844 109.432 41.5793 104.068 34.2101 99.5663C26.8528 95.0721 16.0939 91.4037 1.15354 89.0821L0.846456 91.0584Z" fill="#20525C"/>
</svg>
