<svg width="1440" height="1011" viewBox="0 0 1440 1011" fill="none" xmlns="http://www.w3.org/2000/svg">
<g filter="url(#filter0_i_2458_12351)">
<path d="M-33.6512 165.395C-33.6512 165.395 2.13676 330.25 107.566 335.551C212.994 340.851 416.461 159.67 486.565 232.05C556.669 304.431 138.345 674.23 287.066 754.551C502.886 871.11 685.954 311.954 853.566 377.05C995.422 432.143 688.726 778.179 822.566 831.05C989.314 896.921 1089.02 479.117 1243.25 548.05C1363.66 601.869 1144.81 779.549 1243.25 855.114C1327.19 919.557 1442.54 914.472 1442.54 914.472" stroke="#008E7F" stroke-width="64"/>
</g>
<path d="M-3.6624 193.432C-3.6624 193.432 12.6963 334.091 120.5 336.499C228.304 338.907 419.925 151.149 488.001 226C556.076 300.85 141.745 668.611 290 749.499C505.144 866.883 685.082 316.386 853.5 380.5C996.04 434.761 692.563 782.857 827.001 835C994.493 899.963 1086.68 477.394 1241.18 546C1361.8 599.563 1144.23 781.021 1241.18 858.392C1323.86 924.375 1437.97 914.687 1437.97 914.687" stroke="#DDE4E2" stroke-width="4" stroke-miterlimit="2.3662" stroke-linecap="round" stroke-dasharray="16 24"/>
<defs>
<filter id="filter0_i_2458_12351" x="-68.423" y="149.768" width="1512.78" height="793.146" filterUnits="userSpaceOnUse" color-interpolation-filters="sRGB">
<feFlood flood-opacity="0" result="BackgroundImageFix"/>
<feBlend mode="normal" in="SourceGraphic" in2="BackgroundImageFix" result="shape"/>
<feColorMatrix in="SourceAlpha" type="matrix" values="0 0 0 0 0 0 0 0 0 0 0 0 0 0 0 0 0 0 127 0" result="hardAlpha"/>
<feOffset dy="-12"/>
<feGaussianBlur stdDeviation="4"/>
<feComposite in2="hardAlpha" operator="arithmetic" k2="-1" k3="1"/>
<feColorMatrix type="matrix" values="0 0 0 0 0 0 0 0 0 0 0 0 0 0 0 0 0 0 0.24 0"/>
<feBlend mode="normal" in2="shape" result="effect1_innerShadow_2458_12351"/>
</filter>
</defs>
</svg>
