<svg width="396" height="427" viewBox="0 0 396 427" fill="none" xmlns="http://www.w3.org/2000/svg">
<path d="M108.024 41.5692C115.894 55.2006 109.285 73.7502 93.2619 83.0009C77.239 92.2517 57.8701 88.7006 50 75.0692C42.1299 61.4379 38.989 26.0008 55.0119 16.75C71.0347 7.49923 100.154 27.9379 108.024 41.5692Z" fill="black"/>
<path d="M142.25 41.5692C134.38 55.2006 140.989 73.7502 157.012 83.0009C173.034 92.2517 192.403 88.7006 200.273 75.0692C208.143 61.4379 211.284 26.0008 195.262 16.75C179.239 7.49923 150.12 27.9379 142.25 41.5692Z" fill="black"/>
<path d="M138.72 79.3649C153.356 87.4241 166.187 93.3978 180.186 92.6952C152.599 159.664 133.662 185.634 71.7182 190.782C58.1546 186.39 48.5267 177.688 39.587 169.776C89.9298 142.122 120.346 116.995 138.72 79.3649ZM182.591 129.347C203.684 148.631 225.175 164.383 245.995 175.959C281.271 195.619 314.645 203.768 340.535 196.698C342.912 210.65 352.322 236.226 348.138 248.373C329.573 271.115 275.736 275.26 250.406 264.573C237.169 258.279 227.13 247.601 214.688 234.926C226.003 256.418 238.177 267.012 250.346 273.348C265.368 280.178 278.547 283.608 292.35 282.487C292.605 299.331 298.022 317.644 297.577 331.62C297.22 336.883 296.146 339.515 292.652 341.071C267.419 344.562 240.199 330.649 216.775 330.481C179.193 325.743 160.907 300.28 156.66 293.515C165.607 311.169 183.013 332.555 197.685 337.951C183.553 353.982 192.369 391.626 196.527 407.104C184.463 402.089 168.77 393.138 153.743 381.366C134.72 366.516 116.783 347.28 107.16 326.671C96.0024 302.367 93.8066 274.791 86.6052 246.358C82.9026 231.58 77.6131 216.555 68.8114 201.952C154.21 204.443 171.794 161.013 182.591 129.347Z" fill="#20525C"/>
<circle cx="242" cy="305" r="24" fill="black"/>
<rect x="154" y="222" width="52" height="114" rx="26" transform="rotate(-30 154 222)" fill="#58C3AF"/>
<path d="M51 170L195.5 143.5L213 221.5L108.5 273L51 170Z" fill="#58C3AF"/>
<path d="M208.5 111.672C208.5 149.78 172.511 168.172 127.5 168.172C82.4888 168.172 47 149.78 47 111.672C47 73.5642 82.4888 30.1719 127.5 30.1719C172.511 30.1719 208.5 73.5642 208.5 111.672Z" fill="black"/>
<path d="M208.5 111.672C208.5 149.78 172.511 168.172 127.5 168.172C82.4888 168.172 47 149.78 47 111.672C47 73.5642 82.4888 30.1719 127.5 30.1719C172.511 30.1719 208.5 73.5642 208.5 111.672Z" fill="black"/>
<circle cx="164" cy="99" r="12" fill="white"/>
<ellipse cx="128" cy="126" rx="24" ry="18" fill="white"/>
<circle cx="91" cy="99" r="12" fill="white"/>
<ellipse cx="160" cy="99" rx="8" ry="10" fill="#58C3AF"/>
<ellipse cx="95" cy="99" rx="8" ry="10" fill="#58C3AF"/>
<rect x="122" y="111.172" width="12" height="7" rx="3.5" fill="#D29595"/>
<path d="M112.018 125.172C111.518 131.672 121.518 139.772 127.518 124.172M143.518 125.172C144.018 131.672 134.018 139.772 128.018 124.172" stroke="black" stroke-width="6" stroke-linecap="round"/>
<rect x="100.426" y="261.611" width="52" height="127.15" rx="26" transform="rotate(-30 100.426 261.611)" fill="#58C3AF"/>
<circle cx="187" cy="356" r="24" fill="black"/>
<rect x="21.9727" y="69.5801" width="42.4194" height="77.1648" rx="21.2097" transform="rotate(15 21.9727 69.5801)" fill="#58C3AF"/>
<rect y="132.995" width="42.4194" height="115.679" rx="21.2097" transform="rotate(-45 0 132.995)" fill="#58C3AF"/>
<rect x="173" y="175.736" width="42.4194" height="77.1648" rx="21.2097" transform="rotate(-60 173 175.736)" fill="#58C3AF"/>
<rect x="235.973" y="129" width="42.4194" height="77.1648" rx="21.2097" transform="rotate(15 235.973 129)" fill="#58C3AF"/>
<rect x="99" y="262.095" width="126" height="24" rx="12" transform="rotate(-20 99 262.095)" fill="#BBD532"/>
<ellipse cx="170.989" cy="157.947" rx="40.1776" ry="11.3836" transform="rotate(-30 170.989 157.947)" fill="#20525C"/>
<ellipse cx="106.462" cy="168.5" rx="41.9937" ry="11.8982" transform="rotate(10.5462 106.462 168.5)" fill="#20525C"/>
<path d="M162.504 40.2002C158.49 47.1522 165.906 52.5673 174.077 57.2853C182.249 62.0032 188.082 64.2373 192.096 57.2853C196.11 50.3333 197.711 32.2603 189.54 27.5424C181.368 22.8245 166.517 33.2482 162.504 40.2002Z" fill="#D29595"/>
<path d="M87.8323 40.2002C91.8461 47.1522 84.4302 52.5673 76.2586 57.2853C68.0869 62.0032 62.2539 64.2373 58.2402 57.2853C54.2264 50.3333 52.6246 32.2603 60.7962 27.5424C68.9679 22.8245 83.8186 33.2482 87.8323 40.2002Z" fill="#D29595"/>
<line x1="200.566" y1="111.533" x2="217.393" y2="108.566" stroke="#58605D" stroke-width="6" stroke-linecap="round"/>
<line x1="201.475" y1="121.571" x2="218.303" y2="124.538" stroke="#58605D" stroke-width="6" stroke-linecap="round"/>
<line x1="3" y1="-3" x2="20.0868" y2="-3" transform="matrix(-0.984808 -0.173648 -0.173648 0.984808 57.7363 115.009)" stroke="#58605D" stroke-width="6" stroke-linecap="round"/>
<line x1="3" y1="-3" x2="20.0868" y2="-3" transform="matrix(-0.984808 0.173648 0.173648 0.984808 57.8672 124.004)" stroke="#58605D" stroke-width="6" stroke-linecap="round"/>
<circle cx="42" cy="80" r="24" fill="black"/>
<circle cx="253" cy="152" r="24" fill="black"/>
<path d="M155.903 238.73C158.003 240.492 158.026 243.922 155.955 246.391C153.883 248.859 150.501 249.432 148.401 247.67C146.301 245.907 143.675 240.294 145.747 237.825C147.818 235.357 153.802 236.967 155.903 238.73Z" fill="#20525C"/>
<path d="M161.504 236.69C161.028 239.39 163.215 242.033 166.389 242.592C169.563 243.152 172.521 241.417 172.997 238.717C173.473 236.017 171.876 230.029 168.703 229.47C165.529 228.91 161.98 233.99 161.504 236.69Z" fill="#20525C"/>
<path d="M176.524 244.218C178.794 250.455 173.999 255.61 166.632 258.291C159.265 260.973 152.36 260.076 150.09 253.839C147.819 247.602 151.043 238.385 158.411 235.703C165.778 233.022 174.254 237.98 176.524 244.218Z" fill="#20525C"/>
<path d="M176.524 244.218C178.794 250.455 173.999 255.61 166.632 258.291C159.265 260.973 152.36 260.076 150.09 253.839C147.819 247.602 151.043 238.385 158.411 235.703C165.778 233.022 174.254 237.98 176.524 244.218Z" fill="#20525C"/>
</svg>
