<svg width="437" height="208" viewBox="0 0 437 208" fill="none" xmlns="http://www.w3.org/2000/svg">
<path fill-rule="evenodd" clip-rule="evenodd" d="M380.937 154.466C423.262 138.146 436 113.819 436 87.7504C436 55.6751 398.674 27.5763 337.032 11.9091C307.134 4.30998 272.006 1.00024 231.646 1.00024C108.073 1.00024 -3.71105 35.3298 1.15309 92.9414C4.26139 129.757 20.1344 142.623 63.0883 158.316C91.7084 168.772 129.601 173.997 179.014 173.997C197.735 175.091 215.743 175.571 232.902 175.49C279.892 197.098 304.304 201.91 317.018 204.416C321.307 205.261 324.265 205.844 326.309 206.721C300.665 195.719 280.847 184.128 267.086 174.543C314.696 172.067 353.866 164.904 380.937 154.466Z" fill="white"/>
<path d="M380.937 154.466L381.297 155.399L380.937 154.466ZM337.032 11.9091L336.786 12.8782L337.032 11.9091ZM1.15309 92.9414L2.14954 92.8573L1.15309 92.9414ZM63.0883 158.316L62.7451 159.255H62.7451L63.0883 158.316ZM179.014 173.997L179.072 172.999C179.053 172.998 179.033 172.997 179.014 172.997V173.997ZM232.902 175.49L233.319 174.581C233.187 174.52 233.043 174.489 232.897 174.49L232.902 175.49ZM317.018 204.416L317.211 203.435H317.211L317.018 204.416ZM325.915 207.64C326.422 207.858 327.01 207.623 327.228 207.115C327.446 206.608 327.211 206.02 326.703 205.802L325.915 207.64ZM267.086 174.543L267.034 173.544C266.608 173.566 266.242 173.857 266.125 174.268C266.007 174.679 266.164 175.119 266.515 175.363L267.086 174.543ZM435 87.7504C435 100.613 431.861 112.991 423.538 124.167C415.207 135.353 401.62 145.419 380.577 153.533L381.297 155.399C402.579 147.192 416.523 136.935 425.142 125.361C433.77 113.777 437 100.957 437 87.7504H435ZM336.786 12.8782C367.529 20.6921 392.132 31.5886 409.025 44.4719C425.921 57.357 435 72.1385 435 87.7504H437C437 71.2871 427.416 55.9815 410.238 42.8815C393.058 29.7798 368.177 18.7932 337.279 10.9399L336.786 12.8782ZM231.646 2.00024C271.958 2.00024 306.996 5.3067 336.786 12.8782L337.279 10.9399C307.272 3.31325 272.055 0.000244141 231.646 0.000244141V2.00024ZM2.14954 92.8573C0.965156 78.8292 6.86154 66.1601 18.4327 54.9902C30.0212 43.8034 47.2581 34.1713 68.5818 26.3047C111.221 10.5744 169.934 2.00024 231.646 2.00024V0.000244141C169.785 0.000244141 110.819 8.59087 67.8896 24.4283C46.4286 32.3455 28.9082 42.098 17.0436 53.5513C5.16155 65.0214 -1.09105 78.2478 0.156632 93.0255L2.14954 92.8573ZM63.4314 157.377C41.9629 149.533 27.4443 142.454 17.8876 132.844C8.38261 123.287 3.69167 111.123 2.14954 92.8573L0.156632 93.0255C1.72281 111.576 6.52251 124.252 16.4695 134.255C26.3648 144.205 41.2597 151.406 62.7451 159.255L63.4314 157.377ZM179.014 172.997C129.658 172.997 91.8964 167.776 63.4314 157.377L62.7451 159.255C91.5203 169.768 129.545 174.997 179.014 174.997V172.997ZM232.897 174.49C215.76 174.571 197.773 174.091 179.072 172.999L178.956 174.996C197.697 176.09 215.726 176.571 232.906 176.49L232.897 174.49ZM232.484 176.398C279.559 198.046 304.049 202.879 316.824 205.397L317.211 203.435C304.559 200.941 280.225 196.151 233.319 174.581L232.484 176.398ZM316.824 205.397C321.164 206.252 323.992 206.815 325.915 207.64L326.703 205.802C324.538 204.873 321.451 204.27 317.211 203.435L316.824 205.397ZM326.703 205.802C301.121 194.826 281.361 183.268 267.658 173.722L266.515 175.363C280.332 184.988 300.21 196.611 325.915 207.64L326.703 205.802ZM380.577 153.533C353.643 163.918 314.589 171.071 267.034 173.544L267.138 175.541C314.803 173.063 354.089 165.89 381.297 155.399L380.577 153.533Z" fill="#20525C"/>
</svg>
