<svg width="640" height="800" viewBox="0 0 640 800" fill="none" xmlns="http://www.w3.org/2000/svg">
<g filter="url(#filter0_i_705_3001)">
<path d="M-22.5006 124.5L19.6425 118.06L57.5 109.999C57.5 109.999 108.571 97.7406 141.285 148.12C174 198.5 26.5898 282.148 72.2986 340.999C138.63 426.401 339.5 190 432.501 245.999C552.86 318.469 119 454 195 553C241.777 613.933 457.783 425.637 526.5 503C602 587.999 422.948 647.049 450 697.499C473.07 740.524 645.001 718.499 645.001 718.499" stroke="#008E7F" stroke-width="35"/>
</g>
<path d="M-43.0006 102.863C-43.0006 102.863 -36.0005 134.5 26.9995 115C89.9995 95.5003 137.499 118.5 145.999 155C154.499 191.5 34.0559 284.409 79.5043 343.496C145.458 429.241 351 169.5 434.999 249.499C529.636 339.63 160.499 432.501 191.999 543.5C213.143 618.005 487.095 421.591 537.499 516.5C584.499 605 414.999 648.5 449.502 695.997C484.004 743.494 645.004 715.496 645.004 715.496" stroke="#DDE4E2" stroke-width="2" stroke-miterlimit="2.3662" stroke-linecap="round" stroke-dasharray="12 16"/>
<defs>
<filter id="filter0_i_705_3001" x="-25.0082" y="86.9851" width="672.104" height="654.851" filterUnits="userSpaceOnUse" color-interpolation-filters="sRGB">
<feFlood flood-opacity="0" result="BackgroundImageFix"/>
<feBlend mode="normal" in="SourceGraphic" in2="BackgroundImageFix" result="shape"/>
<feColorMatrix in="SourceAlpha" type="matrix" values="0 0 0 0 0 0 0 0 0 0 0 0 0 0 0 0 0 0 127 0" result="hardAlpha"/>
<feOffset dy="-4"/>
<feGaussianBlur stdDeviation="2"/>
<feComposite in2="hardAlpha" operator="arithmetic" k2="-1" k3="1"/>
<feColorMatrix type="matrix" values="0 0 0 0 0 0 0 0 0 0 0 0 0 0 0 0 0 0 0.24 0"/>
<feBlend mode="normal" in2="shape" result="effect1_innerShadow_705_3001"/>
</filter>
</defs>
</svg>
