<svg width="168" height="128" viewBox="0 0 168 128" fill="none" xmlns="http://www.w3.org/2000/svg">
<mask id="path-1-inside-1_4682_25018" fill="white">
<rect x="18" width="10" height="128" rx="4"/>
</mask>
<rect x="18" width="10" height="128" rx="4" fill="#F0F4F4" stroke="#20525C" stroke-width="10" mask="url(#path-1-inside-1_4682_25018)"/>
<path d="M2.5 12C2.5 11.1716 3.17157 10.5 4 10.5H90.5205H133.976C134.406 10.5 134.816 10.6848 135.101 11.0073L163.789 43.5073C164.29 44.0744 164.29 44.9256 163.789 45.4927L135.101 77.9927C134.816 78.3152 134.407 78.5 133.976 78.5H90.5205H4C3.17157 78.5 2.5 77.8284 2.5 77V12Z" fill="#BBD532" stroke="#20525C" stroke-width="5"/>
<mask id="path-3-inside-2_4682_25018" fill="white">
<rect x="7" y="118" width="32" height="10" rx="4"/>
</mask>
<rect x="7" y="118" width="32" height="10" rx="4" fill="#F0F4F4" stroke="#20525C" stroke-width="10" mask="url(#path-3-inside-2_4682_25018)"/>
<path d="M18.16 40.32V29.64L13.72 30V22.56L27.52 23.28V27.6L22.24 28.56L23.56 39.24L18.16 40.32ZM31.5828 38.2C31.2628 37.8267 31.0495 37.02 30.9428 35.78C30.8495 34.5267 30.8028 32.8467 30.8028 30.74C30.8028 29.3533 30.8095 27.9 30.8228 26.38C30.8495 24.8467 30.8695 23.62 30.8828 22.7C32.2561 22.5267 33.6295 22.3533 35.0028 22.18C35.5228 22.18 35.9228 22.2467 36.2028 22.38C36.4828 22.5133 36.6228 22.7467 36.6228 23.08C36.6228 23.6667 36.1228 24.0533 35.1228 24.24C34.1361 24.4267 33.4228 24.5533 32.9828 24.62V29.22C33.2495 29.22 33.6161 29.2067 34.0828 29.18C34.5495 29.14 34.8161 29.12 34.8828 29.12C35.3495 29.12 35.7161 29.1867 35.9828 29.32C36.2495 29.44 36.4028 29.6267 36.4428 29.88C36.4961 30.1333 36.5228 30.28 36.5228 30.32C36.5228 30.9467 36.0961 31.3 35.2428 31.38C34.3895 31.4467 33.6828 31.4933 33.1228 31.52L33.2628 35.82C33.5695 35.82 34.0295 35.7733 34.6428 35.68C35.2561 35.5733 35.6695 35.52 35.8828 35.52C36.2561 35.52 36.5495 35.5933 36.7628 35.74C36.9895 35.8867 37.1295 36.1467 37.1828 36.52C37.2495 36.96 36.7095 37.3867 35.5628 37.8C34.4295 38.2 33.3961 38.4 32.4628 38.4C31.9961 38.4 31.7028 38.3333 31.5828 38.2ZM40.2536 35.64C40.4669 35.44 40.7069 35.34 40.9736 35.34C41.1736 35.34 41.6336 35.5333 42.3536 35.92C43.0869 36.2933 43.6269 36.48 43.9736 36.48C44.7869 36.48 45.4869 36.2867 46.0736 35.9C46.6736 35.5133 46.9736 34.9467 46.9736 34.2C46.9736 33.4133 46.3336 32.7333 45.0536 32.16C43.7736 31.5867 42.5203 31.0267 41.2936 30.48C39.9603 29.7333 39.2936 28.8133 39.2936 27.72C39.2936 26.6267 39.8803 25.5733 41.0536 24.56C42.2403 23.5467 43.5336 23.04 44.9336 23.04C46.0269 23.04 46.8403 23.1 47.3736 23.22C47.9069 23.3267 48.1736 23.6667 48.1736 24.24C48.1736 24.68 47.4603 24.9733 46.0336 25.12C44.6069 25.2533 43.5269 25.44 42.7936 25.68C42.0603 25.9067 41.6936 26.5467 41.6936 27.6C41.6936 28.2933 42.5603 28.98 44.2936 29.66C46.0403 30.3267 47.3003 30.8933 48.0736 31.36C48.8603 31.8133 49.2536 32.72 49.2536 34.08C49.2536 35.4 48.7136 36.4533 47.6336 37.24C46.5669 38.0133 45.3069 38.4 43.8536 38.4C43.0536 38.4 42.2003 38.1733 41.2936 37.72C40.4003 37.2533 39.9536 36.7667 39.9536 36.26C39.9536 36.0333 40.0536 35.8267 40.2536 35.64ZM57.3073 38.4C56.854 38.4 56.5273 38.0867 56.3273 37.46C56.1273 36.8333 56.0073 36.0533 55.9673 35.12C55.9273 34.1867 55.9073 32.84 55.9073 31.08C55.9073 30.1467 55.894 29.1133 55.8673 27.98C55.854 26.8333 55.8407 25.9067 55.8273 25.2C55.574 25.1467 55.2807 25.12 54.9473 25.12C54.6807 25.12 54.254 25.1533 53.6673 25.22C53.094 25.2867 52.7473 25.32 52.6273 25.32C52.2673 25.32 51.994 25.2533 51.8073 25.12C51.6073 24.9867 51.4807 24.7333 51.4273 24.36C51.334 23.68 51.9673 23.2733 53.3273 23.14C54.5673 23.0867 55.814 23.0267 57.0673 22.96C58.4273 22.76 59.794 22.56 61.1673 22.36C61.5273 22.36 61.8073 22.4133 62.0073 22.52C62.2207 22.6133 62.334 22.7867 62.3473 23.04C62.4273 23.8933 61.934 24.4 60.8673 24.56C59.8007 24.72 58.854 24.8533 58.0273 24.96V25.56V26.16V26.72V27.22V27.68V28.08V28.44V28.78V29.06V29.32C58.0273 29.5733 58.0207 29.8333 58.0073 30.1C58.0073 30.3533 58.0073 30.6067 58.0073 30.86V31.08C58.0073 31.7733 58.034 32.7467 58.0873 34C58.1407 35.24 58.1673 35.8867 58.1673 35.94C58.1673 36.7533 58.1073 37.3667 57.9873 37.78C57.8673 38.1933 57.6407 38.4 57.3073 38.4ZM79.7169 39.96C79.2235 39.96 78.8902 39.5267 78.7169 38.66C78.5435 37.78 78.4569 36.6333 78.4569 35.22C78.4569 34.7933 78.4569 34.3867 78.4569 34C78.4569 33.6 78.4635 33.2133 78.4769 32.84C77.4769 31.0133 76.6369 29.38 75.9569 27.94C75.2902 26.5 74.9569 25.3667 74.9569 24.54C74.9569 24.1267 75.0369 23.88 75.1969 23.8C75.3569 23.7067 75.4769 23.66 75.5569 23.66C76.0635 23.66 76.8302 24.8067 77.8569 27.1C78.8969 29.38 79.4369 30.5467 79.4769 30.6C79.9435 30.0133 80.6635 28.9733 81.6369 27.48C82.6102 25.9733 83.3435 24.8933 83.8369 24.24C84.3435 23.5733 84.7835 23.24 85.1569 23.24C85.2635 23.24 85.3702 23.2867 85.4769 23.38C85.5969 23.4733 85.6569 23.6467 85.6569 23.9C85.6569 24.4467 85.3769 25.1933 84.8169 26.14C84.2569 27.0867 83.4569 28.32 82.4169 29.84C81.3769 31.36 80.7302 32.3467 80.4769 32.8C80.4769 33.12 80.4902 33.7533 80.5169 34.7C80.5435 35.6333 80.5569 36.1867 80.5569 36.36C80.5569 37.5067 80.4969 38.3933 80.3769 39.02C80.2702 39.6467 80.0502 39.96 79.7169 39.96ZM93.2061 39.3C91.4861 39.3 90.1594 38.4667 89.2261 36.8C88.2928 35.1333 87.8261 33.16 87.8261 30.88C87.8261 28.7733 88.2128 26.9667 88.9861 25.46C89.7594 23.94 90.8261 23.18 92.1861 23.18C93.9594 23.18 95.3461 24.0533 96.3461 25.8C97.3461 27.5467 97.8461 29.58 97.8461 31.9C97.8461 33.9533 97.4394 35.7 96.6261 37.14C95.8261 38.58 94.6861 39.3 93.2061 39.3ZM93.4661 37.54C94.1861 37.54 94.7728 36.9867 95.2261 35.88C95.6794 34.7733 95.9061 33.44 95.9061 31.88C95.9061 30.0667 95.6061 28.4933 95.0061 27.16C94.4061 25.8267 93.5394 25.16 92.4061 25.16C91.6594 25.16 91.0528 25.74 90.5861 26.9C90.1328 28.0467 89.9061 29.4133 89.9061 31C89.9061 32.7467 90.1994 34.2733 90.7861 35.58C91.3861 36.8867 92.2794 37.54 93.4661 37.54ZM103.985 22.32C104.385 22.48 104.585 22.84 104.585 23.4C104.585 23.8533 104.418 24.56 104.085 25.52C103.751 26.48 103.425 27.4533 103.105 28.44C102.785 29.4133 102.625 30.2667 102.625 31C102.625 32.3733 102.851 33.56 103.305 34.56C103.758 35.5467 104.265 36.0733 104.825 36.14C105.398 36.1933 105.751 36.22 105.885 36.22C106.965 36.22 107.758 35.6467 108.265 34.5C108.771 33.34 109.025 32.0133 109.025 30.52C109.025 29.8933 108.911 28.8333 108.685 27.34C108.458 25.8467 108.345 24.8067 108.345 24.22C108.345 23.66 108.418 23.2133 108.565 22.88C108.725 22.5333 108.985 22.3333 109.345 22.28C109.958 22.1867 110.418 23.0733 110.725 24.94C111.031 26.8067 111.185 28.7733 111.185 30.84C111.185 32.8 110.698 34.5533 109.725 36.1C108.751 37.6467 107.458 38.42 105.845 38.42C105.658 38.42 105.138 38.38 104.285 38.3C103.445 38.22 102.625 37.46 101.825 36.02C101.025 34.5667 100.625 32.88 100.625 30.96C100.625 29.16 100.951 27.26 101.605 25.26C102.258 23.26 102.951 22.26 103.685 22.26C103.778 22.26 103.878 22.28 103.985 22.32ZM123.137 28.74C122.897 27.6867 122.43 26.8933 121.737 26.36C121.043 25.8267 120.257 25.56 119.377 25.56C118.71 25.56 118.083 25.7 117.497 25.98V31.58C117.497 32.1133 117.497 32.6533 117.497 33.2C117.497 33.7333 117.503 34.28 117.517 34.84C117.517 36.96 117.423 38.36 117.237 39.04C117.063 39.7333 116.803 40.08 116.457 40.08C115.963 40.08 115.63 39.5933 115.457 38.62C115.283 37.6333 115.197 36.3 115.197 34.62C115.197 34.1 115.197 33.5867 115.197 33.08C115.197 32.56 115.203 32.0533 115.217 31.56C115.217 31.1867 115.21 30.6067 115.197 29.82C115.183 29.02 115.177 28.4267 115.177 28.04C115.177 26.76 115.217 25.88 115.297 25.4C115.39 24.92 115.51 24.56 115.657 24.32C115.803 24.0667 116.183 23.8667 116.797 23.72C117.41 23.56 118.11 23.48 118.897 23.48C120.603 23.48 122.09 23.8667 123.357 24.64C124.637 25.4133 125.277 26.68 125.277 28.44C125.277 29.5333 125.09 30.42 124.717 31.1C124.357 31.7667 123.877 32.3 123.277 32.7C122.677 33.1 121.777 33.5733 120.577 34.12C120.803 34.6133 121.157 35.02 121.637 35.34C122.117 35.6467 122.59 35.9467 123.057 36.24C123.217 36.3733 123.69 36.5933 124.477 36.9C125.263 37.1933 125.657 37.5267 125.657 37.9C125.657 37.94 125.637 38.0467 125.597 38.22C125.557 38.3933 125.443 38.5333 125.257 38.64C125.07 38.7467 124.837 38.8 124.557 38.8C124.05 38.8 123.45 38.66 122.757 38.38C122.077 38.1 121.403 37.72 120.737 37.24C120.07 36.7467 119.437 36.1133 118.837 35.34C118.237 34.5667 117.97 34 118.037 33.64C118.09 33.36 118.643 32.9867 119.697 32.52C120.763 32.04 121.61 31.58 122.237 31.14C122.877 30.7 123.197 30.0933 123.197 29.32C123.197 29.1333 123.177 28.94 123.137 28.74ZM15.16 67.84C14.76 67.84 14.4933 67.3133 14.36 66.26C14.24 65.1933 14.18 63.7333 14.18 61.88C14.18 61.36 14.18 60.8467 14.18 60.34C14.18 59.8333 14.1867 59.3333 14.2 58.84C14.2 58.4533 14.1867 57.7467 14.16 56.72C14.1333 55.68 14.12 55.1133 14.12 55.02C14.12 54.0067 14.1733 53.2333 14.28 52.7C14.3867 52.1533 14.6 51.88 14.92 51.88C15.4667 51.88 15.84 52.2933 16.04 53.12C16.24 53.9333 16.34 55.08 16.34 56.56C16.34 57.2267 16.3333 57.9067 16.32 58.6C16.3067 59.28 16.2933 59.96 16.28 60.64C16.9733 60.04 18.1133 58.6267 19.7 56.4C21.2867 54.1733 22.4133 52.6333 23.08 51.78C23.7467 50.9267 24.3133 50.5 24.78 50.5C24.86 50.5 24.98 50.5467 25.14 50.64C25.3 50.72 25.38 50.92 25.38 51.24C25.38 51.8667 24.9867 52.7533 24.2 53.9C23.4133 55.0467 22.2333 56.58 20.66 58.5C19.1 60.4067 18.2267 61.48 18.04 61.72C18.4533 62.16 19.22 62.8 20.34 63.64C21.46 64.4667 22.28 65.12 22.8 65.6C23.3333 66.0667 23.6 66.52 23.6 66.96C23.6 67.24 23.5067 67.4667 23.32 67.64C23.1467 67.8133 22.9733 67.9 22.8 67.9C22.48 67.9 21.8133 67.4733 20.8 66.62C19.8 65.7533 19.0267 65.1133 18.48 64.7C17.9467 64.2733 17.2133 63.9067 16.28 63.6C16.28 63.8933 16.3 64.3133 16.34 64.86C16.38 65.4067 16.4 65.8 16.4 66.04C16.4 66.6267 16.3133 67.0733 16.14 67.38C15.9667 67.6867 15.64 67.84 15.16 67.84ZM29.9977 66.64C29.4243 66.64 29.0377 66.2133 28.8377 65.36C28.651 64.5067 28.5577 63.3267 28.5577 61.82C28.5577 61.46 28.5643 60.9133 28.5777 60.18C28.591 59.4467 28.5977 58.92 28.5977 58.6C28.5977 58.28 28.591 57.74 28.5777 56.98C28.5643 56.22 28.5577 55.6467 28.5577 55.26C28.5577 53.86 28.6243 52.7667 28.7577 51.98C28.9043 51.1933 29.1977 50.8 29.6377 50.8C30.1443 50.8 30.731 51.4333 31.3977 52.7C32.0777 53.9533 32.931 55.8133 33.9577 58.28C34.9977 60.7467 35.7443 62.44 36.1977 63.36C36.1977 62.68 36.171 61.4467 36.1177 59.66C36.0643 57.8733 36.0377 56.52 36.0377 55.6C36.0377 53.8 36.1177 52.3933 36.2777 51.38C36.451 50.3533 36.7577 49.84 37.1977 49.84C37.6643 49.84 37.971 50.3133 38.1177 51.26C38.2777 52.1933 38.3577 53.48 38.3577 55.12C38.3577 55.4933 38.351 56.04 38.3377 56.76C38.3243 57.48 38.3177 58 38.3177 58.32C38.3177 58.8133 38.3177 59.3133 38.3177 59.82C38.3177 60.3133 38.3243 60.82 38.3377 61.34C38.3377 63.8867 38.2377 65.5867 38.0377 66.44C37.8377 67.2933 37.5577 67.72 37.1977 67.72C36.491 67.72 35.8377 67.1733 35.2377 66.08C34.6377 64.9867 33.8843 63.3067 32.9777 61.04C32.0843 58.7733 31.3577 57.16 30.7977 56.2C30.7977 56.92 30.811 57.9933 30.8377 59.42C30.8777 60.8333 30.8977 61.6867 30.8977 61.98C30.8977 63.4733 30.831 64.6267 30.6977 65.44C30.5777 66.24 30.3443 66.64 29.9977 66.64ZM47.0811 67.3C45.3611 67.3 44.0344 66.4667 43.1011 64.8C42.1678 63.1333 41.7011 61.16 41.7011 58.88C41.7011 56.7733 42.0878 54.9667 42.8611 53.46C43.6344 51.94 44.7011 51.18 46.0611 51.18C47.8344 51.18 49.2211 52.0533 50.2211 53.8C51.2211 55.5467 51.7211 57.58 51.7211 59.9C51.7211 61.9533 51.3144 63.7 50.5011 65.14C49.7011 66.58 48.5611 67.3 47.0811 67.3ZM47.3411 65.54C48.0611 65.54 48.6478 64.9867 49.1011 63.88C49.5544 62.7733 49.7811 61.44 49.7811 59.88C49.7811 58.0667 49.4811 56.4933 48.8811 55.16C48.2811 53.8267 47.4144 53.16 46.2811 53.16C45.5344 53.16 44.9278 53.74 44.4611 54.9C44.0078 56.0467 43.7811 57.4133 43.7811 59C43.7811 60.7467 44.0744 62.2733 44.6611 63.58C45.2611 64.8867 46.1544 65.54 47.3411 65.54ZM59.2995 67.84C58.7662 67.72 58.2862 67.2867 57.8595 66.54C57.4462 65.78 57.0862 64.9133 56.7795 63.94C56.4729 62.9667 56.1262 61.8133 55.7395 60.48C55.3662 59.1333 54.9995 57.8267 54.6395 56.56C54.2795 55.2933 54.0995 54.3 54.0995 53.58C54.0995 53.1667 54.1595 52.84 54.2795 52.6C54.3995 52.3467 54.5929 52.1867 54.8595 52.12C55.5662 51.9467 56.0995 52.68 56.4595 54.32C56.8329 55.9467 57.1462 57.2867 57.3995 58.34C57.6529 59.3933 57.9062 60.3533 58.1595 61.22C58.4129 62.0867 58.6729 62.9733 58.9395 63.88C59.3129 62.7467 59.7329 60.94 60.1995 58.46C60.6662 55.9667 61.0662 54.1667 61.3995 53.06C61.7329 51.94 62.2062 51.38 62.8195 51.38C62.9129 51.38 63.1795 51.4333 63.6195 51.54C64.0595 51.6333 64.3995 52.0267 64.6395 52.72C64.8929 53.4 65.1862 54.7933 65.5195 56.9C65.8529 58.9933 66.2995 60.88 66.8595 62.56C67.3262 61.4933 67.8929 59.7733 68.5595 57.4C69.2395 55.0267 69.7929 53.3 70.2195 52.22C70.6462 51.1267 71.1395 50.58 71.6995 50.58C71.8062 50.58 71.9595 50.6267 72.1595 50.72C72.3595 50.8 72.4595 51.0533 72.4595 51.48C72.4595 51.96 72.2595 52.7933 71.8595 53.98C71.4595 55.1667 70.9995 56.5467 70.4795 58.12C69.9595 59.6933 69.5062 61.04 69.1195 62.16C68.7329 63.2667 68.3395 64.24 67.9395 65.08C67.5395 65.92 67.2195 66.32 66.9795 66.28C66.0329 66.1333 65.2595 64.8667 64.6595 62.48C64.0729 60.08 63.5262 57.7867 63.0195 55.6C62.7129 56.4 62.3262 58.0667 61.8595 60.6C61.4062 63.12 61.0062 64.9867 60.6595 66.2C60.3129 67.4133 59.8595 67.96 59.2995 67.84ZM75.5092 67.04C75.1892 66.6667 74.9759 65.86 74.8692 64.62C74.7759 63.3667 74.7292 61.6867 74.7292 59.58C74.7292 59.02 74.7226 58.4667 74.7092 57.92C74.7092 57.36 74.7092 56.8133 74.7092 56.28C74.7092 54.6533 74.7959 53.4533 74.9692 52.68C75.1426 51.8933 75.5092 51.5 76.0692 51.5C76.4292 51.5 76.6759 51.8 76.8092 52.4C76.9426 52.9867 77.0092 53.8333 77.0092 54.94C77.0092 55.54 76.9892 56.4067 76.9492 57.54C76.9226 58.6733 76.9092 59.3533 76.9092 59.58C76.9092 61.0333 76.9426 62.16 77.0092 62.96C77.0759 63.7467 77.1359 64.3133 77.1892 64.66C77.4959 64.66 77.9559 64.6133 78.5692 64.52C79.1826 64.4133 79.5959 64.36 79.8092 64.36C80.1826 64.36 80.4759 64.4333 80.6892 64.58C80.9159 64.7267 81.0559 64.9867 81.1092 65.36C81.1759 65.8 80.6359 66.2267 79.4892 66.64C78.3559 67.04 77.3226 67.24 76.3892 67.24C75.9226 67.24 75.6292 67.1733 75.5092 67.04ZM84.7 66.2C84.38 65.8267 84.1667 65.02 84.06 63.78C83.9667 62.5267 83.92 60.8467 83.92 58.74C83.92 57.3533 83.9267 55.9 83.94 54.38C83.9667 52.8467 83.9867 51.62 84 50.7C85.3733 50.5267 86.7467 50.3533 88.12 50.18C88.64 50.18 89.04 50.2467 89.32 50.38C89.6 50.5133 89.74 50.7467 89.74 51.08C89.74 51.6667 89.24 52.0533 88.24 52.24C87.2533 52.4267 86.54 52.5533 86.1 52.62V57.22C86.3667 57.22 86.7333 57.2067 87.2 57.18C87.6667 57.14 87.9333 57.12 88 57.12C88.4667 57.12 88.8333 57.1867 89.1 57.32C89.3667 57.44 89.52 57.6267 89.56 57.88C89.6133 58.1333 89.64 58.28 89.64 58.32C89.64 58.9467 89.2133 59.3 88.36 59.38C87.5067 59.4467 86.8 59.4933 86.24 59.52L86.38 63.82C86.6867 63.82 87.1467 63.7733 87.76 63.68C88.3733 63.5733 88.7867 63.52 89 63.52C89.3733 63.52 89.6667 63.5933 89.88 63.74C90.1067 63.8867 90.2467 64.1467 90.3 64.52C90.3667 64.96 89.8267 65.3867 88.68 65.8C87.5467 66.2 86.5133 66.4 85.58 66.4C85.1133 66.4 84.82 66.3333 84.7 66.2ZM94.4708 66.58C93.9374 66.2867 93.5374 65.64 93.2708 64.64C93.0174 63.6267 92.8508 62.3467 92.7708 60.8C92.6908 59.2533 92.6508 57.2933 92.6508 54.92V51.88C93.7708 51.36 94.8641 51.1 95.9308 51.1C97.2774 51.1 98.3708 51.5267 99.2108 52.38C100.064 53.22 100.491 54.5 100.491 56.22C100.491 57.5667 100.137 59.0667 99.4308 60.72C98.7374 62.36 97.9308 63.76 97.0108 64.92C96.0908 66.0667 95.3374 66.64 94.7508 66.64C94.6441 66.64 94.5508 66.62 94.4708 66.58ZM95.0708 63.78C96.0441 62.4333 96.7041 61.5 97.0508 60.98C97.3974 60.4467 97.7241 59.78 98.0308 58.98C98.3508 58.1667 98.5108 57.3133 98.5108 56.42C98.5108 55.7667 98.4374 55.16 98.2908 54.6C98.1574 54.04 97.9308 53.6533 97.6108 53.44C97.2908 53.2133 96.8974 53.1 96.4308 53.1C95.9108 53.1 95.3574 53.2467 94.7708 53.54C94.7708 55.4867 94.7908 57.16 94.8308 58.56C94.8708 59.96 94.9174 61.18 94.9708 62.22C95.0241 63.26 95.0574 63.78 95.0708 63.78ZM108.759 67.84C107.066 67.84 105.732 67.0933 104.759 65.6C103.799 64.0933 103.319 62.3067 103.319 60.24C103.319 58.08 103.852 56.2067 104.919 54.62C105.999 53.0333 107.519 52.24 109.479 52.24C110.412 52.24 111.332 52.4333 112.239 52.82C113.146 53.2067 113.599 53.7 113.599 54.3C113.599 54.5133 113.539 54.7267 113.419 54.94C113.299 55.14 113.126 55.24 112.899 55.24C112.872 55.24 112.419 55.06 111.539 54.7C110.659 54.34 109.972 54.16 109.479 54.16C108.226 54.16 107.232 54.76 106.499 55.96C105.779 57.1467 105.419 58.5467 105.419 60.16C105.419 61.6267 105.719 62.8933 106.319 63.96C106.932 65.0267 107.546 65.6067 108.159 65.7C108.772 65.78 109.139 65.82 109.259 65.82C110.059 65.82 110.799 65.3933 111.479 64.54C112.159 63.6867 112.499 62.78 112.499 61.82C112.499 61.6733 112.492 61.56 112.479 61.48C112.092 61.6267 111.692 61.7733 111.279 61.92C110.866 62.0533 110.519 62.12 110.239 62.12C110.012 62.12 109.812 62.0733 109.639 61.98C109.466 61.8733 109.339 61.7333 109.259 61.56C109.192 61.3867 109.159 61.2333 109.159 61.1C109.159 60.7933 109.272 60.58 109.499 60.46C109.726 60.3267 110.326 60.1 111.299 59.78C112.286 59.46 113.026 59.22 113.519 59.06C114.026 58.8867 114.432 58.8 114.739 58.8C115.246 58.8 115.552 58.9667 115.659 59.3C115.766 59.6333 115.819 59.8533 115.819 59.96C115.819 60.1867 115.699 60.3667 115.459 60.5C115.232 60.62 114.999 60.7467 114.759 60.88C114.759 62.56 114.219 64.14 113.139 65.62C112.059 67.1 110.599 67.84 108.759 67.84ZM118.981 66.2C118.661 65.8267 118.448 65.02 118.341 63.78C118.248 62.5267 118.201 60.8467 118.201 58.74C118.201 57.3533 118.208 55.9 118.221 54.38C118.248 52.8467 118.268 51.62 118.281 50.7C119.655 50.5267 121.028 50.3533 122.401 50.18C122.921 50.18 123.321 50.2467 123.601 50.38C123.881 50.5133 124.021 50.7467 124.021 51.08C124.021 51.6667 123.521 52.0533 122.521 52.24C121.535 52.4267 120.821 52.5533 120.381 52.62V57.22C120.648 57.22 121.015 57.2067 121.481 57.18C121.948 57.14 122.215 57.12 122.281 57.12C122.748 57.12 123.115 57.1867 123.381 57.32C123.648 57.44 123.801 57.6267 123.841 57.88C123.895 58.1333 123.921 58.28 123.921 58.32C123.921 58.9467 123.495 59.3 122.641 59.38C121.788 59.4467 121.081 59.4933 120.521 59.52L120.661 63.82C120.968 63.82 121.428 63.7733 122.041 63.68C122.655 63.5733 123.068 63.52 123.281 63.52C123.655 63.52 123.948 63.5933 124.161 63.74C124.388 63.8867 124.528 64.1467 124.581 64.52C124.648 64.96 124.108 65.3867 122.961 65.8C121.828 66.2 120.795 66.4 119.861 66.4C119.395 66.4 119.101 66.3333 118.981 66.2Z" fill="#20525C"/>
</svg>
